<svg id="Ebene_1" data-name="Ebene 1" xmlns="http://www.w3.org/2000/svg" viewBox="0 0 928.74 1600.83"><defs><style>.cls-1{fill:#5b727c;}</style></defs><path class="cls-1" d="M1472.05,1420.26h19.65v-96.92h-19.65Zm269.56-97c-2.5-.12-4.66-.29-6.81-.29q-22.63,0-45.25,0c-15,0-15,0-13.56,15.12,0,.34.39.66,1,1.68h12.7c7.79,0,7.79,0,7.8,8.06q0,10.54,0,21.11c0,15.29-.09,30.57.13,45.84,0,1.94,1.64,5.42,2.72,5.5,6.49.53,13,.27,19.6.27.14-2.45.3-3.85.3-5.24,0-23.12.12-46.26-.07-69.37,0-4.71,1.36-6.58,6.18-6.25s9.93.08,15.26.08Zm-592.27,48.36v41c0,8,0,8,7.71,8h39.19c8.46,0,8.46,0,8.45-8.67,0-.82-.08-1.63,0-2.42.51-4.54-1.62-5.94-6-5.79-7.43.27-14.88-.11-22.31.14-4.3.14-5.69-1.56-5.5-5.67.25-5.22.27-10.46,0-15.68-.23-4.36,1.67-5.58,5.72-5.44,6.43.23,12.88.26,19.29-.07,1.72-.1,4.44-1.5,4.84-2.85,3-10.21.15-13.81-10.29-13.81h-4.81c-15.05,0-14.88,0-14.79-15.05,0-4.65,1.78-5.92,6.07-5.72,5.42.27,10.86.07,16.28.07,10.56,0,10.56,0,10.27-10.73,0-.2,0-.41,0-.61.44-4.27-1.63-5.51-5.69-5.45-14.27.17-28.55.23-42.81,0-4.65-.09-5.78,1.62-5.72,6,.22,14.27.09,28.54.08,42.81m426.74-17.77c1.64-9.57-.1-18-6.75-24.71-6.86-6.89-15.88-7.64-25.15-7.46-16.16.32-27.13,8.69-28.81,24.8-1.54,14.69-1.32,29.61-1.16,44.43,0,5,1.65,10.34,3.67,15,5.79,13.53,17.43,16.23,30.76,16,16.84-.33,27.17-9.21,29.09-25.78,1.1-9.52.38-10.33-9.21-10.34-2.81,0-5.63.09-8.44,0-3.59-.11-5.12,1.54-5,5.1.09,2.2.5,4.71-.36,6.55-1.27,2.73-3.09,6.18-5.51,7.09s-6.48,0-8.81-1.65c-2-1.36-3.34-4.78-3.46-7.34-.68-14.2-1-28.41-1.15-42.63,0-2.89,1.21-5.84,2.07-8.69,1.34-4.43,5-7.27,9-6.26,3,.76,5.69,4.43,7.46,7.43,1.28,2.17.8,5.37,1.16,8.45Zm180.51,17.77q0,20.2,0,40.41c0,8.6,0,8.6,8.31,8.61,11.85,0,23.72.14,35.58,0,12.92-.21,11.32,2.81,11.57-12,.06-3.72-1.38-4.9-5-4.82-7.43.18-14.88-.07-22.31.1-3.71.09-5.66-.9-5.49-5.05.23-5.62.19-11.26,0-16.88-.13-3.77,1.56-4.93,5.08-4.82,5.22.17,10.46,0,15.68,0,8.3,0,8.3,0,8.31-8,0-8.78,0-8.78-8.87-8.79h-5.42c-15.92,0-15.82,0-14.81-16.2.21-3.39,1.49-4.61,4.77-4.53,5.22.13,10.44,0,15.68,0,11.49,0,11.34,0,11.14-11.59-.06-3.91-1.29-5.26-5.22-5.2-14.47.17-29,.23-43.42,0-4.63-.08-5.79,1.61-5.72,6,.21,14.27.08,28.55.08,42.82M1365,1353.87c1-9.08-.25-17.26-6.58-23.69-10.88-11.07-24.28-10.18-37.58-6.17-13.11,4-17.21,15.16-18,27.24a284.38,284.38,0,0,0,0,40.13c1.5,18.66,8.31,26.78,22.75,29.76a59.14,59.14,0,0,0,17.38.51c11.16-1,20.57-10.43,22.28-21.38,2.26-14.49,2.26-14.52-12.43-14.45-7.43,0-9.53-1.49-9.27,8.67.19,7.45-3.67,11-9.93,10.63a7.78,7.78,0,0,1-7.83-7.72c-.65-16.18-.71-32.38-.77-48.58,0-2.09.63-4.84,2-6.13,2.3-2.12,5.63-4.72,8.25-4.45s5.5,3.47,7,6.11,1.41,6.09,2.08,9.52Zm-123.56,35.57c-5.91,0-11.89-.11-17.85.1a4,4,0,0,0-2.82,2.3c-3.33,10.91,4.2,25.81,15.4,28.38,7.47,1.73,15.5,1.75,23.25,1.45,11.23-.42,20.47-7.5,22.89-18.09,3-13.14,2-22.7-8.34-30.3-6.28-4.63-13.3-8.28-19.49-13a41.14,41.14,0,0,1-10.4-11.11c-2.44-4.07.69-9,5.53-10.89a8.2,8.2,0,0,1,10.63,5,75.82,75.82,0,0,1,2.06,8.08h20.26c2.31-14.64-5.38-26.52-19-29.16-4.61-.9-9.51-.41-14.28-.41-14.36,0-24,9.65-26.44,18.73-3.23,12.3.3,22.73,11.64,30.91,5.85,4.23,12.1,7.91,17.92,12.18,3,2.21,6.6,4.71,7.91,7.91a13.27,13.27,0,0,1-.76,10.51c-1.28,2.13-5.66,3.17-8.71,3.3-4.23.2-7-2.49-7.66-7-.4-2.73-1-5.43-1.71-8.9m-133.55-35.23c5.89,0,11.51.26,17.06-.2,1.34-.11,3.61-2.66,3.54-4-.56-12-5.43-23.32-19.7-26.87-5.16-1.29-10.72-1.33-16.1-1.32-16,0-27.8,9.83-28.79,25.67a385.85,385.85,0,0,0,0,48.57c.91,14.68,11.33,25,25,25.54,10.76.45,21.59-.82,32.4-1.26,6.16-.24,7.71-3.45,7.48-9.32-.46-11.64-.11-23.31-.14-35,0-2.16-.21-4.31-.32-6.8h-30.92c0,4.34-.37,8.35.18,12.25.2,1.49,2.59,3.92,3.78,3.82,6.48-.59,7.45,2.8,6.93,8-.27,2.78.26,5.67-.19,8.41a5.94,5.94,0,0,1-2.78,4c-9.23,3.92-19.26-1.77-20-11.8-.89-12.18-1.19-24.43-1.18-36.65,0-4.51,1.23-9.12,2.54-13.5,1.42-4.76,4.92-6.87,10.14-6.63s7.72,2.9,9,7.34c.81,2.86,1.22,5.84,2,9.66m340.36,66v-96.88h-20.3c-.38.74-.69,1.09-.69,1.44-.1,7.63-.14,15.28-.25,22.91-.2,14.72,2.09,12.49-12.86,12.65-7.74.08-7.75,0-7.75-8.1V1323c-6.09,0-11.28.18-16.46-.06-3.92-.2-5.29,1.23-5.23,5.18.18,12.06.06,24.13.06,36.2,0,16.89-.08,33.78.13,50.68,0,1.88,1.62,5.25,2.7,5.34,6.1.52,12.25.26,18.8.26v-27.48c0-15.11,0-15,15-14.8,4.11.06,5.75,1.26,5.65,5.55-.23,10.05-.1,20.11,0,30.16,0,2.11.23,4.21.35,6.25ZM1659.58,1323c-6.16,0-11.56.14-17,0-3.6-.14-4.43,1.62-4.37,4.77q.18,9.35,0,18.71c-.33,16.29,3.18,13.67-14.52,14-3.62.07-5.11-1.25-5-4.93.18-5.62,0-11.25,0-16.88,0-15.81,0-15.58-16-15.77-5.38-.07-6.88,1.68-6.83,6.9.22,24.73.1,49.47.1,74.2,0,17.36,0,17.21,17.32,16.8,4.42-.11,5.49-1.92,5.41-5.83-.16-7.64-.14-15.28,0-22.92.26-15.88-2.67-13.23,13.69-13.69,4.53-.12,6,1.49,5.86,5.94-.24,10.45-.19,20.91.06,31.36,0,1.68,1.66,4.66,2.72,4.74,6.1.46,12.25.23,18.45.23ZM1439,1477.49H983.93c-8.54,0-8.55,0-8.55-8.53V1281.25c0-7.88,0-7.89,8-7.89h912.56c7.93,0,7.94,0,7.94,7.93v188.3c0,7.89,0,7.9-8,7.9Z" transform="translate(-975.25 -100)"/><path class="cls-1" d="M1164.6,1088.61c.13-2.87.3-5,.31-7.15.06-11.14-1.82-12.77-12.86-10.54a5.63,5.63,0,0,0-3.61,3.69,40.23,40.23,0,0,0,0,10.74,4.78,4.78,0,0,0,3.33,3.11c4.1.39,8.25.15,12.81.15m23.27-.42c0-2.62,0-4.6,0-6.58.05-11.62-.54-12.3-12.12-10.67-1.72.25-4.36,3-4.4,4.69-.33,15.67-1.48,12.71,12.2,13a42.74,42.74,0,0,0,4.32-.43m-102.63,108.2c0-12.31.17-24.55-.08-36.77-.09-4.54,1.5-6.12,5.95-5.85,5,.29,10.05.08,15.08.07,7.94,0,7.94,0,8-8.08,0-8.69,0-8.7-8.52-8.71h-5.43c-15.48,0-15.33,0-15.06-15.38.08-4.42,1.85-5.5,5.83-5.38,6.42.21,12.86,0,19.3.06,3.54.05,5.23-1.48,5.08-5.06a31,31,0,0,1,0-4.82c.63-5.13-1.21-7.13-6.7-7q-19,.55-38,0c-5.38-.14-7.27,1.23-7.2,7,.31,24.33.13,48.66.13,73,0,19.33,0,19.34,19.58,17.68a13.37,13.37,0,0,0,2-.74m410.09-15.89c-9.22,0-18-.11-26.8,0-3.69.07-5.65-.9-5.48-5,.23-5.62.2-11.26,0-16.88-.13-3.77,1.56-4.94,5.08-4.82,5.21.16,10.45,0,15.67,0,8.26,0,8.26,0,8.27-8.06,0-8.72,0-8.72-8.79-8.73-1.8,0-3.62,0-5.42,0-17.51-.45-14.37,3.42-14.82-15.55-.1-4,1.48-5.3,5.32-5.2,7,.19,14.09.28,21.1-.12,1.72-.1,4.52-2.08,4.76-3.53.65-4,.23-8.26.23-12.59h-52.58v96.85h53.44Zm163,0c-9.15,0-17.93-.16-26.71.07-4.23.11-5.77-1.41-5.56-5.61.25-5.41.19-10.85,0-16.26-.13-3.71,1.43-5,5-4.91,5.62.17,11.28-.34,16.86.15,6,.53,7.54-1.81,7.26-7.49-.51-10.45,1-9.29-9.43-9.4-1.61,0-3.21,0-4.83,0-17.59-.44-14.43,3.38-14.88-15.49-.1-3.92,1.32-5.38,5.25-5.27,7,.2,14.08.28,21.1-.12,1.74-.1,4.58-2,4.82-3.46.66-4,.23-8.27.23-12.69h-52.6v96.69h53.46Zm100.7-32.66c0,14.67.13,29.34-.07,44-.06,4.19,1.28,5.6,5.51,5.53,12.86-.23,25.72,0,38.58-.11s11.12,2.47,11.47-11.52c.11-4.44-1.73-5.43-5.71-5.31-7.42.22-14.87,0-22.3.09-3.28.06-4.83-1.09-4.75-4.53.13-5.83.17-11.67,0-17.49-.12-3.85,1.76-4.83,5.17-4.71,5,.15,10,0,15.09,0,8.83,0,8.83,0,8.81-8.83,0-7.94,0-7.94-7.87-8-2,0-4,0-6,0-17.94-.49-14.78,3.67-15.12-15.77,0-.2-.09-.49,0-.6,1.41-1.45,2.75-4,4.29-4.12,5.59-.5,11.24-.2,16.87-.2,10.42,0,10.42,0,10.26-10.58,0-.19,0-.4,0-.6.52-4.05-1-5.71-5.32-5.64q-21.7.35-43.41,0c-4.18-.06-5.6,1.27-5.54,5.5.2,14.26.07,28.53.07,42.8m-624.1-48.18c0,24.57-.46,48.11.18,71.6.38,13.82,8.32,23.14,20.85,26.11,5.16,1.22,10.72,1.05,16.1,1.09,16.15.11,25.17-7,28.63-22.62a36,36,0,0,0,.55-7.2c.37-21.68.74-43.35.86-65.05,0-1.3-2.07-3.66-3.31-3.74-5.74-.41-11.53-.18-17.72-.18-.13,2.85-.3,5-.3,7.16,0,18.3.13,36.62-.12,54.92a59.61,59.61,0,0,1-2.17,14.18c-1.35,5.16-5.44,7.26-10.61,6.94-5-.31-9-2.27-10.09-7.72a56.52,56.52,0,0,1-1.22-10.09c-.12-19.92,0-39.84-.1-59.75,0-2.43.86-5.63-3.36-5.64-5.78,0-11.57,0-18.17,0m446.52,0c-5.45,0-9.88.35-14.24-.09-5.94-.6-8.09,1.79-7.35,7.51a42.58,42.58,0,0,1,0,5.42c0,18.71,0,37.41-.09,56.11-.07,9.54-4.15,14.37-11.7,14.34-7,0-11.24-4.57-11.3-12.73-.13-18.3-.08-36.61-.09-54.9,0-15.82,0-15.59-16-15.79-5.38-.06-7,1.68-6.83,6.91.6,21.88.72,43.76,1.29,65.63.31,12.44,7.49,22.51,19.57,25a68,68,0,0,0,25.58.46c13.66-2.54,20.91-13.55,21.05-29,.13-14.28,0-28.56,0-42.84,0-8.4,0-16.79,0-26.08m-295.78,97.66c0-10-.06-18.93,0-27.87s-1.7-17.07-10.6-20.13c2.64-3.42,6.76-6.42,7.31-10a106.64,106.64,0,0,0,.84-25.43c-.67-7.32-6.39-12.16-13.4-12.77-14.89-1.29-29.87-1.43-45-2v97.86h20.73c.12-2.5.3-4.65.31-6.8,0-9,.17-18.1-.06-27.13-.1-4.2,1.35-5.65,5.57-5.61,8.71.1,12.33,3.48,12.66,13.07.24,6.62-.12,13.27.18,19.89.13,3-.19,6.89,4.64,6.93,6,0,12,0,16.85,0m441.79-48.35c11.35-7.71,11.8-18.71,10.39-29.9-1.62-12.94-6.33-18.15-23-19.27-10.21-.69-20.52.17-30.76-.27-5.65-.24-7.21,1.73-7.16,7.19.23,24.74.1,49.48.1,74.22,0,16.67,0,16.45,16.42,16.53,5.31,0,6.46-2.06,6.34-6.78q-.35-14.16.08-28.34c0-1.64,1.7-4.29,3-4.63,8.31-2.06,13.61,2.41,13.91,11,.28,8,.65,16,1.31,24,.13,1.57,1.69,4.25,2.73,4.31,6.51.41,13,.22,19.23.22-.59-11-1.49-20.91-1.56-30.87,0-8.07-2.52-14.12-11-17.41m-327.94,19.58c-7-19.23-15.12-41.42-23.33-63.57-.7-1.89-2.21-4.88-3.47-4.94-8.71-.44-17.47-.22-26-.22v97h18.07v-72.94c-.23-.42.12.06.31.58,8,22.65,16,45.32,24.2,67.94.66,1.83,2.43,4.57,3.81,4.64,8.31.44,16.67.22,24.88.22v-96.87h-18.43ZM1439.61,1050h455.71c8.54,0,8.55,0,8.55,8.54,0,62.36-.09,124.74.12,187.11,0,5.82-1.63,7.46-7.45,7.45q-456.91-.19-913.82,0c-5.82,0-7.49-1.6-7.47-7.43.2-62.57.12-125.15.13-187.72,0-7.94,0-8,7.92-8Z" transform="translate(-975.25 -100)"/><path class="cls-1" d="M1092.49,1535.28v-7.06c0-11.2-1.71-12.77-12.79-10.62-1.46.29-3.48,2.22-3.68,3.6a39.56,39.56,0,0,0,0,10.76,4.75,4.75,0,0,0,3.25,3.17c4.1.41,8.27.15,13.22.15m22.93-8.86c0-9,0-9-8.2-9-8.59,0-8.59,0-8.59,9.24,0,8.69,0,8.69,8.2,8.7,8.59,0,8.59,0,8.59-8.91m474.18,19.89c-5.46,0-10.27.26-15-.08s-6.42,1.33-6.33,6.12c.24,12.66.08,25.32.08,38,0,15.87-.12,31.74.15,47.61,0,2,1.85,5.56,3.12,5.7,5.87.62,11.85.28,18,.28Zm-335.34,97.38v-7.83c0-22.29.09-44.59-.07-66.88,0-4.42,1.28-6.27,5.84-6a59.88,59.88,0,0,0,12.63-.14c1.62-.22,3.52-2.31,4.27-4s0-4,.23-5.94c.68-5.43-1.75-6.82-6.92-6.74-17.27.28-34.54.11-51.83.12-8.65,0-8.65,0-8.65,8.46,0,8.31,0,8.31,8.1,8.33a74,74,0,0,0,8.43-.06c5.15-.57,6.48,1.68,6.43,6.56-.21,22.31-.09,44.61-.09,66.9v7.19Zm297.88-60c-8.34,0-16,.17-23.56-.13-1.71-.07-4.75-1.75-4.8-2.8-.25-5.55-.85-11.56,1.08-16.47.7-1.79,8.06-1,12.39-1.29,1.2-.09,2.41,0,3.62,0,15.07,0,15.07,0,13.72-15.1,0-.34-.38-.66-.71-1.18H1502.3v96.79h53.33v-16.36c-9.23,0-18-.12-26.84.06-3.83.07-5.55-1.16-5.36-5.19a130.63,130.63,0,0,0,0-15.07c-.36-5,1.43-6.8,6.49-6.54,7.34.35,14.7.09,22.25.09Zm-267-37.4V1644h45.15c9.74,0,9.74,0,9.62-9.91,0-.41,0-.81,0-1.21.53-4.57-1.68-5.9-6-5.74-7.22.25-14.47-.19-21.69.15-4.9.24-6.39-1.68-6.09-6.31a102.62,102.62,0,0,0,0-14.46c-.36-5,1.79-6.24,6.35-6,7.36.29,14.72.08,22.25.08v-16.8c-8.25,0-16-.16-23.83,0-5.62.16-5.36-3.88-4.51-7,1.28-4.61-4.63-12.08,4.35-13.62,5.47-.94,11.23-.18,16.85-.18,11.75,0,12.18-.49,11.11-12.25,0-.2.07-.49,0-.59-1.36-1.31-2.73-3.68-4.13-3.7-16.25-.26-32.51-.16-49.36-.16M1603.75,1592c.77,10.92,1.07,19.35,2,27.69,1.55,13.48,9.4,22.24,22.38,25,3.86.82,8,.49,12,.5,17.14,0,27.88-11,28.33-28.27.15-6-1.48-8.59-7.71-7.8-4.33.55-9.46-.66-12.82,1.32-2.15,1.25-1.64,6.91-2.47,10.56-.89,3.9-2.36,7.19-7.24,7.51s-8.14-1.57-9.69-6.22a17.47,17.47,0,0,1-1.2-4.63c-.48-12.62-1-25.24-1.11-37.85,0-3.93,1.28-7.87,2.21-11.76,1.15-4.82,4.75-7.16,9.33-6.79a7.83,7.83,0,0,1,7.53,8.65c-.56,7.37,3.1,8.49,9,7.72a27.18,27.18,0,0,1,3.61,0c10.14,0,10.14,0,9.21-10.14-.88-9.73-7.86-18.65-17.35-20.82a72,72,0,0,0-16.66-1.44c-12.94.12-23.09,7.49-26,20.08-2.18,9.48-2.5,19.37-3.38,26.7m195.81-16.82c5.68,0,11.12.32,16.46-.19,1.56-.15,4.19-2.74,4.12-4.1-.56-10.88-3.59-20.6-16.56-24.33-5.08-1.45-10.69-1.31-16.07-1.38-13.53-.16-23.65,6.51-27.23,17.58-4.06,12.53-.48,23.32,10.87,31.67,6.14,4.51,12.69,8.47,18.86,12.94,2.73,2,6,4.19,7.15,7.05,1.18,3.13,1.22,7.72-.31,10.54-1.22,2.25-5.52,3.75-8.54,3.9a7.36,7.36,0,0,1-8-6.67c-.45-2.91-1-5.81-1.58-9h-20.16c-3.12,17,3.66,29,18.16,31.6,5.66,1,11.62.47,17.45.41,11.46-.09,21.94-6.64,24.8-16.6,3.5-12.12,2.73-24.29-7.6-31.67-7.67-5.49-15.87-10.22-23.49-15.74a21.44,21.44,0,0,1-6.66-8.18c-2.27-5,.69-9.91,6.18-11.64,4.25-1.34,8.44,1.11,10.1,6.06.76,2.27,1.23,4.64,2,7.76m-596.56-.34c1.66-15.21-5.51-26.48-18.91-29.14a60.89,60.89,0,0,0-18-.42c-10.52,1.11-18.73,6.39-22.32,16.68-3.53,10.06-3.06,20.14,5.4,27.76,6.22,5.59,13.47,10,20.19,15.1,3.5,2.64,7.77,4.92,10,8.44a13.59,13.59,0,0,1,1,10.91c-1,2.43-5.48,4.51-8.55,4.76-4.12.31-7.65-2.17-8.48-7-.5-2.88-1-5.77-1.55-8.74h-20.3c-2.57,17.58,4.06,29.09,18.49,31.58,5.48.94,11.22.41,16.84.38,11.85-.05,22.4-6.53,25.29-16.73,3.49-12.4,2.63-24.2-7.73-31.62-7.66-5.49-15.85-10.23-23.49-15.71a20.8,20.8,0,0,1-6.38-7.67c-2.46-5.12.08-9.91,5.52-11.9,4.58-1.66,8.83.64,10.58,5.9.82,2.42,1.34,4.92,2,7.37Zm-73.26,20.28c-1.17-10.12-1.59-20.37-3.71-30.26s-9.12-16.38-19.29-18.43a74.1,74.1,0,0,0-14.27-1.25c-15.66,0-27.56,9.65-28.56,25.1a392.23,392.23,0,0,0,0,49.09c.83,13.87,9.45,22.7,22.54,25.36,4.07.83,8.4.47,12.6.47,13.55,0,23.89-7.07,27-20.24,2.28-9.62,2.52-19.74,3.69-29.84m614.27,48.5V1546.7h-20.3c-.38.75-.69,1.09-.69,1.44-.1,7.64-.14,15.28-.26,22.91-.19,14.73,2.09,12.5-12.84,12.66-7.77.08-7.77,0-7.77-8.08,0-9.58,0-19.14,0-29.32-6.09,0-11.29.18-16.46-.06-3.93-.2-5.28,1.25-5.22,5.18.18,11.66.06,23.34.06,35,0,17.29-.08,34.6.12,51.89,0,1.88,1.62,5.25,2.7,5.34,6.09.52,12.25.26,18.19.26a23.73,23.73,0,0,0,.53-2.77q.06-13,.07-25.94c0-13.52,0-13.24,13.25-13.6,5.77-.16,7.74,1.49,7.52,7.41-.45,11.39-.14,22.8-.14,34.58Zm-316.43-96.22V1644c5.59,0,10.62-.23,15.61.07,4.26.25,5.6-1.36,5.5-5.54-.24-9.63-.2-19.29,0-28.93,0-1.79,1.18-4.65,2.5-5.14,7.36-2.7,14.12,2.38,14.44,10.3s.57,16,1.32,24c.18,1.84,2.13,4.87,3.48,5,6.13.55,12.33.25,18.88.25,0-2,.05-3.39,0-4.73-.32-6.7-.47-13.43-1.06-20.1-.81-9.26.12-19.49-10.83-23,2.62-3.48,6.61-6.59,7.44-10.39a76.39,76.39,0,0,0,1.51-21.86c-.72-9.49-6.62-15.81-16.28-16.26-14-.65-28-.17-42.55-.17m-55,96.59V1612.5c0-8.41,2.29-10.17,10.49-8.07,5.9,1.51,7.59,5.78,7.76,11.33.26,8.2.64,16.39,1.29,24.57.1,1.26,1.85,3.37,2.91,3.43,6.36.33,12.75.16,19.66.16-.83-5.66-1.85-10.53-2.18-15.45-.37-5.2-.12-10.45-.08-15.67.06-8.22-2.91-14.45-11.32-17.11,8.19-5.9,10.2-7.86,10.85-21.31.69-14.22-1.37-25.39-18.94-27.38-12.9-1.46-26.07-.6-39.11-.44-1,0-2.8,2.65-2.8,4.07q-.27,44.61,0,89.24c0,1.37,2.25,3.79,3.59,3.91,5.57.44,11.19.18,17.85.18m67.1-147.26h455.68c8.51,0,8.52,0,8.52,8.57V1693c0,7.85,0,7.86-8,7.86H983.28c-7.9,0-7.91,0-7.91-8v-188.3c0-7.85,0-7.86,8-7.86h456.27" transform="translate(-975.25 -100)"/><path class="cls-1" d="M1460.69,925.06V890.73c0-14.56,0-14.29-14.49-14.59-5.63-.11-7.21,1.72-7.16,7.18.23,24.89.1,49.79.1,74.68,0,16.44,0,16.29,16.21,16.06,4.32-.06,5.46-1.57,5.41-5.64-.19-14.46-.08-28.91-.07-43.36m184.71.34V890.46c0-14.25,0-14-14.15-14.31-5.78-.13-7.59,1.6-7.52,7.43.28,24.9.13,49.79.13,74.69,0,16,0,15.87,15.86,15.8,4.55,0,5.83-1.5,5.76-5.91-.22-14.25-.08-28.51-.08-42.76m-129.51-20.27c5.8,0,11.21-.14,16.6,0,3.68.13,4.51-1.74,4.23-4.84-1.11-12.78-5.35-21.44-19.44-24.72-5.08-1.19-10.65-.84-15.93-.48-13,.86-21.64,7.41-24.86,18.26-3.61,12.11-.07,22.83,10.6,30.71,6.12,4.52,12.73,8.39,18.91,12.86,2.88,2.08,6.3,4.43,7.55,7.45s1.34,7.86-.31,10.52c-1.39,2.26-5.9,3.3-9.14,3.55-4.39.33-6.52-2.78-7.55-7-2.16-8.82-2.32-8.78-11.85-8.77a42.22,42.22,0,0,0-7.21.15c-1.22.21-3.08,1.52-3.19,2.49-1.38,11.86,1.89,25.39,16.71,28.5,7.14,1.5,14.76,1.55,22.09,1.14,11.11-.63,20.9-8,22.75-18.34,2.51-14,2.31-22.06-8.68-30.24-6.58-4.9-13.87-8.86-20.51-13.69a32.64,32.64,0,0,1-8.63-8.91c-2.91-4.77-.41-10,4.84-12.13,4.87-1.95,9.31.32,11.08,5.81.72,2.27,1.18,4.63,1.94,7.66m93.74,0c2.36-15-4.88-26.67-18.35-29.5-5.34-1.12-11.06-.81-16.57-.51-11.67.62-21.45,7.83-24.36,17.45-3.77,12.47-.46,23.28,9.9,31,6.29,4.66,13,8.74,19.34,13.35,2.88,2.09,6.33,4.39,7.61,7.4s1.52,7.91-.08,10.62c-1.35,2.27-5.92,3.36-9.18,3.63-4.38.35-6.83-2.7-7.57-7-.46-2.72-1.1-5.4-1.79-8.75-5.95,0-11.94-.11-17.91.1a3.93,3.93,0,0,0-2.76,2.36c-3.24,11,4.31,25.56,15.58,28.39,6.29,1.58,13.09,1.41,19.67,1.48,12.92.14,22.6-6.41,26.16-17.19,4.45-13.48,1.47-24.44-9.49-32.53-6.13-4.5-13.08-7.92-19.13-12.5a34.38,34.38,0,0,1-9.34-10.48c-2.36-4.32.58-9,5.5-10.86,4.35-1.63,8.85.37,10.59,5a79.09,79.09,0,0,1,2.16,8.57h20Zm-478.1,68.77c-1.51-3.28-2.32-5.3-3.33-7.2-6.91-12.92-13.67-25.91-20.88-38.66-2.66-4.72-2.91-8.4.31-13.09,7-10.28,13.39-21,20-31.53,1.22-1.94,2.18-4,3.84-7.17-6.42,0-11.6.26-16.74-.08-4.13-.26-6.59,1.19-8.66,4.79-6.45,11.24-13.24,22.28-19.9,33.41l-1.26-.27V876.29c-6.21,0-11.61.11-17,0-3.11-.08-4.27,1.17-4.26,4.26.06,29.75,0,59.5.16,89.25,0,1.38,1.83,3.87,2.93,4,5.93.4,11.9.19,18.52.19V931.59c7.1,12.71,13.25,25.53,19.63,38.24.85,1.68,2.86,3.81,4.44,3.91,7,.43,14,.18,22.24.18M1659,924.06q.59.08,1.17.12c0,6.83-.25,13.67.11,20.47a44.39,44.39,0,0,0,2.25,10.53c3,9.93,9.08,17,19.66,18.91a80.34,80.34,0,0,0,13.7,1c14.5.08,25.53-7.22,27.64-21.5,2.3-15.52,2.62-31.5,2-47.2-.28-7.32-3.45-15.38-7.62-21.52-6.82-10.07-18.32-10.17-29.39-9.84-13.06.38-23,7.23-26,20-2.2,9.44-2.45,19.35-3.56,29m-524.75-2c.73,10,1.08,17.78,1.94,25.53,1.68,15.19,9.41,24.25,23.19,27.07,3.68.76,7.59.46,11.41.47,16,0,26-8.09,29.13-23.87,3.26-16.28,3.14-32.72.87-49-2.25-16-9.43-23.77-23.58-26.64-4.27-.87-8.81-.59-13.21-.5-13.73.28-23.87,8.2-26.57,21.7-1.8,9-2.33,18.2-3.18,25.27m625.23-19.64c7.43,20.33,15.71,43.12,24.19,65.84.8,2.14,2.86,5.26,4.5,5.37,8.14.56,16.32.26,24.58.26V876.29c-5.45,0-10.44.13-15.43,0-4.1-.13-4.42,2.19-4.33,5.43.67,22.19,1.23,44.39,1.77,64.93-7.58-20.72-15.66-42.94-23.91-65.09-.74-2-2.63-4.87-4.12-4.95-8.36-.49-16.74-.23-25.45-.23v97.22h18.2Zm-383.67,42.32c-4.9-21.18-10-42.78-14.83-64.41-.72-3.2-2.26-4.19-5.38-4.13-7.65.17-15.29.28-22.93,0-4.6-.17-5.94,1.68-5.86,6,.19,11.06.06,22.13.06,33.19,0,17.51-.11,35,.15,52.51,0,2,1.83,5.59,3.1,5.73,5.88.61,11.87.26,17.7.26V897.41a9.06,9.06,0,0,1,.66,2c4.79,20.25,9.5,40.52,14.33,60.75,3.35,14,3.41,13.8,18,14,4.51,0,6.52-1.45,7.31-5.7,1.11-6.1,2.48-12.14,3.83-18.2,3.93-17.72,7.92-35.43,12.15-54.26,0,5.16,0,9.13,0,13.1-.31,20.28-.71,40.56-.87,60.85,0,1.32,1.56,3.74,2.51,3.8,5.71.37,11.46.18,17,.18V876.3c-10.18,0-19.83-.17-29.45.18-1.4,0-3.61,2.32-4,3.88-4.7,21.66-9.15,43.38-13.51,64.4m-111.93,1.89a7.65,7.65,0,0,0,0-2c-4.84-21.67-9.62-43.34-14.77-64.93-.35-1.49-3.38-3.21-5.26-3.31-7.22-.39-14.49.12-21.71-.26-5-.26-6.54,1.4-6.48,6.43.23,25.15.1,50.29.1,75.44,0,16.65,0,16.54,16.71,16,3.58-.11,5.16-1.12,4.9-4.87-.52-7.18-1.08-14.38-1.15-21.59-.16-16.43,0-32.86,0-50.7,5.07,21.55,9.88,41.75,14.58,62,3.67,15.8,3.61,15.73,19.63,15.17,3.37-.11,5-1.15,5.71-4.63,1.77-8.81,3.94-17.56,5.9-26.35,3.57-16,7.11-32,10.44-47.08v77.57h19.35V876.31c-10.43,0-20.44-.16-30.44.2-1.37,0-3.47,2.57-3.84,4.26-4.7,22.08-9.17,44.22-13.6,65.88m175.17,83H983.94c-8.56,0-8.57,0-8.57-8.5,0-62.38.07-124.74-.11-187.12,0-5.76,1.52-7.49,7.4-7.49q456.93.2,913.83,0c5.78,0,7.52,1.54,7.5,7.41-.21,62.57-.12,125.15-.12,187.72,0,8,0,8-7.91,8H1439.05" transform="translate(-975.25 -100)"/><path class="cls-1" d="M1398,453.63h313.89c-6.75,4.45-12,8.06-17.4,11.44-68.86,43.16-143.46,72.55-222.32,91.05-27.75,6.51-56.12,10.77-84.41,14.52a387.29,387.29,0,0,1-59.9,3.52c-31.47-.74-62.84-3.8-91.95-17.59-16.65-7.88-30.66-18.58-37-36.75-5.41-15.48-2.75-30.57,3.64-45.07,10.87-24.63,28.59-44.12,48.55-61.53,58.16-50.72,126.36-83.44,198.28-109.21a720.51,720.51,0,0,1,128.86-33.45c19.32-3.11,38.89-4.81,58.41-6.37a334.34,334.34,0,0,1,41.5-1.09c15.14.67,30.22,2.88,45.3,4.71a7.73,7.73,0,0,1,5,3.47,323.87,323.87,0,0,1,37.2,108.6c.17,1.1-1.61,3-2.93,3.68s-3.15.16-4.76.16c-53.12,0-106.23-.07-159.35.12a47.92,47.92,0,0,0-15.22,2.67q-90.1,31.11-180.1,62.59c-2,.69-3.79,1.73-5.68,2.6l.42,1.93" transform="translate(-975.25 -100)"/><path class="cls-1" d="M1164.51,614.33c30.13,14.36,61,21.51,92.81,25.39a484.81,484.81,0,0,0,80.49,3.21,762.35,762.35,0,0,0,144.13-20.45c74.84-17.91,146.63-44.11,214.37-80.75,20.47-11.08,40-23.77,60-35.74,1.5-.91,2.92-1.95,4.76-3.19-19.09,99.12-101.25,211.69-237.4,247.68-141.89,37.51-284-23-359.18-136.15" transform="translate(-975.25 -100)"/><path class="cls-1" d="M1111,470.7c-20.73-189.61,109.46-315.91,217.12-350.48v21.06c0,7.44,0,14.89,0,22.33,0,2.88.42,5.13,4.18,5.12,25.13-.06,50.26,0,76.21,0,.11-2.66.3-5,.3-7.29,0-17.91.16-35.81-.07-53.72-.06-4.9,1.38-6.73,6.49-6.7,8.41.06,16.82-1,25.23-1,8.81,0,17.61.72,26.42,1.15,4.39.21,6.2,2.25,6.13,6.91-.24,17.51-.1,35-.1,52.52v7.72c2.44.16,4.36.4,6.29.4,22.54,0,45.07-.13,67.6.14,5.26.06,7.09-1.46,6.93-6.82-.34-11.46-.1-22.93-.1-34.4v-6.88a330.52,330.52,0,0,1,115.51,72.83c-8.2.65-15.53,1-22.8,1.86-28.57,3.41-57.27,6.06-85.64,10.71-51.94,8.5-102.26,23.4-151.5,41.87-72.05,27-140,61.73-200.75,109.39-33.69,26.44-64.16,56.09-86.46,93.19-3.81,6.35-7.12,13-11,20.11" transform="translate(-975.25 -100)"/><path class="cls-1" d="M1699.67,1128.25a28.49,28.49,0,0,1,0-3.58c.47-3.46-2.08-8.48,5-8.38,8,.12,11.69,2.56,12,9.1.63,11.37-2.34,15.18-11.42,15.38-4,.09-6.1-1-5.69-5.33.22-2.38,0-4.79,0-7.19" transform="translate(-975.25 -100)"/><path class="cls-1" d="M1245.81,1128.42a11,11,0,0,1,0-3c.93-3.13-2.69-8.16,3.63-9,8.13-1.13,12.8,1,13.57,7.69.52,4.5-.28,10.36-2.94,13.63-2.07,2.54-7.9,2.39-12.08,2.47-.69,0-1.59-4.9-2.17-7.58a20.79,20.79,0,0,1,0-4.18" transform="translate(-975.25 -100)"/><path class="cls-1" d="M1372.57,1575.16c0-1-.07-2,0-3,.32-4.16-2-9.63,6.07-9.2,8.62.45,11.92,2.79,12.13,10.36.31,10.74-3.42,14.51-13.53,14.14-3.24-.12-4.88-1.1-4.7-4.53.14-2.59,0-5.18,0-7.78" transform="translate(-975.25 -100)"/><path class="cls-1" d="M1448.62,1574.79c0-1.2-.08-2.41,0-3.59.28-3.64-1.69-8.38,5.25-8.21,7.9.2,11.41,2.36,11.75,8.61a53.83,53.83,0,0,1,0,6.6c-.49,7.07-8.75,12-15,8.85-1-.53-1.76-2.5-1.91-3.87a80.89,80.89,0,0,1-.09-8.39" transform="translate(-975.25 -100)"/><path class="cls-1" d="M1107.63,1595.08c-.6,7.71-.9,15.53-1.89,23.27-.94,7.39-4.15,10.16-10.31,10.1-5.64-.06-9.65-3.1-9.89-9.88-.56-15.56-.54-31.18,0-46.75.21-6.38,4.73-9.9,10-9.93,5.86,0,9.31,3.07,10.23,10.3,1,7.54,1.25,15.17,1.85,22.89" transform="translate(-975.25 -100)"/><path class="cls-1" d="M1180.17,924.9c-.65,8.58-.94,16.6-2,24.52-.66,5.06-3.15,8.93-9.36,9.09-6.4.15-9.62-3.37-10-8.88-.9-12.52-1.25-25.09-1.47-37.64a52.79,52.79,0,0,1,1.63-12.46c1.15-5,4.3-7.84,9.89-7.76s8.44,3.33,9.1,8c1.22,8.49,1.54,17.12,2.2,25.18" transform="translate(-975.25 -100)"/><path class="cls-1" d="M1681.06,925.32c.6-7.89.9-15.71,1.88-23.44.87-6.88,4.3-10,9.86-10s9.86,2.87,10.14,9.63c.67,15.75.69,31.56,0,47.3-.3,6.94-4.37,9.71-10.07,9.66-6,0-8.92-2.51-9.9-9.8-1-7.72-1.31-15.55-1.91-23.3" transform="translate(-975.25 -100)"/></svg>