<svg id="Ebene_1" data-name="Ebene 1" xmlns="http://www.w3.org/2000/svg" viewBox="0 0 2730.76 1158.01"><defs><style>.cls-1{fill:#e4200e;}</style></defs><path class="cls-1" d="M2708.39,1148.47a31.29,31.29,0,0,0,9.3-22.61q0-14.05-9.3-23.36a32.4,32.4,0,0,0-45.47,0q-9.54,9.3-9.54,23.36a32.15,32.15,0,0,0,55,22.61m-211.26.75q11.05-.77,21.35-1.26c6.87-.32,14.32-.5,22.36-.5,7.37,0,14.32.18,20.85.5s13.32.75,20.35,1.26,14.74.76,23.11.76c4,0,7.11-.51,9.3-1.51s3.26-2.51,3.26-4.52a6.52,6.52,0,0,0-3.51-6q-3.53-2-11.06-3.52-18.59-4-28.13-11.56t-9.55-24.12V871.59q0-17.07,7.79-24.12t27.38-11.55a36.33,36.33,0,0,0,10.8-3.77,7,7,0,0,0,3.77-6.28,4.75,4.75,0,0,0-3.52-4.77,29.33,29.33,0,0,0-9.54-1.25q-12.57,0-22.36.5t-19.09.75q-9.3.25-19.85.25-11.05,0-20.6-.5t-19.84-1q-10.3-.5-23.37-.51a23.23,23.23,0,0,0-9,1.51,5.17,5.17,0,0,0-3.52,5q0,7,14.57,10,19.09,4,26.13,11.3t7,24.37v227.09q0,17.1-9,24.63t-28.13,11c-9.72,2-14.57,5.2-14.57,9.55,0,2.34,1.25,3.94,3.76,4.76a29.85,29.85,0,0,0,9.3,1.27q12.55,0,23.61-.76m-316.51-27.38a67.32,67.32,0,0,1-22.36-13.57q-10.82-9.54-17.84-26.37t-7-42.46q0-30.63,9-48.73t22.11-25.88q13-7.78,24.62-7.79a55.87,55.87,0,0,1,48.48,26.38q7.27,11.82,7.28,23.37v98A63.8,63.8,0,0,1,2224.1,1120q-12.32,5.8-23.36,5.79-8.55,0-20.09-4m71.84,35.16a58.44,58.44,0,0,0,5.53-2.5,227.87,227.87,0,0,1,33.41-11.56,265.83,265.83,0,0,1,31.4-6c1.67,0,3.34-1.08,5-3.27a11,11,0,0,0,2.52-6.78c0-3.68-2.69-5.35-8-5q-8.55.51-13.57,1t-7.53.51q-6,0-8.55-7.55t-2.51-24.61l1-236.64q0-17.58,1-29.65c.67-8,1.17-14.22,1.51-18.59s.5-7,.5-8q0-4-4-4a27.37,27.37,0,0,0-3,.25,17,17,0,0,0-5.53,2.26q-9,3.53-24.11,9a325.43,325.43,0,0,1-36.18,10.55c-3,1-4.52,3.19-4.52,6.53,0,4,1.67,6.37,5,7q11.57,2,17.59,9.54t6,27.14v66.82q0,10.56-3.52,10.55a44.16,44.16,0,0,1-6.53-1.51,99.57,99.57,0,0,0-15.32-3.76,107.41,107.41,0,0,0-18.85-1.76q-35.16,0-61.29,15.83a108.56,108.56,0,0,0-40.19,41.94,117.88,117.88,0,0,0-14.07,56.78,110.66,110.66,0,0,0,11.81,50.24,101.69,101.69,0,0,0,32.9,38.44q21.11,14.81,49.74,14.81,23.61,0,40.45-11.3t25.37-24.37v3a129,129,0,0,1-1,14.57q-1,8.55-1.5,14.57c0,.66.83,1.83,2.51,3.51s2.84,2.52,3.52,2.52a9.31,9.31,0,0,0,3-.51M1837,1148.61q7-.73,13.56-1.25t15.08-.5c6,0,11,.17,14.82.5s8,.76,12.56,1.25a155,155,0,0,0,16.83.76,13.83,13.83,0,0,0,7-1.51,4.93,4.93,0,0,0,2.52-4.52q0-5.52-11.06-9a77.28,77.28,0,0,1-13.56-5.28q-6.54-3.27-6.53-13.32V995.23a17.42,17.42,0,0,1,1-5.53,12.62,12.62,0,0,1,3-5,87.55,87.55,0,0,1,21.86-12.8q11.81-4.77,27.38-4.78,18.09.51,29.39,12.06t11.31,32.66v104q0,10.07-6.53,13.07a136.85,136.85,0,0,1-14.07,5.53A49.7,49.7,0,0,0,1954,1138a6.52,6.52,0,0,0-3.51,6,4.34,4.34,0,0,0,3.51,4.52,22.63,22.63,0,0,0,6,1,155,155,0,0,0,16.83-.76q6.78-.73,13.32-1.25t15.07-.5q9,0,15.32.5t13.07,1.25a155,155,0,0,0,16.83.76,21.58,21.58,0,0,0,6.28-1A4.3,4.3,0,0,0,2060,1144a6.52,6.52,0,0,0-3.51-6,52.71,52.71,0,0,0-7.54-3.52,152.92,152.92,0,0,1-14.32-5.53q-6.76-3-6.78-13.07V1007.28q0-31.14-16.58-50.74T1969.56,937q-23.62,0-42.46,8.54t-36.34,25.1a4.77,4.77,0,0,1-.76-2.51,31.47,31.47,0,0,1-.25-4A139.45,139.45,0,0,1,1891,947c.83-6.69,1.25-11.22,1.25-13.56a6.29,6.29,0,0,0-.75-3.26,3,3,0,0,0-2.76-1.27,6.77,6.77,0,0,0-3.27,1c-1.18.68-2.26,1.35-3.26,2a187.22,187.22,0,0,1-26.38,14.58,193.32,193.32,0,0,1-31.9,11q-4.53.51-4.53,7a7.08,7.08,0,0,0,1.51,4.77,6.7,6.7,0,0,0,3.52,2.27q12.06,3,14.82,11.8t2.76,21.36v110.53q0,10-6.53,13.56a64.72,64.72,0,0,1-14.07,5.53,44.8,44.8,0,0,0-8.29,3.27,6,6,0,0,0-3.26,5.77,4.83,4.83,0,0,0,3,4.52,15.52,15.52,0,0,0,7,1.51,162.42,162.42,0,0,0,17.08-.76m-174.57-27q-7.29-6.28-7.29-19.85,0-11,9.05-20.35t31.62-17.8a40.09,40.09,0,0,1,5.53-2,13.85,13.85,0,0,1,3-.51c2,0,3.34.75,4,2.27s.83,3.94.5,7.28l-1,28.64a50.63,50.63,0,0,1-1.76,11.8,15.73,15.73,0,0,1-3.77,6.28,32.49,32.49,0,0,1-10.3,7.79,33.1,33.1,0,0,1-14.32,2.77q-8,0-15.32-6.28m19.34,26.88q14.56-6.52,31.15-20.6h1.51q15.08,27.13,40.19,27.12a43.06,43.06,0,0,0,18.84-4.76,68.42,68.42,0,0,0,18.34-13.32c4.69-4.35,7-8.55,7-12.56a5.06,5.06,0,0,0-1.75-4,6.39,6.39,0,0,0-4.27-1.5c-1,0-2.19.68-3.52,2q-6.54,6-18.09,6-7.53,0-12.56-7T1754,1101.8l2.51-113.55q1-22.61-12.31-36.92T1709.77,937q-10.56,0-24.37,4.51a148.47,148.47,0,0,0-28.14,12.82,167.06,167.06,0,0,0-26.37,18.84q-10.56,9-15.83,17.83t-5.27,16.84a6.05,6.05,0,0,0,5.55,6.53,5.35,5.35,0,0,0,1,0q6,0,14.82-3.52a95.08,95.08,0,0,0,15.57-7.78q6.8-4.27,6.79-7.29c0-1.33-.09-3.09-.26-5.27s-.25-4.1-.25-5.79a35.31,35.31,0,0,1,.76-7.53,9.22,9.22,0,0,1,3.26-5.52,45.13,45.13,0,0,1,11.81-6.28,40.11,40.11,0,0,1,14.32-2.77q13.56,0,20.6,9t6.53,22.61l-1,30.64c-.33,6.71-1.17,11.14-2.51,13.32s-5.36,4.6-12.06,7.28l-48.73,20.6q-19.59,8-28.89,18.09t-9.29,26.63q0,10,6.53,20.34a57.48,57.48,0,0,0,16.58,17.09q10,6.78,20.6,6.77a73.19,73.19,0,0,0,30.14-6.52m-324,.24q7-.73,13.56-1.25t15.08-.5c6,0,11,.17,14.82.5s8,.76,12.56,1.25a155,155,0,0,0,16.83.76,13.81,13.81,0,0,0,7-1.51,4.93,4.93,0,0,0,2.52-4.52q0-5.52-11.06-9a77.28,77.28,0,0,1-13.56-5.28q-6.54-3.27-6.53-13.32V995.23a17.7,17.7,0,0,1,1-5.53,12.62,12.62,0,0,1,3-5,87.55,87.55,0,0,1,21.86-12.8q11.8-4.77,27.38-4.78,18.09.51,29.39,12.06t11.31,32.66v104q0,10.07-6.53,13.07a136,136,0,0,1-14.07,5.53,49.7,49.7,0,0,0-7.54,3.52,6.52,6.52,0,0,0-3.51,6,4.34,4.34,0,0,0,3.51,4.52,22.63,22.63,0,0,0,6,1,155,155,0,0,0,16.83-.76q6.78-.73,13.32-1.25t15.07-.5q9,0,15.32.5t13.07,1.25a155,155,0,0,0,16.83.76,21.58,21.58,0,0,0,6.28-1,4.3,4.3,0,0,0,3.26-4.52,6.52,6.52,0,0,0-3.51-6,52.71,52.71,0,0,0-7.54-3.52q-7.53-2.51-14.32-5.53t-6.78-13.07V1007.28q0-31.14-16.58-50.74T1490.21,937q-23.62,0-42.46,8.54t-36.32,25.1a4.77,4.77,0,0,1-.76-2.51,31.47,31.47,0,0,1-.25-4,139.45,139.45,0,0,1,1.26-17.08c.83-6.69,1.25-11.22,1.25-13.56a6.29,6.29,0,0,0-.75-3.26,3,3,0,0,0-2.76-1.27,6.77,6.77,0,0,0-3.27,1c-1.17.68-2.26,1.35-3.26,2a187.22,187.22,0,0,1-26.38,14.58,193.32,193.32,0,0,1-31.9,11q-4.53.51-4.53,7a7.08,7.08,0,0,0,1.51,4.77,6.7,6.7,0,0,0,3.52,2.27q12.06,3,14.82,11.8t2.76,21.36v110.53q0,10-6.53,13.56a64.72,64.72,0,0,1-14.07,5.53,44.8,44.8,0,0,0-8.29,3.27,6,6,0,0,0-3.26,5.77,4.83,4.83,0,0,0,3,4.52,15.52,15.52,0,0,0,7,1.51,162.42,162.42,0,0,0,17.08-.76m-82.39-264.77a28.63,28.63,0,0,0,9-21.36,29.22,29.22,0,0,0-9-21.84,30.54,30.54,0,0,0-22.11-8.8,29.09,29.09,0,0,0-21.35,8.8,29.65,29.65,0,0,0-8.79,21.84,30,30,0,0,0,29.84,30.16h.3a30.48,30.48,0,0,0,22.11-8.8m-50.47,264.86q6.78-.74,13.81-1.25t15.58-.5q9,0,15.82.5t14.32,1.25a171,171,0,0,0,17.09.76q9,0,9-6a6,6,0,0,0-3.27-5.77,31.59,31.59,0,0,0-7.28-2.77q-11.57-3-17.08-7c-3.69-2.69-5.53-6.7-5.53-12.07v-114.6q0-12.06,1.26-26.13T1281,949q1.24-12.06,1.25-17.59c0-2.67-1.34-4-4-4-1.68,0-4.35,1.18-8,3.51q-8.06,5-23.87,13.32t-37.91,13.34c-3,.34-4.52,2.51-4.52,6.52a9,9,0,0,0,1.25,5.28,5.75,5.75,0,0,0,3.77,2.27q12.55,2,17.58,11.29t5,24.37v108.52q0,9.06-5.53,12.56t-17.08,6.54a31.84,31.84,0,0,0-7.29,2.77,6,6,0,0,0-3.26,5.77,4.85,4.85,0,0,0,2.76,4.52,14.15,14.15,0,0,0,6.79,1.51,155,155,0,0,0,16.83-.76m-190.16-26.87a67.32,67.32,0,0,1-22.36-13.57q-10.82-9.54-17.84-26.37t-7-42.46q0-30.63,9-48.73t22.11-25.88q13.07-7.79,24.62-7.79a55.84,55.84,0,0,1,48.48,26.38q7.28,11.82,7.29,23.37v98a64.19,64.19,0,0,1-20.85,15.32q-12.32,5.8-23.37,5.79-8.54,0-20.09-4m71.84,35.16a56,56,0,0,0,5.53-2.5,227.87,227.87,0,0,1,33.41-11.56,265.83,265.83,0,0,1,31.4-6c1.67,0,3.35-1.08,5-3.27a11,11,0,0,0,2.51-6.78c0-3.68-2.69-5.35-8-5q-8.55.51-13.57,1t-7.53.51q-6,0-8.54-7.55t-2.51-24.61l1-236.64q0-17.58,1-29.65c.66-8,1.16-14.22,1.5-18.59s.5-7,.5-8q0-4-4-4a27.37,27.37,0,0,0-3,.25,17.12,17.12,0,0,0-5.53,2.26q-9,3.53-24.11,9a325.43,325.43,0,0,1-36.18,10.55c-3,1-4.52,3.19-4.52,6.53,0,4,1.67,6.37,5,7q11.55,2,17.58,9.54t6,27.14v66.82q0,10.56-3.52,10.55a44.46,44.46,0,0,1-6.53-1.51,99.57,99.57,0,0,0-15.32-3.76,107.3,107.3,0,0,0-18.84-1.76q-35.18,0-61.3,15.83a108.56,108.56,0,0,0-40.19,41.94,118,118,0,0,0-14.07,56.78,110.66,110.66,0,0,0,11.81,50.24,101.56,101.56,0,0,0,32.91,38.44q21.09,14.81,49.74,14.81,23.61,0,40.44-11.3t25.37-24.37v3a126.74,126.74,0,0,1-1,14.57q-1,8.55-1.51,14.57c0,.66.83,1.83,2.51,3.51s2.84,2.52,3.52,2.52a9.31,9.31,0,0,0,3-.51m-322.05-8.29c4.68-.49,9.21-.91,13.56-1.25s9.38-.5,15.07-.5a207,207,0,0,1,23.87,1.26,232.79,232.79,0,0,0,25.87,1.25q9.54,0,9.55-6a5.77,5.77,0,0,0-3-5.28,37.52,37.52,0,0,0-8.55-3.26q-13.07-4-19.59-8.55a14.37,14.37,0,0,1-6.53-12.56v-94.44q0-26.13,10.55-35.17t23.11-9a21.89,21.89,0,0,1,8.29,1.76q4.26,1.77,8.29,3.77l8.54,3.77a18.88,18.88,0,0,0,7.54,1.76q6,0,11.3-5.28a41.73,41.73,0,0,0,8.54-12.56q3.27-7.28,3.27-12.81a16.5,16.5,0,0,0-7-13.83q-7-5.26-20.09-5.26-10.06,0-21.1,5.26A92,92,0,0,0,855,955.59a143.82,143.82,0,0,0-17.84,18.59c-.67,0-1-.68-1-2,0-5,.16-10.2.5-15.57s.58-10.21.75-14.57.25-7.2.25-8.54q0-4-3.51-4a11.36,11.36,0,0,0-3.52,1,31.45,31.45,0,0,0-5.53,3Q815.06,939,799,946.31a220.37,220.37,0,0,1-30.15,11.28q-5,1.5-5,7a7.77,7.77,0,0,0,5.52,7.53q11.57,2.53,15.08,11.31t3.51,21.36v110.53q0,7.5-4.27,12c-2.85,3-7.78,5.37-14.82,7a44.8,44.8,0,0,0-8.29,3.27,6,6,0,0,0-3.26,5.77,4.83,4.83,0,0,0,2.76,4.52,15.14,15.14,0,0,0,7.28,1.51,162.49,162.49,0,0,0,17.09-.76m-179.36-153q-.51-10,6.53-19.85a59.69,59.69,0,0,1,17.82-16.19,42,42,0,0,1,21.85-6.52q16.08,0,27.64,9.79t11.55,23.87a29,29,0,0,1-1,8.29,6.19,6.19,0,0,1-3.52,4.27,89,89,0,0,1-14.07,2c-5,.34-11.89.49-20.6.49H611.09q-6,0-6-6m76.12,154.5a87.83,87.83,0,0,0,43-33.41q7-11.05,7-19.1c0-3.68-1.51-5.53-4.52-5.53a4.38,4.38,0,0,0-2.77,1,17.84,17.84,0,0,0-2.76,3,81,81,0,0,1-22.9,16.35,63.53,63.53,0,0,1-27.38,5.78,64.72,64.72,0,0,1-36.68-11,83.4,83.4,0,0,1-36.68-69.84c0-7,1-11.88,3-14.57s5.35-4,10.05-4h104q15.57,0,15.57-16.58,0-19.08-9.29-33.91a63.58,63.58,0,0,0-25.63-23.12q-16.32-8.28-36.92-8.28a92.2,92.2,0,0,0-50.75,14.82,110,110,0,0,0-36.93,39.44,108.86,108.86,0,0,0-13.81,54.26q0,32.67,12.06,57.53t32.9,38.68q20.85,13.82,48,13.82a90.5,90.5,0,0,0,31.4-5.27m-336.62-1c7.2-.51,14.32-1,21.36-1.51s14.23-.75,21.6-.75q10,0,18.59.75c5.69.51,11.81,1,18.34,1.51s14.14.76,22.86.76a23.23,23.23,0,0,0,9-1.51c2.34-1,3.52-2.51,3.52-4.52a6.53,6.53,0,0,0-3.52-6q-3.53-2-11.05-3.52-19.59-3.51-26.88-12.06t-7.79-24.62q-1-24.6-1.25-48.73t-.26-46.73q0-6.52,3.27-9.29a14.76,14.76,0,0,1,8.29-3.27c5.35-.33,10.63-.51,15.83-.51h15.82c4,0,8.12.1,12.31.26s8.29.25,12.31.25a24.58,24.58,0,0,1,13.82,4.53c4.52,3,8,8.71,10.3,17.08a26.23,26.23,0,0,0,4,7.78q3,4.28,7.53,4.27a3.91,3.91,0,0,0,4-2.76,23.61,23.61,0,0,0,1-7.79q-1-11-1.51-18.34t-.5-15.82a132.86,132.86,0,0,1,.75-13.82q.75-7.28,1.26-16.83a7.88,7.88,0,0,0-1.76-6.54,6.5,6.5,0,0,0-4.77-2.51c-1.35,0-3,1-5,3a30,30,0,0,0-4.52,5.53,39.74,39.74,0,0,1-10.74,16q-7.29,6.52-19.35,6.53-9.54,0-24.87.5t-29.89.5a6.06,6.06,0,0,1-5.78-3.26,16.21,16.21,0,0,1-1.76-7.79V864.59q.5-10.53,4.53-17.57t16.07-7h54.77a62.05,62.05,0,0,1,19.09,2.77,36.68,36.68,0,0,1,15.57,10.3,45.85,45.85,0,0,1,7.79,12.56,119.3,119.3,0,0,1,5.83,17,10.51,10.51,0,0,0,3.52,5,8,8,0,0,0,5,2c3.35,0,5-3.5,5-10.54q0-5-.25-15.58c-.17-7-.42-14.39-.75-22.1s-.84-14.07-1.51-19.1a5.64,5.64,0,0,0-4-4.76,19.47,19.47,0,0,0-6.53-1.26,135.81,135.81,0,0,0-23.36,2.5,175.74,175.74,0,0,1-31.4,2.52H406.11q-15.08,0-27.63-.5l-25.38-1q-12.81-.5-29.39-.51a21.78,21.78,0,0,0-9.29,1.76q-3.76,1.77-3.77,4.77,0,3.52,3.52,6c2.34,1.68,6.19,3,11.55,4q18.58,3.52,24.37,14.06t5.78,31.66v216.55q0,17.58-7,25.12t-26.12,11c-9.72,2-14.57,5.2-14.57,9.55a4.7,4.7,0,0,0,3.52,4.76,27.46,27.46,0,0,0,9,1.27q13.05,0,23.86-.76m-217.13-.9c2.21-.24,4.38-.43,6.51-.59s4.54-.24,7.22-.24q6.17,0,12.92.59t13.85.59a5.23,5.23,0,0,0,3.08-.83,2.59,2.59,0,0,0,1.18-2.24c0-2.06-1.66-3.4-5-4q-9.72-1.41-12.67-3.78c-2-1.58-3-4.1-3-7.59v-62.28a4,4,0,0,1,1.07-3c.71-.71,2.33-1.06,4.86-1.06h25.34c.79,0,1.5-.63,2.13-1.9a12.54,12.54,0,0,0,1.07-3.43,22.29,22.29,0,0,0,.35-3.91,3,3,0,0,0-.94-2.13,3.27,3.27,0,0,0-2.37-.94H154.66a4.62,4.62,0,0,1-2.13-.48,2.14,2.14,0,0,1-1-2.13v-20.26q0-19.42,6.4-28.54t17-9.12q7.82,0,12.68,3.19a44.85,44.85,0,0,1,8.17,6.76q2.37,2.37,4.26,4.14a5.83,5.83,0,0,0,4,1.78,7.76,7.76,0,0,0,6.15-2.73c1.58-1.81,2.37-4.37,2.37-7.7q0-7.33-6.74-11.48t-21-4.14a51.17,51.17,0,0,0-17.64,3.43,51.83,51.83,0,0,0-17.65,11.41q-8.43,7.93-13.86,21.43t-6,33.57q-3.54,1.67-6.74,3.2c-2.13,1-4.47,2.18-7,3.44a11,11,0,0,0-1.19.71c-.47.32-.71.63-.71,1a5.94,5.94,0,0,0,1.19,3.19c.79,1.19,1.5,1.86,2.13,2,2.52.17,4.81.28,6.87.36s3.87.12,5.44.12v67q0,4.52-2.13,6.64c-1.42,1.43-4.1,2.6-8.05,3.56a11.94,11.94,0,0,0-3.55,1.3,2.92,2.92,0,0,0-1.42,2.72,2.27,2.27,0,0,0,1.3,2.13,7,7,0,0,0,3.43.71,80.35,80.35,0,0,0,8.06-.35m-89.18-12a46.68,46.68,0,0,1-10.3-17,63.32,63.32,0,0,1-3.79-21.8,115.26,115.26,0,0,1,1.43-18.83,28.9,28.9,0,0,1,5.92-14.09,20.21,20.21,0,0,1,7.93-6,26,26,0,0,1,9.82-1.77,21.82,21.82,0,0,1,15.64,6.39A43.75,43.75,0,0,1,75.28,1080a64.71,64.71,0,0,1,3.79,22.26A122.27,122.27,0,0,1,78,1118.52a41,41,0,0,1-3.91,13.39,19.5,19.5,0,0,1-8.53,8.4A27.23,27.23,0,0,1,53.25,1143a20.48,20.48,0,0,1-15-6.62m40.51,7.18a49.2,49.2,0,0,0,18.35-20.25,60.07,60.07,0,0,0,6.16-26.76,45.14,45.14,0,0,0-6.63-23.92,51.39,51.39,0,0,0-18-17.65,48.66,48.66,0,0,0-25.35-6.75,48,48,0,0,0-20.84,4.61,56.23,56.23,0,0,0-17,12.44,57.51,57.51,0,0,0-11.37,17.53,51.91,51.91,0,0,0-4,20.13,48.27,48.27,0,0,0,6.4,24.87A46.43,46.43,0,0,0,23.89,1145a48.68,48.68,0,0,0,24.51,6.28q18.23,0,30.44-7.7"/><path class="cls-1" d="M2495.23,583.88a14.56,14.56,0,0,1,3.08-9.35,27.94,27.94,0,0,1,8.4-7.69,19.84,19.84,0,0,1,10.31-3.09,19.44,19.44,0,0,1,13,4.63,14.2,14.2,0,0,1,5.45,11.25,13.85,13.85,0,0,1-.47,3.9,2.91,2.91,0,0,1-1.66,2,40.12,40.12,0,0,1-6.63,1c-2.37.17-5.61.24-9.71.24h-19a2.51,2.51,0,0,1-2.84-2.13,2.18,2.18,0,0,1,0-.72M2531,656.71a41.08,41.08,0,0,0,11.84-6.63,41.66,41.66,0,0,0,8.41-9.12q3.32-5.21,3.32-9c0-1.73-.71-2.61-2.14-2.61a2.12,2.12,0,0,0-1.3.48,7.62,7.62,0,0,0-1.3,1.42,38.41,38.41,0,0,1-10.78,7.7,30.1,30.1,0,0,1-12.91,2.72,30.48,30.48,0,0,1-17.29-5.21,39.34,39.34,0,0,1-17.22-32.87c0-3.32.48-5.6,1.42-6.87s2.52-1.9,4.74-1.9h49q7.34,0,7.34-7.82a29.5,29.5,0,0,0-4.38-16,30,30,0,0,0-12.08-10.9,37.92,37.92,0,0,0-17.41-3.91,43.46,43.46,0,0,0-23.92,7,52.05,52.05,0,0,0-23.92,44.17q0,15.4,5.68,27.13a44.73,44.73,0,0,0,15.51,18.23,40,40,0,0,0,22.63,6.52,42.66,42.66,0,0,0,14.8-2.49m-92.73-.12a43.85,43.85,0,0,0,12.55-7,44.92,44.92,0,0,0,8.77-9.13,21.37,21.37,0,0,0,2.13-3.9,8.39,8.39,0,0,0,.71-3c0-2.36-.87-3.55-2.61-3.55a3.21,3.21,0,0,0-1.54.48c-.55.32-1.06.63-1.53.94a38.61,38.61,0,0,1-10.78,7.7,29.41,29.41,0,0,1-12,2.25,31.87,31.87,0,0,1-17.65-5,34.06,34.06,0,0,1-12.08-13.74,44.34,44.34,0,0,1-4.38-20.13q0-17.28,6.27-26.88t16.94-9.6q4.5,0,10.78,3.44a84.79,84.79,0,0,1,12,7.94,26.26,26.26,0,0,0,3,2.13,5.62,5.62,0,0,0,3,.94,8.19,8.19,0,0,0,4.62-1.77,18.18,18.18,0,0,0,4.26-4.27,7.73,7.73,0,0,0,1.78-4.14c0-1.43-.87-2.92-2.61-4.51q-12.08-9.69-28.89-9.71a46.9,46.9,0,0,0-25.58,7.35A53.49,53.49,0,0,0,2387,583.36a57.21,57.21,0,0,0-6.86,28,52.06,52.06,0,0,0,5.68,24.39,44.31,44.31,0,0,0,15.4,17.17A39.25,39.25,0,0,0,2423,659.2a44.38,44.38,0,0,0,15.39-2.61M2262.92,656c2.21-.24,4.34-.43,6.4-.59s4.42-.24,7.1-.24c2.85,0,5.19.08,7,.24s3.79.35,5.93.59a72.33,72.33,0,0,0,7.93.35,6.53,6.53,0,0,0,3.31-.7,2.33,2.33,0,0,0,1.19-2.14q0-2.6-5.21-4.26a36.57,36.57,0,0,1-6.4-2.49c-2.05-1-3.07-3.11-3.08-6.28V583.65a8.53,8.53,0,0,1,.47-2.6,5.94,5.94,0,0,1,1.43-2.38,41,41,0,0,1,10.3-6,34.29,34.29,0,0,1,12.91-2.25,19.37,19.37,0,0,1,13.86,5.69q5.34,5.45,5.32,15.38v49c0,3.17-1,5.21-3.08,6.16a65.15,65.15,0,0,1-6.63,2.61,24.39,24.39,0,0,0-3.55,1.66,3.07,3.07,0,0,0-1.66,2.84,2,2,0,0,0,1.66,2.13,11,11,0,0,0,2.84.47,72.62,72.62,0,0,0,7.94-.35c2.13-.24,4.22-.43,6.27-.59s4.42-.24,7.11-.24,5.24.08,7.23.24,4,.35,6.15.59a72.62,72.62,0,0,0,7.94.35,10.5,10.5,0,0,0,3-.47,2,2,0,0,0,1.54-2.13,3.09,3.09,0,0,0-1.66-2.84,24.5,24.5,0,0,0-3.56-1.66q-3.54-1.18-6.74-2.61t-3.2-6.16V589.33q0-14.67-7.82-23.91a24.65,24.65,0,0,0-19.66-9.25,48.06,48.06,0,0,0-20,4A63.26,63.26,0,0,0,2288.33,572a2.16,2.16,0,0,1-.36-1.18,15,15,0,0,1-.12-1.9,66.82,66.82,0,0,1,.6-8q.59-4.73.59-6.39a2.94,2.94,0,0,0-.36-1.54,1.37,1.37,0,0,0-1.3-.6,3.21,3.21,0,0,0-1.54.48c-.56.32-1.07.64-1.54.94a86,86,0,0,1-12.43,6.87,89.89,89.89,0,0,1-15,5.21c-1.42.17-2.13,1.27-2.13,3.32a3.38,3.38,0,0,0,.71,2.25,3.12,3.12,0,0,0,1.66,1.07q5.68,1.41,7,5.57a34.2,34.2,0,0,1,1.3,10.06v52.11q0,4.74-3.08,6.39a29.79,29.79,0,0,1-6.63,2.61,20.82,20.82,0,0,0-3.9,1.54,2.81,2.81,0,0,0-1.55,2.72,2.3,2.3,0,0,0,1.42,2.14,7.32,7.32,0,0,0,3.32.7,77.3,77.3,0,0,0,8-.35m-83.84-72.13a14.56,14.56,0,0,1,3.08-9.35,28.09,28.09,0,0,1,8.41-7.69,19.8,19.8,0,0,1,10.3-3.09,19.56,19.56,0,0,1,13,4.63,14.23,14.23,0,0,1,5.45,11.25,13.5,13.5,0,0,1-.48,3.9,2.92,2.92,0,0,1-1.65,2,40.09,40.09,0,0,1-6.64,1c-2.36.17-5.61.24-9.71.24H2182a2.52,2.52,0,0,1-2.85-2.14,2.81,2.81,0,0,1,0-.71M2215,656.73A41.71,41.71,0,0,0,2235.17,641q3.3-5.21,3.31-9c0-1.73-.71-2.61-2.13-2.61a2.12,2.12,0,0,0-1.3.48,7.62,7.62,0,0,0-1.3,1.42A38.41,38.41,0,0,1,2223,639a30.1,30.1,0,0,1-12.91,2.72,30.48,30.48,0,0,1-17.29-5.21,39.35,39.35,0,0,1-17.29-32.88c0-3.32.47-5.6,1.42-6.87s2.52-1.9,4.74-1.9h49q7.34,0,7.34-7.82a29.43,29.43,0,0,0-4.39-16,29.89,29.89,0,0,0-12.08-10.9,37.88,37.88,0,0,0-17.4-3.91,43.46,43.46,0,0,0-23.92,7,52,52,0,0,0-23.93,44.17q0,15.4,5.69,27.13a44.73,44.73,0,0,0,15.51,18.23,40.08,40.08,0,0,0,22.62,6.52,42.66,42.66,0,0,0,14.8-2.49m-135.36-13.38A31.68,31.68,0,0,1,2069,637a33.29,33.29,0,0,1-8.4-12.43q-3.33-7.93-3.32-20,0-14.43,4.26-23c2.85-5.69,6.31-9.75,10.42-12.2a22.86,22.86,0,0,1,11.61-3.67,26.46,26.46,0,0,1,13.5,3.44,26.18,26.18,0,0,1,9.35,9,20.81,20.81,0,0,1,3.44,11v46.18a30.32,30.32,0,0,1-9.83,7.22,25.82,25.82,0,0,1-11,2.72,29.29,29.29,0,0,1-9.48-1.89m33.87,16.58a27.87,27.87,0,0,0,2.61-1.19,108.19,108.19,0,0,1,15.75-5.45,130.51,130.51,0,0,1,14.8-2.84,3.22,3.22,0,0,0,2.37-1.53,5.31,5.31,0,0,0,1.19-3.21c0-1.73-1.27-2.52-3.79-2.36-2.69.16-4.83.32-6.4.47s-2.77.24-3.55.24c-1.9,0-3.25-1.19-4-3.56s-1.18-6.23-1.18-11.6l.47-111.56c0-5.52.15-10.19.48-14s.54-6.7.71-8.76.23-3.32.23-3.78a1.68,1.68,0,0,0-1.43-1.9,1.77,1.77,0,0,0-.46,0,11.33,11.33,0,0,0-1.42.12,7.74,7.74,0,0,0-2.61,1.07q-4.26,1.65-11.37,4.25a146.62,146.62,0,0,1-17.05,5,2.94,2.94,0,0,0-2.13,3.08c0,1.89.78,3,2.37,3.31a13.09,13.09,0,0,1,8.29,4.5q2.83,3.57,2.84,12.79v31.51c0,3.31-.56,5-1.66,5a21.81,21.81,0,0,1-3.08-.71,45.13,45.13,0,0,0-7.23-1.77,48.81,48.81,0,0,0-8.87-.84q-16.61,0-28.9,7.47a51,51,0,0,0-19,19.77,55.43,55.43,0,0,0-6.63,26.77,52.25,52.25,0,0,0,5.56,23.69A47.91,47.91,0,0,0,2055.83,652q9.95,7,23.45,7,11.11,0,19.06-5.33a41.85,41.85,0,0,0,12-11.49v1.4a60.68,60.68,0,0,1-.48,6.87q-.48,4-.71,6.87c0,.32.39.87,1.19,1.66s1.33,1.18,1.65,1.18a4.59,4.59,0,0,0,1.42-.23M1917.54,656c2.21-.24,4.34-.43,6.39-.59s4.42-.24,7.11-.24c2.84,0,5.16.08,7,.24s3.79.35,5.92.59a72.44,72.44,0,0,0,7.93.35,6.57,6.57,0,0,0,3.32-.7,2.32,2.32,0,0,0,1.18-2.14q0-2.6-5.21-4.26a36.57,36.57,0,0,1-6.4-2.49q-3.08-1.53-3.07-6.28V583.65a8.23,8.23,0,0,1,.47-2.6,6,6,0,0,1,1.42-2.38,41.25,41.25,0,0,1,10.31-6,34.27,34.27,0,0,1,12.9-2.25q8.54.24,13.86,5.69t5.33,15.38v49c0,3.17-1,5.21-3.08,6.16a65.15,65.15,0,0,1-6.63,2.61,24.5,24.5,0,0,0-3.56,1.66,3.09,3.09,0,0,0-1.66,2.84,2,2,0,0,0,1.66,2.13,11,11,0,0,0,2.85.47,72.33,72.33,0,0,0,7.93-.35c2.13-.24,4.22-.43,6.28-.59s4.42-.24,7.1-.24q4.26,0,7.23.24c2,.16,4,.35,6.16.59a72.44,72.44,0,0,0,7.93.35,10.5,10.5,0,0,0,3-.47,2,2,0,0,0,1.54-2.13,3.07,3.07,0,0,0-1.66-2.84,23.91,23.91,0,0,0-3.55-1.66q-3.55-1.18-6.75-2.61t-3.2-6.16V589.33q0-14.67-7.82-23.91a24.62,24.62,0,0,0-19.65-9.25,48.1,48.1,0,0,0-20,4A64,64,0,0,0,1943,572a2.15,2.15,0,0,1-.35-1.18,15,15,0,0,1-.12-1.9,64.8,64.8,0,0,1,.59-8q.59-4.73.59-6.39a3,3,0,0,0-.35-1.54,1.38,1.38,0,0,0-1.31-.6,3.2,3.2,0,0,0-1.53.48c-.56.32-1.07.64-1.55.94a85.5,85.5,0,0,1-12.43,6.87,89.67,89.67,0,0,1-15,5.21c-1.42.17-2.13,1.27-2.13,3.32a3.33,3.33,0,0,0,.71,2.25,3.1,3.1,0,0,0,1.65,1.07q5.68,1.41,7,5.57a34.19,34.19,0,0,1,1.29,10.06v52.11q0,4.74-3.07,6.39a30.36,30.36,0,0,1-6.64,2.61,21.09,21.09,0,0,0-3.9,1.54,2.86,2.86,0,0,0-1.54,2.72,2.28,2.28,0,0,0,1.42,2.14,7.28,7.28,0,0,0,3.31.7,77.49,77.49,0,0,0,8.06-.35m-90.6-12a46.65,46.65,0,0,1-10.3-17.06,63.22,63.22,0,0,1-3.79-21.79,117.38,117.38,0,0,1,1.42-18.82,29,29,0,0,1,5.93-14.1,20.29,20.29,0,0,1,7.93-6,26,26,0,0,1,9.83-1.78,21.76,21.76,0,0,1,15.63,6.4,43.64,43.64,0,0,1,10.42,16.81,64.82,64.82,0,0,1,3.79,22.28,120.62,120.62,0,0,1-1.07,16.22,40.66,40.66,0,0,1-3.9,13.38,19.52,19.52,0,0,1-8.53,8.41,27.16,27.16,0,0,1-12.31,2.72,20.52,20.52,0,0,1-15-6.63m40.5,7.22A49.26,49.26,0,0,0,1886,631.05a60.15,60.15,0,0,0,6.16-26.77,45.14,45.14,0,0,0-6.63-23.92,51.47,51.47,0,0,0-18-17.65,48.72,48.72,0,0,0-25.34-6.75,47.89,47.89,0,0,0-20.85,4.62,56.37,56.37,0,0,0-17,12.43,57.84,57.84,0,0,0-11.49,17.51,52,52,0,0,0-4,20.14,48.26,48.26,0,0,0,6.4,24.86,46.47,46.47,0,0,0,17.4,17.17,48.64,48.64,0,0,0,24.52,6.28q18.23,0,30.43-7.7m-157.27-5.33a37.49,37.49,0,0,1-13.14-28v-6.35c0-3,0-6.35.12-10.07s.15-7.34.23-10.89.13-6.76.13-9.59q0-1.66,3.66-4.51a39.83,39.83,0,0,1,9.24-5.09,28.73,28.73,0,0,1,10.78-2.25,30.65,30.65,0,0,1,8.17,1.42,25.79,25.79,0,0,1,9.59,5.57q4.74,4.14,7.94,12.2t3.2,21.56c0,7.73-1,14.2-3.08,19.41a37.3,37.3,0,0,1-7.7,12.55,30.31,30.31,0,0,1-9.12,6.76,19.67,19.67,0,0,1-7.81,2,19,19,0,0,1-12.21-4.74m-37.18,75q3.2-.36,6.28-.6t7.1-.23a114.39,114.39,0,0,1,11.85.59,119.55,119.55,0,0,0,12.55.6,9.89,9.89,0,0,0,3.32-.6,2.11,2.11,0,0,0,1.65-2,2.84,2.84,0,0,0-1.65-2.73,30.38,30.38,0,0,0-3.79-1.54c-2.06-.63-4.07-1.3-6-2a15.42,15.42,0,0,1-5.09-3,6.34,6.34,0,0,1-2.13-5V662.05c0-.64,0-1.7.12-3.2s.19-2.92.36-4.26.3-2,.47-2a23.63,23.63,0,0,0,6.51,3.44,53.33,53.33,0,0,0,8.41,2.37,39.4,39.4,0,0,0,7.34.83,46.44,46.44,0,0,0,21.08-4.86,58.4,58.4,0,0,0,17.17-13A61.45,61.45,0,0,0,1770.22,623a55.62,55.62,0,0,0,4.15-21.08,51.73,51.73,0,0,0-4.74-21.55,43.89,43.89,0,0,0-13.5-17.06q-8.78-6.63-21.08-6.63a43.22,43.22,0,0,0-15.4,3.08,92.37,92.37,0,0,0-14.21,6.75,47,47,0,0,0-8.53,6,4.67,4.67,0,0,1-.23-2.13,58.22,58.22,0,0,1,.59-7.58,59.11,59.11,0,0,0,.59-6.64,3.09,3.09,0,0,0-.47-1.53,1.38,1.38,0,0,0-1.19-.84,1.15,1.15,0,0,0-.83.36,1.42,1.42,0,0,1-1.06.36,128.14,128.14,0,0,1-13.5,5.44q-7.59,2.63-16.11,4.74a2.68,2.68,0,0,0-1.54,1.07,3.77,3.77,0,0,0,1.78,5.8,8.82,8.82,0,0,1,5.92,3.55,20.53,20.53,0,0,1,3.43,6.63,20.82,20.82,0,0,1,1.07,5.69V705.15c0,3-1,5.06-2.84,6.16a30.54,30.54,0,0,1-6.87,2.84,22,22,0,0,0-3.79,1.66,3.07,3.07,0,0,0-1.66,2.85c0,.94.59,1.62,1.78,2a10.3,10.3,0,0,0,3.2.6,74.9,74.9,0,0,0,7.93-.36M1639,650.67q9.82-8.28,9.83-22,0-11.59-6.75-18.59t-21-14.81q-8.52-4.72-12.44-8.87a13.59,13.59,0,0,1-3.9-9.59c0-4.27,1.49-7.55,4.5-9.84a16.31,16.31,0,0,1,10.18-3.43,16,16,0,0,1,11.25,4.26q4.62,4.26,7.7,12.56a3.67,3.67,0,0,0,2,1.89,7.26,7.26,0,0,0,3,.71c2,0,3.07-.63,3.07-1.89a54.88,54.88,0,0,0-1.3-11.85c-.87-3.94-1.93-6.78-3.2-8.53a27.62,27.62,0,0,0-7.7-3.19,46.79,46.79,0,0,0-12.9-1.54q-10.66,0-18.24,3.79a29.17,29.17,0,0,0-11.73,10.18,26.49,26.49,0,0,0-4.14,14.69,25.61,25.61,0,0,0,2.84,12.2,31.6,31.6,0,0,0,8.29,9.71,111.69,111.69,0,0,0,13,8.88,81.64,81.64,0,0,1,13.74,10.07,14.93,14.93,0,0,1-10.66,25.69,20.58,20.58,0,0,1-14-5.68q-6.39-5.68-9.94-16.82a2.57,2.57,0,0,0-1.31-1.54,5.1,5.1,0,0,0-2.48-.59c-2.37,0-3.56.8-3.56,2.37a110.77,110.77,0,0,0,.72,12.08q.7,6.64,2.36,9.71a35.06,35.06,0,0,0,11.72,6.16,47.41,47.41,0,0,0,14.34,2.13q16.8,0,26.64-8.29m-128.25-66.8a14.58,14.58,0,0,1,3.08-9.35,27.94,27.94,0,0,1,8.4-7.69,19.84,19.84,0,0,1,10.31-3.09,19.44,19.44,0,0,1,13,4.63,14.2,14.2,0,0,1,5.45,11.25,13.85,13.85,0,0,1-.47,3.9,2.91,2.91,0,0,1-1.66,2,40.12,40.12,0,0,1-6.63,1c-2.37.17-5.61.24-9.71.24h-19a2.51,2.51,0,0,1-2.84-2.13,2.17,2.17,0,0,1,0-.72m35.88,72.84a41.08,41.08,0,0,0,11.84-6.63,41.66,41.66,0,0,0,8.41-9.12q3.32-5.21,3.32-9c0-1.73-.71-2.61-2.13-2.61a2,2,0,0,0-1.31.48,7.62,7.62,0,0,0-1.3,1.42,38.41,38.41,0,0,1-10.78,7.7,30.05,30.05,0,0,1-12.9,2.72,30.54,30.54,0,0,1-17.3-5.21,39.35,39.35,0,0,1-17.26-32.89c0-3.32.48-5.6,1.43-6.87s2.51-1.9,4.73-1.9h49q7.35,0,7.34-7.82a29.5,29.5,0,0,0-4.38-16,30,30,0,0,0-12.08-10.9,37.92,37.92,0,0,0-17.41-3.91,43.46,43.46,0,0,0-23.92,7,52.05,52.05,0,0,0-23.92,44.17q0,15.4,5.68,27.13a44.73,44.73,0,0,0,15.51,18.23,40,40,0,0,0,22.63,6.52,42.66,42.66,0,0,0,14.8-2.49M1415.63,656c2.21-.24,4.34-.43,6.39-.59s4.42-.24,7.11-.24a98.36,98.36,0,0,1,11.25.59,105.8,105.8,0,0,0,12.2.59c3,0,4.5-.94,4.5-2.84a2.7,2.7,0,0,0-1.42-2.48,17.36,17.36,0,0,0-4-1.55,34.32,34.32,0,0,1-9.24-4,6.8,6.8,0,0,1-3.08-5.92V595q0-12.32,5-16.58a16.43,16.43,0,0,1,10.89-4.27,10.09,10.09,0,0,1,3.91.84c1.34.55,2.64,1.15,3.91,1.78l4,1.77a8.7,8.7,0,0,0,3.55.82,7.43,7.43,0,0,0,5.32-2.48,19.7,19.7,0,0,0,4-5.92,15.06,15.06,0,0,0,1.54-6,7.75,7.75,0,0,0-3.31-6.51c-2.22-1.66-5.37-2.49-9.48-2.49a22.91,22.91,0,0,0-9.94,2.49,43.32,43.32,0,0,0-9.84,6.51,67.52,67.52,0,0,0-8.4,8.76c-.32,0-.48-.31-.48-1,0-2.36.08-4.81.24-7.33s.27-4.82.35-6.88.13-3.39.13-4c0-1.26-.56-1.9-1.66-1.9a5.72,5.72,0,0,0-1.66.47,15.39,15.39,0,0,0-2.61,1.43q-4.74,2.61-12.31,6a102.91,102.91,0,0,1-14.21,5.32,3.13,3.13,0,0,0-2.37,3.32,3.63,3.63,0,0,0,2.6,3.55c3.63.8,6,2.57,7.11,5.34a27.37,27.37,0,0,1,1.66,10.06v52.11a7.91,7.91,0,0,1-2,5.68c-1.33,1.42-3.67,2.53-7,3.32a21.28,21.28,0,0,0-3.92,1.54,2.83,2.83,0,0,0-1.53,2.72,2.28,2.28,0,0,0,1.3,2.14,7.28,7.28,0,0,0,3.44.7,77.3,77.3,0,0,0,8-.35m-85.74,0c2.21-.24,4.34-.43,6.39-.59s4.42-.24,7.11-.24a98.36,98.36,0,0,1,11.25.59,105.8,105.8,0,0,0,12.2.59c3,0,4.5-.94,4.5-2.84a2.7,2.7,0,0,0-1.42-2.48,17.36,17.36,0,0,0-4-1.55,34.32,34.32,0,0,1-9.24-4,6.8,6.8,0,0,1-3.08-5.92V595q0-12.32,5-16.58a16.34,16.34,0,0,1,10.89-4.27,10.09,10.09,0,0,1,3.91.84c1.34.55,2.64,1.15,3.91,1.78l4,1.77a9.13,9.13,0,0,0,3.56.82,7.43,7.43,0,0,0,5.32-2.48,19.7,19.7,0,0,0,4-5.92,15.06,15.06,0,0,0,1.54-6,7.75,7.75,0,0,0-3.31-6.51c-2.22-1.66-5.37-2.49-9.48-2.49a23.17,23.17,0,0,0-10,2.49,43,43,0,0,0-9.83,6.51,67.52,67.52,0,0,0-8.4,8.76c-.33,0-.48-.31-.48-1,0-2.36.08-4.81.24-7.33s.27-4.82.35-6.88.12-3.39.12-4c0-1.26-.56-1.9-1.65-1.9a5.72,5.72,0,0,0-1.66.47,15.39,15.39,0,0,0-2.61,1.43q-4.74,2.61-12.31,6a102.56,102.56,0,0,1-14.22,5.32,3.12,3.12,0,0,0-2.36,3.32,3.48,3.48,0,0,0,.82,2.37,3.43,3.43,0,0,0,1.78,1.18c3.63.8,6,2.57,7.11,5.34a27.37,27.37,0,0,1,1.66,10.06v52.11a8,8,0,0,1-2,5.68c-1.33,1.42-3.67,2.53-7,3.32a21.18,21.18,0,0,0-3.91,1.54,2.83,2.83,0,0,0-1.53,2.72,2.28,2.28,0,0,0,1.3,2.14,7.26,7.26,0,0,0,3.43.7,77.49,77.49,0,0,0,8.06-.35m-91.31-12a46.35,46.35,0,0,1-10.3-17.06,63,63,0,0,1-3.79-21.79,116.24,116.24,0,0,1,1.42-18.82,29.16,29.16,0,0,1,5.92-14.1,20.32,20.32,0,0,1,7.94-6,26,26,0,0,1,9.82-1.78,21.78,21.78,0,0,1,15.64,6.4,43.64,43.64,0,0,1,10.42,16.81,64.82,64.82,0,0,1,3.79,22.28,122.27,122.27,0,0,1-1.06,16.22,40.69,40.69,0,0,1-3.92,13.38,19.5,19.5,0,0,1-8.52,8.41,27.23,27.23,0,0,1-12.32,2.72,20.52,20.52,0,0,1-15-6.63m40.51,7.22A49.31,49.31,0,0,0,1297.43,631a60.15,60.15,0,0,0,6.16-26.77,45,45,0,0,0-6.64-23.92,51.39,51.39,0,0,0-18-17.65,48.63,48.63,0,0,0-25.34-6.75,47.81,47.81,0,0,0-20.84,4.62,56.63,56.63,0,0,0-17,12.46,58.13,58.13,0,0,0-11.37,17.53,52.32,52.32,0,0,0-4,20.14,48.16,48.16,0,0,0,6.39,24.86,46.6,46.6,0,0,0,17.42,17.17,48.58,48.58,0,0,0,24.51,6.28q18.22,0,30.44-7.7m-133.12,6a90.11,90.11,0,0,0,21.21-5.68,12.89,12.89,0,0,0,4.5-2.37,15.72,15.72,0,0,0,2.6-4.27c1-2.67,1.9-5.64,2.84-8.87s1.7-6.24,2.25-9a35.69,35.69,0,0,0,.83-6.51c0-2.52-1.11-3.79-3.31-3.79a5.32,5.32,0,0,0-5,3.31q-7.59,14.46-18.71,22.15t-28.18,7.7a51.92,51.92,0,0,1-25.58-6.28,59.9,59.9,0,0,1-19.31-16.93,78.2,78.2,0,0,1-12.08-24.4,98.67,98.67,0,0,1-4.14-28.66,70.16,70.16,0,0,1,4.38-24.63,71.64,71.64,0,0,1,12.2-21.2,57.17,57.17,0,0,1,19-14.8,54.64,54.64,0,0,1,24.33-5.45,69.17,69.17,0,0,1,18.83,2.37,39.82,39.82,0,0,1,13.86,6.63,26.32,26.32,0,0,1,8.29,10.18,90.07,90.07,0,0,1,5,14,4.1,4.1,0,0,0,2.84,3.2,5.16,5.16,0,0,0,3.91-.35,3.28,3.28,0,0,0,1.78-3.09q-.25-8-.83-14.68t-1.3-12.79a8.12,8.12,0,0,0-1.78-5,10.38,10.38,0,0,0-4.62-2.6c-4.9-1.58-9.47-2.85-13.74-3.79s-8.69-1.7-13.26-2.25a133.83,133.83,0,0,0-15.63-.83,103.35,103.35,0,0,0-36.48,6.28,95.25,95.25,0,0,0-29.49,17.29A79.42,79.42,0,0,0,1041.47,548a72.09,72.09,0,0,0-7.11,31.62,74.55,74.55,0,0,0,26,57.79,87.93,87.93,0,0,0,27.83,16.1,95.83,95.83,0,0,0,32.81,5.69,163.44,163.44,0,0,0,25-1.9M895.41,720.05a17.71,17.71,0,0,0,7-8.29q3.32-7.59,6.75-15.75l6.52-15.52q3.06-7.34,5.32-12.78t3-7.59l33.35-79.53a33.63,33.63,0,0,1,6.28-10,18.37,18.37,0,0,1,7.7-5.45c1.26-.62,2.4-1.25,3.43-1.89a3.14,3.14,0,0,0,1.54-2.84c0-1-.63-1.54-1.89-1.78a17.62,17.62,0,0,0-3.08-.36,41.75,41.75,0,0,0-5,.24c-1.27.17-2.6.32-4,.48a55.69,55.69,0,0,1-5.92.23,69.4,69.4,0,0,1-9-.47,60,60,0,0,0-7.81-.48,10.3,10.3,0,0,0-3.2.6c-1.19.4-1.78,1.06-1.78,2,0,1.27.75,2.33,2.25,3.2s2.88,1.62,4.15,2.25a10.47,10.47,0,0,1,3.79,3c1.1,1.34,1.66,3.43,1.66,6.28a27.53,27.53,0,0,1-.48,4.62,20.73,20.73,0,0,1-1.23,4.37l-14.92,41c-.33.8-.63,1.19-1,1.19s-.87-.39-1.18-1.19l-17.53-43.34c-.63-1.42-1.19-2.85-1.66-4.27a12,12,0,0,1-.71-3.79q0-3.78,1.3-5.56a6.87,6.87,0,0,1,3.91-2.49,24.1,24.1,0,0,0,4-2,3.75,3.75,0,0,0,2.13-3.2,2.11,2.11,0,0,0-1.66-2,9.89,9.89,0,0,0-3.32-.6c-3.31,0-6,.09-7.93.24s-3.83.32-5.57.48-4.11.23-7.1.23c-2.53,0-4.59-.07-6.16-.23s-3.32-.31-5.21-.48-4.59-.24-8-.24a17.62,17.62,0,0,0-3.08.36c-1.27.24-1.9.83-1.9,1.78a3.09,3.09,0,0,0,1.54,2.84,37,37,0,0,0,3.44,1.89,13,13,0,0,1,6.63,4.51,34.38,34.38,0,0,1,4.5,7.82l28,68.2a24,24,0,0,1,1.42,4.27,21.29,21.29,0,0,1,.47,4.5,20.08,20.08,0,0,1-1.42,7.58q-3.33,8.28-6.39,14.92t-5.81,11.73q-2.73,5.09-5.09,8.88a8.87,8.87,0,0,1-2.37,3,7.68,7.68,0,0,1-3.55,1.06,20,20,0,0,1-5.33-.82,22.12,22.12,0,0,0-6-.84,7,7,0,0,0-6.39,3.56,15.22,15.22,0,0,0-2.14,8,9.49,9.49,0,0,0,4.5,8.41,17.37,17.37,0,0,0,9.72,3,19.62,19.62,0,0,0,10.53-2.84m-70.46-64.07c2-.24,4.11-.43,6.16-.59s4.41-.24,7.1-.24c2.85,0,5.29.08,7.35.24l6.39.47c2.21.16,4.81.24,7.82.24a11.1,11.1,0,0,0,3.19-.47,1.89,1.89,0,0,0,1.55-1.9,3.09,3.09,0,0,0-1.66-2.84,21.26,21.26,0,0,0-3.79-1.66,51,51,0,0,1-6.63-2.72c-2.06-1-3.08-3.12-3.08-6.28v-123a175.33,175.33,0,0,1,.71-18.48c.47-4.09.71-6.78.71-8a3.05,3.05,0,0,0-.36-1.42,1.13,1.13,0,0,0-1.06-.71,7.37,7.37,0,0,0-2.13.46c-2.53,1-5.37,2.06-8.53,3.32s-6.55,2.53-10.19,3.79a81.57,81.57,0,0,1-11.6,3.08c-1.11.32-1.66,1.35-1.66,3.08,0,1.89.62,3,1.89,3.31q5.92,1.2,8.17,5.81a26.21,26.21,0,0,1,2.26,11.48V640.26c0,3.31-1,5.44-3.08,6.39a65.15,65.15,0,0,1-6.63,2.61c-1.43.64-2.7,1.22-3.79,1.78a2.83,2.83,0,0,0-1.66,2.72,2,2,0,0,0,1.53,2.13,11.22,11.22,0,0,0,3.2.47,70.45,70.45,0,0,0,7.82-.35M787.53,531.19a13.51,13.51,0,0,0,4.23-10.06,13.81,13.81,0,0,0-4.26-10.31,14.43,14.43,0,0,0-10.42-4.15A13.71,13.71,0,0,0,767,510.82,14.41,14.41,0,0,0,777,535.33h.13a14.42,14.42,0,0,0,10.42-4.14M763.76,656c2.13-.24,4.3-.43,6.51-.59s4.66-.24,7.34-.24q4.26,0,7.46.24c2.14.16,4.38.35,6.75.59s5,.35,8,.35,4.27-.94,4.27-2.84a2.86,2.86,0,0,0-1.54-2.72,15.74,15.74,0,0,0-3.44-1.31,24.52,24.52,0,0,1-8-3.31,6.57,6.57,0,0,1-2.6-5.69v-54q0-5.68.59-12.32t1.19-12.31c.38-3.79.58-6.55.58-8.29a1.68,1.68,0,0,0-1.43-1.9,1.77,1.77,0,0,0-.46,0,8.68,8.68,0,0,0-3.79,1.66c-2.53,1.59-6.27,3.68-11.25,6.28a73.49,73.49,0,0,1-17.88,6.27c-1.42.17-2.14,1.19-2.14,3.08a4.27,4.27,0,0,0,.6,2.49,2.65,2.65,0,0,0,1.77,1.07q5.92.94,8.29,5.33T767,589.33v51.16c0,2.85-.87,4.83-2.6,5.92a28.78,28.78,0,0,1-8.06,3.08,15.66,15.66,0,0,0-3.43,1.31,2.86,2.86,0,0,0-1.54,2.72,2.31,2.31,0,0,0,1.31,2.14,6.56,6.56,0,0,0,3.19.7,72.62,72.62,0,0,0,7.94-.35M577.4,656c2.14-.24,4.22-.43,6.28-.59s4.42-.24,7.1-.24q4.26,0,6.87.24c1.74.16,3.63.35,5.69.59a70.16,70.16,0,0,0,7.81.35,6.57,6.57,0,0,0,3.2-.7,2.28,2.28,0,0,0,1.3-2.14A2.83,2.83,0,0,0,614,650.8a35.89,35.89,0,0,0-3.55-1.54,32.24,32.24,0,0,1-6.16-2.72c-1.73-1-2.6-3-2.6-6v-50q0-10.41,5.21-14.21a27.89,27.89,0,0,1,8.88-4.74,31.61,31.61,0,0,1,9.36-1.42,13.19,13.19,0,0,1,8.52,3.08A22.15,22.15,0,0,1,639.7,581a24,24,0,0,1,2.24,10.41v49.51c0,2.84-.9,4.78-2.72,5.8a26.37,26.37,0,0,1-6.28,2.49,35.89,35.89,0,0,0-3.55,1.54,2.83,2.83,0,0,0-1.66,2.72,2.3,2.3,0,0,0,1.42,2.14,6.85,6.85,0,0,0,3.08.7,70.45,70.45,0,0,0,7.82-.35c2-.24,4.07-.43,6-.59s4.3-.24,7-.24q4.28,0,7.11.24c1.9.16,3.87.35,5.92.59a70.45,70.45,0,0,0,7.82.35,6.53,6.53,0,0,0,3.31-.7,2.33,2.33,0,0,0,1.19-2.14,2.91,2.91,0,0,0-1.54-2.6,17.58,17.58,0,0,0-3.67-1.66,31.47,31.47,0,0,1-6.51-2.49q-3-1.53-3-6.28V590.75q0-10.17,5.45-14.44a28,28,0,0,1,8.73-4.72,31.13,31.13,0,0,1,9.48-1.42,13.53,13.53,0,0,1,8.53,3,20.94,20.94,0,0,1,6,7.82,24.68,24.68,0,0,1,2.25,10.53V641c0,2.84-.87,4.78-2.61,5.8a24.06,24.06,0,0,1-6.16,2.49,17.83,17.83,0,0,0-3.79,1.54,2.92,2.92,0,0,0-1.42,2.72,2.31,2.31,0,0,0,1.31,2.14,6.56,6.56,0,0,0,3.19.7,70.45,70.45,0,0,0,7.82-.35c2-.24,4.07-.43,6-.59s4.3-.24,7-.24,5.21.08,7.11.24,3.87.35,5.92.59a70.45,70.45,0,0,0,7.82.35,6.41,6.41,0,0,0,3.44-.7,2.41,2.41,0,0,0,1.06-2.14,3,3,0,0,0-1.42-2.6,14.56,14.56,0,0,0-3.79-1.66,65.32,65.32,0,0,1-6.64-2.61c-2-1-3.07-3-3.07-6.16V589.33a45.36,45.36,0,0,0-3-16.58,29.11,29.11,0,0,0-8.41-12.08,20.24,20.24,0,0,0-13.27-4.5,46,46,0,0,0-20.84,4.74,62,62,0,0,0-16.82,12.32h-.71q-3.55-8.76-9.47-12.91a23.76,23.76,0,0,0-14-4.15q-12.54,0-21.43,5a67,67,0,0,0-14.8,10.89h-.38c-.31-.31-.47-1.25-.47-2.84a72.06,72.06,0,0,1,.59-8.17,63.59,63.59,0,0,0,.59-6.75c0-1.26-.55-1.9-1.66-1.9a2.56,2.56,0,0,0-1.29.36c-.4.24-.76.44-1.07.59-3,1.75-5.85,3.36-8.53,4.86a74.5,74.5,0,0,1-8.76,4.14,95,95,0,0,1-10.9,3.55c-1.42.33-2.13,1.43-2.13,3.32a3.28,3.28,0,0,0,.71,2.37,3.47,3.47,0,0,0,1.66.95q5.44.94,6.87,5.33a33.86,33.86,0,0,1,1.42,10.3v52.11q0,4.74-3.2,6.28a66.21,66.21,0,0,1-6.51,2.72,16.43,16.43,0,0,0-3.91,1.66,2.91,2.91,0,0,0-1.54,2.6,2.22,2.22,0,0,0,1.42,2.25,8.41,8.41,0,0,0,3.32.59,72.44,72.44,0,0,0,7.93-.35m-82.19-12.79q-3.42-3-3.43-9.35a13.52,13.52,0,0,1,4.27-9.6q4.26-4.38,14.92-8.41a21.22,21.22,0,0,1,2.6-1,7,7,0,0,1,1.43-.23,1.89,1.89,0,0,1,1.89,1.07,7.38,7.38,0,0,1,.24,3.43l-.48,13.5a23.37,23.37,0,0,1-.83,5.57,7.32,7.32,0,0,1-1.77,3,15.37,15.37,0,0,1-4.86,3.68,15.66,15.66,0,0,1-6.75,1.3,11,11,0,0,1-7.23-3m9.13,12.67a63.3,63.3,0,0,0,14.68-9.71h.71q7.11,12.78,19,12.79a20.22,20.22,0,0,0,8.88-2.25,32.28,32.28,0,0,0,8.65-6.28c2.2-2,3.31-4,3.31-5.92a2.37,2.37,0,0,0-.83-1.89,3,3,0,0,0-2-.72,2.68,2.68,0,0,0-1.66.95c-2.06,1.9-4.9,2.84-8.52,2.84a7,7,0,0,1-5.92-3.31,13.17,13.17,0,0,1-2.14-8.52l1.19-53.53q.46-10.67-5.81-17.41t-16.22-6.76a37.84,37.84,0,0,0-11.49,2.13,70.64,70.64,0,0,0-13.26,6,77.19,77.19,0,0,0-12.43,8.88,35.66,35.66,0,0,0-7.47,8.41,15.44,15.44,0,0,0-2.48,7.93,2.85,2.85,0,0,0,2.6,3.08h.48a19.44,19.44,0,0,0,7-1.66,45.72,45.72,0,0,0,7.34-3.67c2.13-1.33,3.19-2.48,3.2-3.44a20.24,20.24,0,0,0-.12-2.48,22.42,22.42,0,0,1-.11-2.73,17,17,0,0,1,.35-3.55,4.35,4.35,0,0,1,1.54-2.6,21.52,21.52,0,0,1,5.56-3,19.11,19.11,0,0,1,6.76-1.3q6.39,0,9.71,4.26a16,16,0,0,1,3,10.71l-.48,14.42c-.16,3.17-.56,5.26-1.18,6.28s-2.53,2.18-5.68,3.43l-23,9.71q-9.24,3.81-13.62,8.53c-2.92,3.17-4.38,7.34-4.38,12.56a17.75,17.75,0,0,0,3.08,9.59,26.75,26.75,0,0,0,7.82,8,17.09,17.09,0,0,0,9.71,3.2,34.63,34.63,0,0,0,14.21-3.08M367,656.17l10.07-.71c3.31-.24,6.71-.36,10.18-.36,3.16,0,6.07.12,8.76.36s5.57.47,8.65.71,6.66.35,10.78.35a10.88,10.88,0,0,0,4.26-.71,2.32,2.32,0,0,0,1.66-2.13,3.09,3.09,0,0,0-1.66-2.84,18.32,18.32,0,0,0-5.21-1.66q-9.23-1.59-12.66-5.59T398.15,632q-.5-11.6-.6-23t-.11-22c0-2,.51-3.51,1.53-4.37a7,7,0,0,1,3.91-1.54q3.78-.24,7.46-.24h7.47q2.83,0,5.79.12c2,.08,3.92.12,5.81.12a11.62,11.62,0,0,1,6.51,2.12c2.13,1.43,3.76,4.12,4.86,8.06a12.69,12.69,0,0,0,1.9,3.67,4.21,4.21,0,0,0,3.55,2,1.84,1.84,0,0,0,1.89-1.3,10.88,10.88,0,0,0,.48-3.67c-.33-3.47-.56-6.35-.71-8.64s-.24-4.78-.24-7.47a61.59,61.59,0,0,1,.35-6.51c.24-2.29.44-4.93.6-7.94a3.78,3.78,0,0,0-.84-3.08,3.05,3.05,0,0,0-2.24-1.18,3.88,3.88,0,0,0-2.37,1.42,14.05,14.05,0,0,0-2.13,2.61,18.76,18.76,0,0,1-5.1,7.58,13.05,13.05,0,0,1-9.11,3.08c-3,0-6.92.08-11.73.23s-9.51.24-14.09.24a2.85,2.85,0,0,1-2.73-1.54,7.68,7.68,0,0,1-.82-3.67v-45a18.17,18.17,0,0,1,2.13-8.29c1.26-2.21,3.79-3.32,7.58-3.31H433a29.18,29.18,0,0,1,9,1.3,17.26,17.26,0,0,1,7.35,4.85,21.35,21.35,0,0,1,3.66,5.93,56.28,56.28,0,0,1,2.73,8,4.85,4.85,0,0,0,1.66,2.37,3.76,3.76,0,0,0,2.37,1c1.57,0,2.37-1.66,2.37-5,0-1.57-.05-4-.12-7.34s-.21-6.78-.36-10.41-.39-6.64-.71-9a2.66,2.66,0,0,0-1.89-2.25,9.3,9.3,0,0,0-3.08-.59,64.59,64.59,0,0,0-11,1.18,82.48,82.48,0,0,1-14.8,1.19H396c-4.73,0-9.08-.08-13-.24L371,501c-4-.15-8.64-.24-13.85-.24a10.38,10.38,0,0,0-4.4.82c-1.19.55-1.78,1.3-1.78,2.25a3.42,3.42,0,0,0,1.66,2.84,14.14,14.14,0,0,0,5.45,1.9c5.83,1.11,9.67,3.32,11.48,6.63s2.73,8.29,2.73,14.92V632.2c0,5.54-1.11,9.48-3.32,11.85s-6.31,4.11-12.31,5.21c-4.59.94-6.87,2.45-6.87,4.5a2.21,2.21,0,0,0,1.66,2.25,12.52,12.52,0,0,0,4.3.58c4.11,0,7.85-.12,11.25-.35m-140.1-72.37a14.58,14.58,0,0,1,3.08-9.35,28.09,28.09,0,0,1,8.41-7.69,19.8,19.8,0,0,1,10.3-3.09,19.49,19.49,0,0,1,13,4.63,14.25,14.25,0,0,1,5.47,11.22,13.5,13.5,0,0,1-.48,3.9,2.87,2.87,0,0,1-1.66,2,40.12,40.12,0,0,1-6.63,1c-2.37.17-5.6.24-9.71.24H229.76a2.52,2.52,0,0,1-2.84-2.15,2.73,2.73,0,0,1,0-.7m35.84,72.89a41.08,41.08,0,0,0,11.84-6.63A41.66,41.66,0,0,0,283,641q3.32-5.21,3.31-9c0-1.73-.71-2.61-2.13-2.61a2.12,2.12,0,0,0-1.3.48,8.4,8.4,0,0,0-1.31,1.42,38,38,0,0,1-10.77,7.7,30.1,30.1,0,0,1-12.91,2.72,30.48,30.48,0,0,1-17.29-5.21,38.56,38.56,0,0,1-12.52-13.88,39,39,0,0,1-4.74-19c0-3.32.47-5.6,1.42-6.87s2.53-1.9,4.74-1.9h49q7.33,0,7.34-7.82a29.5,29.5,0,0,0-4.38-16,30,30,0,0,0-12.08-10.9A37.92,37.92,0,0,0,252,556.19a43.46,43.46,0,0,0-23.92,7,52.08,52.08,0,0,0-23.93,44.17q0,15.4,5.69,27.13a44.65,44.65,0,0,0,15.54,18.2A40.08,40.08,0,0,0,248,659.21a42.51,42.51,0,0,0,14.78-2.49M88.91,656c2.13-.24,4.18-.43,6.16-.59s4.29-.24,7-.24,5.16.08,7,.24,3.71.35,5.68.59a66.21,66.21,0,0,0,7.71.35c3.15,0,4.73-.94,4.73-2.84a3,3,0,0,0-1.42-2.6,14.56,14.56,0,0,0-3.79-1.66,26,26,0,0,1-5.92-3q-2.61-1.77-2.84-6.52v-49.5q0-6.15,1.06-8.88a12.33,12.33,0,0,1,4.15-5.09,21.43,21.43,0,0,1,8.88-4,45.58,45.58,0,0,1,9.59-1.18,17.7,17.7,0,0,1,9.12,2.6,23.31,23.31,0,0,1,7.46,7.23,18.13,18.13,0,0,1,3.08,10.3v47.84c0,3.32-.94,5.69-2.84,7.11a18.77,18.77,0,0,1-6.16,3.08c-1.58.64-2.84,1.18-3.79,1.66a2.62,2.62,0,0,0-1.42,2.6c0,1.9,1.66,2.84,5,2.84a65.58,65.58,0,0,0,7.93-.35c1.81-.24,3.55-.43,5.21-.59s4-.24,7-.24,5.36.08,7.1.24,3.56.35,5.45.59a65.92,65.92,0,0,0,7.82.35c3.31,0,5-.94,5-2.84a2.7,2.7,0,0,0-1.42-2.48,29.71,29.71,0,0,0-3.79-1.78,26.34,26.34,0,0,1-6.52-3.2q-3-2-2.95-6.75V588.86q0-14.67-7.94-23.69a25.57,25.57,0,0,0-20-9,39.71,39.71,0,0,0-14.34,2.61,62.13,62.13,0,0,0-12.14,6.16q-5.33,3.55-9.11,6.39a9.21,9.21,0,0,1-1.07-3,28.1,28.1,0,0,1-.35-5.1v-46q0-9.71.47-15c.32-3.55.63-6.16,1-7.81a22.75,22.75,0,0,0,.47-3.67,2.47,2.47,0,0,0-.47-1.55,1.74,1.74,0,0,0-1.42-.58,7.37,7.37,0,0,0-2.13.46q-3.8,1.68-9.24,3.68t-11,3.67q-5.56,1.67-9.59,2.84a2.94,2.94,0,0,0-1.89,3.08c0,2.06.71,3.24,2.13,3.55,4.11.64,6.78,2.57,8,5.81A30.55,30.55,0,0,1,91.46,523V639.78c0,3.32-1,5.54-3.08,6.63a40.88,40.88,0,0,1-6.63,2.85c-3.64,1.27-5.45,2.69-5.45,4.26,0,1.9,1.57,2.84,4.74,2.84A72.44,72.44,0,0,0,89,656m-34.21-.24A51.58,51.58,0,0,0,65.89,649c2.84-2.37,4.26-4,4.26-5a9.23,9.23,0,0,0-.35-2.61,1.49,1.49,0,0,0-1.54-1.18,2.38,2.38,0,0,0-1.19.47,33.19,33.19,0,0,1-6.39,2.84,34.32,34.32,0,0,1-10.43,1.19q-7.34,0-11.36-5.33t-4-15.28V578.21q0-4.26,1.78-5.46c1.18-.78,3.75-1.18,7.69-1.18h23c.63,0,1.18-.78,1.66-2.37a17.27,17.27,0,0,0,.71-5,8.46,8.46,0,0,0-.71-3.32c-.48-1.1-1-1.66-1.42-1.66H40a8.34,8.34,0,0,1-4.38-1c-1-.62-1.46-1.89-1.3-3.78l1.42-11.6c.15-1.43-.12-2.38-.83-2.85a4.32,4.32,0,0,0-2.49-.71,3.27,3.27,0,0,0-2.37.94c-.63.64-1.42,1.35-2.37,2.14q-2.84,2.85-7,6.63t-9,7.46q-4.85,3.68-9.82,6.75a3.42,3.42,0,0,0-1.07,1.07,2.54,2.54,0,0,0-.59,1.3,8.89,8.89,0,0,0,1,3.91c.63,1.34,1.42,2,2.36,2h1.9q4.5,0,6,.83A2.86,2.86,0,0,1,13,575.08v55q0,14.22,7,21.56T40,659a34.35,34.35,0,0,0,14.69-3.2"/><path class="cls-1" d="M2645.49,354.59q3.32-.34,6.51-.59t7.23-.24c4.11,0,8.4.2,12.9.6s9.13.58,13.86.58a5.25,5.25,0,0,0,3.08-.83,2.6,2.6,0,0,0,1.19-2.24q0-3.09-5-4-9.72-1.42-12.67-3.79t-3-7.58V274.15a4,4,0,0,1,1.06-3c.71-.71,2.34-1.07,4.86-1.07h25.35q1.17,0,2.13-1.89a13,13,0,0,0,1.06-3.44,21.39,21.39,0,0,0,.36-3.91,3,3,0,0,0-.95-2.13,3.22,3.22,0,0,0-2.37-.95h-28.33a4.48,4.48,0,0,1-2.13-.47,2.14,2.14,0,0,1-1-2.13V234.83q0-19.43,6.4-28.54t17-9.12q7.82,0,12.67,3.19a44.85,44.85,0,0,1,8.17,6.76q2.37,2.37,4.27,4.15a5.87,5.87,0,0,0,4,1.77,7.78,7.78,0,0,0,6.16-2.73c1.57-1.81,2.37-4.38,2.37-7.69q0-7.35-6.75-11.49T2703,187a51.27,51.27,0,0,0-17.65,3.43,52.16,52.16,0,0,0-17.77,11.37q-8.4,7.94-13.85,21.43t-5.92,33.64q-3.56,1.65-6.75,3.2c-2.13,1-4.47,2.17-7,3.43a10.85,10.85,0,0,0-1.18.71c-.47.32-.71.63-.71.95a6.07,6.07,0,0,0,1.18,3.2c.79,1.18,1.5,1.85,2.13,2q3.78.24,6.87.36c2,.08,3.87.11,5.45.11v67q0,4.5-2.13,6.63c-1.42,1.42-4.11,2.61-8,3.56a12.47,12.47,0,0,0-3.56,1.3,2.92,2.92,0,0,0-1.42,2.72,2.27,2.27,0,0,0,1.3,2.13,7.17,7.17,0,0,0,3.44.71,80.15,80.15,0,0,0,8-.35m-89.17-12A46.55,46.55,0,0,1,2546,325.59a63.5,63.5,0,0,1-3.79-21.79,115.26,115.26,0,0,1,1.43-18.83,29,29,0,0,1,5.92-14.09,20.21,20.21,0,0,1,7.93-6,26,26,0,0,1,9.83-1.77A21.75,21.75,0,0,1,2583,269.5a43.55,43.55,0,0,1,10.42,16.82,64.67,64.67,0,0,1,3.79,22.26,122.31,122.31,0,0,1-1.06,16.23,40.67,40.67,0,0,1-3.91,13.38,19.47,19.47,0,0,1-8.53,8.41,27.16,27.16,0,0,1-12.31,2.72,20.47,20.47,0,0,1-15-6.63m40.5,7.22a49.31,49.31,0,0,0,18.32-20.32,59.93,59.93,0,0,0,6.15-26.76,45.18,45.18,0,0,0-6.63-23.93,51.36,51.36,0,0,0-18-17.64,48.75,48.75,0,0,0-25.34-6.75,47.86,47.86,0,0,0-20.85,4.62,56.5,56.5,0,0,0-17.05,12.46,57.69,57.69,0,0,0-11.37,17.53,52.28,52.28,0,0,0-4,20.13,48.27,48.27,0,0,0,6.4,24.87,46.57,46.57,0,0,0,17.41,17.17,48.68,48.68,0,0,0,24.51,6.28q18.24,0,30.44-7.7M2170.62,355q7-.75,13.57-1.26t15.07-.5q9,0,14.82.5t12.56,1.26a157.59,157.59,0,0,0,16.83.75,13.61,13.61,0,0,0,7-1.51,4.94,4.94,0,0,0,2.51-4.52q0-5.52-11.05-9a77.68,77.68,0,0,1-13.57-5.28q-6.54-3.26-6.53-13.31V201.47a17.7,17.7,0,0,1,1-5.53,12.62,12.62,0,0,1,3-5,86.81,86.81,0,0,1,21.93-12.83q11.8-4.77,27.39-4.78,18.07.51,29.39,12.06t11.3,32.66v104q0,10-6.53,13.06a136,136,0,0,1-14.07,5.53,51.05,51.05,0,0,0-7.53,3.52,6.52,6.52,0,0,0-3.52,6,4.34,4.34,0,0,0,3.52,4.53,22.63,22.63,0,0,0,6,1,157.89,157.89,0,0,0,16.84-.75q6.78-.75,13.31-1.26t15.07-.5c6,0,11.13.17,15.33.5s8.54.76,13.06,1.26a157.59,157.59,0,0,0,16.83.75,21.58,21.58,0,0,0,6.28-1,4.31,4.31,0,0,0,3.27-4.53,6.53,6.53,0,0,0-3.52-6,52.2,52.2,0,0,0-7.54-3.52q-7.53-2.5-14.32-5.53t-6.78-13.06V213.53q0-31.15-16.58-50.75t-41.7-19.59q-23.62,0-42.45,8.54t-36.43,25.12a4.76,4.76,0,0,1-.75-2.51,31.47,31.47,0,0,1-.25-4,141.44,141.44,0,0,1,1.25-17.08c.83-6.7,1.26-11.22,1.26-13.57a6.18,6.18,0,0,0-.76-3.26,3,3,0,0,0-2.76-1.26,6.73,6.73,0,0,0-3.26,1c-1.18.67-2.27,1.33-3.27,2a187.16,187.16,0,0,1-26.38,14.57,191.39,191.39,0,0,1-31.9,11.06c-3,.33-4.52,2.68-4.52,7a7.14,7.14,0,0,0,1.5,4.77,6.62,6.62,0,0,0,3.52,2.26q12.06,3,14.82,11.81a72,72,0,0,1,2.77,21.35v110.6q0,10-6.54,13.56a64.45,64.45,0,0,1-14.06,5.53,45,45,0,0,0-8.29,3.26,6.09,6.09,0,0,0-3.27,5.78,4.83,4.83,0,0,0,3,4.52,15.52,15.52,0,0,0,7,1.51,162.41,162.41,0,0,0,17.08-.75m-192.15-25.41q-13.82-14.07-21.85-36.18a134.12,134.12,0,0,1-8-46.22,247.29,247.29,0,0,1,3-39.94q3-18.34,12.56-29.9a43,43,0,0,1,16.81-12.76,54.85,54.85,0,0,1,20.85-3.77q19.08,0,33.16,13.57t22.1,35.67a136.94,136.94,0,0,1,8,47.23,257.14,257.14,0,0,1-2.26,34.41q-2.26,16.85-8.29,28.39a41.36,41.36,0,0,1-18.09,17.84,57.58,57.58,0,0,1-26.12,5.77q-18.09,0-31.91-14.06M2064.3,345a104.48,104.48,0,0,0,38.94-43,127.37,127.37,0,0,0,13.06-56.77,95.78,95.78,0,0,0-14.07-50.74A109,109,0,0,0,2064.05,157q-24.12-14.33-53.76-14.32a101.6,101.6,0,0,0-44.21,9.79,119.71,119.71,0,0,0-36.18,26.38,122.4,122.4,0,0,0-24.11,37.18,110.38,110.38,0,0,0-8.55,42.7q0,29.65,13.57,52.76a98.71,98.71,0,0,0,37,36.41q23.35,13.31,52,13.32,38.68,0,64.56-16.33M1838,90.18a28.65,28.65,0,0,0,9-21.35A29.3,29.3,0,0,0,1838,47a30.54,30.54,0,0,0-22.11-8.79A29.1,29.1,0,0,0,1794.55,47a29.65,29.65,0,0,0-8.8,21.86A30,30,0,0,0,1815.6,99h.3a30.48,30.48,0,0,0,22.11-8.8M1787.51,355q6.78-.75,13.82-1.26t15.57-.5q9,0,15.83.5t14.32,1.26q7.53.75,17.08.75,9,0,9-6a6.09,6.09,0,0,0-3.26-5.78,32.28,32.28,0,0,0-7.29-2.76q-11.55-3-17.08-7c-3.69-2.68-5.52-6.7-5.52-12.06V207.5q0-12.06,1.25-26.13t2.51-26.12q1.26-12.06,1.26-17.59,0-4-4-4c-1.68,0-4.36,1.18-8,3.52q-8,5-23.86,13.31t-37.94,13.32c-3,.33-4.51,2.5-4.52,6.53a9,9,0,0,0,1.26,5.27,5.68,5.68,0,0,0,3.77,2.26q12.55,2,17.58,11.31t5,24.37v108.5q0,9-5.53,12.56t-17.08,6.53a31.81,31.81,0,0,0-7.29,2.76,6.06,6.06,0,0,0-3.26,5.78,4.83,4.83,0,0,0,2.76,4.52,13.89,13.89,0,0,0,6.78,1.51,157.59,157.59,0,0,0,16.83-.75m-74.6-.5q14.56-6.79,23.61-14.32t9-10.55a19.18,19.18,0,0,0-.76-5.53,3.14,3.14,0,0,0-3.26-2.51,4.78,4.78,0,0,0-2.51,1,70.84,70.84,0,0,1-13.57,6q-7.53,2.52-22.11,2.51-15.57,0-24.11-11.3t-8.43-32.38V189.91c0-6,1.25-9.87,3.77-11.55s8-2.51,16.32-2.51h48.74c1.33,0,2.51-1.68,3.52-5a36.56,36.56,0,0,0,1.5-10.55,17.78,17.78,0,0,0-1.5-7c-1-2.34-2-3.52-3-3.52h-58.35q-6,0-9.29-2c-2.19-1.34-3.1-4-2.77-8l3-24.62c.33-3-.25-5-1.76-6a9.32,9.32,0,0,0-5.28-1.5,6.79,6.79,0,0,0-5,2c-1.34,1.34-3,2.85-5,4.52q-6,6-14.83,14.07a245.33,245.33,0,0,1-19.07,15.69q-10.3,7.8-20.85,14.32a7,7,0,0,0-2.26,2.26,5.54,5.54,0,0,0-1.26,2.77,19.38,19.38,0,0,0,2,8.28c1.33,2.85,3,4.27,5,4.28h4q9.54,0,12.81,1.75a6.09,6.09,0,0,1,3.27,5.78V299.94q0,30.15,14.82,45.72t42.47,15.58a73,73,0,0,0,31.15-6.78M1537.57,90.18a28.65,28.65,0,0,0,9-21.35,29.26,29.26,0,0,0-9-21.86,30.6,30.6,0,0,0-22.1-8.79A29.11,29.11,0,0,0,1494.11,47a29.68,29.68,0,0,0-8.79,21.86A30,30,0,0,0,1515.17,99h.3a30.51,30.51,0,0,0,22.1-8.8M1487.08,355q6.78-.75,13.82-1.26t15.57-.5q9,0,15.83.5t14.32,1.26q7.53.75,17.08.75,9,0,9-6a6.09,6.09,0,0,0-3.26-5.78,32.28,32.28,0,0,0-7.29-2.76q-11.57-3-17.08-7t-5.53-12.06V207.5q0-12.06,1.26-26.13t2.51-26.12q1.25-12.06,1.26-17.59,0-4-4-4c-1.68,0-4.36,1.18-8,3.52q-8,5-23.87,13.31t-37.94,13.3c-3,.33-4.52,2.5-4.52,6.53a9,9,0,0,0,1.26,5.27,5.66,5.66,0,0,0,3.76,2.26q12.56,2,17.59,11.31t5,24.37V322.05q0,9-5.52,12.56t-17.09,6.53a31.57,31.57,0,0,0-7.28,2.76,6.09,6.09,0,0,0-3.27,5.78,4.84,4.84,0,0,0,2.77,4.52,13.89,13.89,0,0,0,6.78,1.51,157.59,157.59,0,0,0,16.83-.75m-190.16-26.88a67.32,67.32,0,0,1-22.36-13.57q-10.79-9.54-17.79-26.37t-7-42.46q0-30.65,9-48.73t22.11-25.88q13.05-7.78,24.62-7.78A55.83,55.83,0,0,1,1354,189.66q7.27,11.82,7.29,23.36v98a64.23,64.23,0,0,1-20.86,15.32q-12.32,5.78-23.36,5.78-8.55,0-20.09-4m71.81,35.13a56.1,56.1,0,0,0,5.53-2.51,226.7,226.7,0,0,1,33.41-11.56,265.83,265.83,0,0,1,31.4-6c1.67,0,3.34-1.08,5-3.26a11,11,0,0,0,2.52-6.79c0-3.68-2.69-5.35-8-5q-8.55.51-13.57,1t-7.53.51q-6,0-8.55-7.54t-2.51-24.62l1-236.64q0-17.58,1-29.64t1.5-18.61c.33-4.35.49-7,.5-8q0-4-4-4a27.37,27.37,0,0,0-3,.25,16.82,16.82,0,0,0-5.53,2.26q-9,3.53-24.11,9.05a325.4,325.4,0,0,1-36.21,10.44c-3,1-4.51,3.18-4.52,6.53q0,6,5,7,11.57,2,17.59,9.55t6,27.13v66.82q0,10.56-3.52,10.55a42.91,42.91,0,0,1-6.53-1.5,97.35,97.35,0,0,0-15.32-3.77,107.41,107.41,0,0,0-18.85-1.76q-35.16,0-61.29,15.82A108.58,108.58,0,0,0,1216,201a117.87,117.87,0,0,0-14.07,56.77A110.58,110.58,0,0,0,1213.76,308a101.69,101.69,0,0,0,32.9,38.44q21.1,14.81,49.74,14.82,23.61,0,40.45-11.31t25.38-24.34v3a129,129,0,0,1-1,14.57q-1,8.55-1.51,14.57c0,.67.83,1.84,2.51,3.52s2.84,2.51,3.52,2.51a9.58,9.58,0,0,0,3-.5M961,356l19.34-1.5q9.54-.77,20.1-.76,20.09,0,40.69.5l41.2,1q20.6.5,40.2,1t37.68.51a6.45,6.45,0,0,0,5-2.26,21.53,21.53,0,0,0,3.52-5.78q3-8.54,6.78-20.6t6.28-23.11q2.51-11.06,2.51-16.58a11.82,11.82,0,0,0-1.25-5.78,4.49,4.49,0,0,0-4.27-2.26,5.06,5.06,0,0,0-4.52,1.25,23.79,23.79,0,0,0-4,4.78A204.41,204.41,0,0,1,1156.76,310a61,61,0,0,1-15.09,15.6,43.81,43.81,0,0,1-18.09,7.53,132.81,132.81,0,0,1-24.62,2h-39.69q-15.57,0-23.11-6.78T1028.62,304V208q0-8,3.77-10.55t11.81-2.51h46.72q10,0,15.33,6.53t8.29,19.59q4,14.58,12.06,14.57c1.67,0,2.93-.92,3.76-2.76a14,14,0,0,0,.76-7.29q0-3.5-.5-11c-.33-5-.59-10.13-.76-15.32s-.25-9.63-.25-13.32q0-4.51.5-12t1-14.57q.5-7,.5-10,0-4.53-2-6.79a6,6,0,0,0-4.52-2.26q-6,0-9.55,10.05-3.51,13.57-9,20.1t-20.1,6.53h-47.73a9.64,9.64,0,0,1-7-3,10.9,10.9,0,0,1-3-8V63.3A15.07,15.07,0,0,1,1036,50q7.27-4.77,13.82-4.77h56.27a49.88,49.88,0,0,1,19.09,3.51,42.73,42.73,0,0,1,15.07,10.55q4,4,7,12.31t6.54,18.34a17.53,17.53,0,0,0,3,4.52,5.41,5.41,0,0,0,4,1.51,7.56,7.56,0,0,0,4.77-1.76q2.26-1.76,2.26-6.78a144.07,144.07,0,0,0-2.76-25.87q-2.76-14.82-5.27-30.4a5.64,5.64,0,0,0-3.77-4.77,17.58,17.58,0,0,0-6.28-1.26c-1.35,0-5.78.25-13.32.75s-17,.76-28.38.76q-18.09.5-40.45.75t-42.45.25q-15.08,0-27.89-.5l-26.12-1q-13.32-.51-29.9-.51a21.57,21.57,0,0,0-9.54,1.76c-2.35,1.18-3.52,2.76-3.52,4.77q0,3.52,3.52,6t11,4q18.59,3.52,25.62,11.06t7,24.61v227.1q0,17.59-8.29,24.87t-26.88,11.3q-14.58,3-14.57,9.55,0,3,3.52,4.52a24.8,24.8,0,0,0,9.54,1.51q12.55,0,22.36-.76m-298.68-154q-.51-10,6.53-19.84a59.39,59.39,0,0,1,17.87-16.27,41.8,41.8,0,0,1,21.85-6.53q16.08,0,27.63,9.79t11.52,23.87a28.63,28.63,0,0,1-1,8.29,6.15,6.15,0,0,1-3.51,4.27,89,89,0,0,1-14.07,2q-7.53.49-20.6.5H668.4q-6,0-6-6m76.11,154.49a87.51,87.51,0,0,0,43-33.41q7-11,7-19.09,0-5.52-4.53-5.52a4.28,4.28,0,0,0-2.76,1,17.07,17.07,0,0,0-2.76,3,81.06,81.06,0,0,1-22.86,16.32,63.51,63.51,0,0,1-27.41,5.81,64.74,64.74,0,0,1-36.68-11,83.4,83.4,0,0,1-36.68-69.84q0-10.55,3-14.57t10-4h104q15.55,0,15.57-16.58,0-19.08-9.29-33.91a63.56,63.56,0,0,0-25.63-23.11q-16.34-8.29-36.93-8.29a92.14,92.14,0,0,0-50.74,14.82,110,110,0,0,0-36.93,39.44,108.84,108.84,0,0,0-13.81,54.26q0,32.67,12,57.53T659,348q20.85,13.81,48,13.82a90,90,0,0,0,31.4-5.28M369.76,355q6.78-.75,13.06-1.26t14.82-.5q9,0,14.82.5T424.52,355a143.62,143.62,0,0,0,16.33.75q10,0,10-6a6.31,6.31,0,0,0-3-5.52,30.09,30.09,0,0,0-8-3.52,55.07,55.07,0,0,1-12.56-6.28q-5.54-3.76-6-13.82v-105q0-13.07,2.27-18.84t8.79-10.81a45.42,45.42,0,0,1,18.84-8.54,94.9,94.9,0,0,1,20.35-2.51,37.4,37.4,0,0,1,19.17,5.48,49.5,49.5,0,0,1,15.83,15.32,38.62,38.62,0,0,1,6.57,21.9V319q0,10.56-6,15.08a40.06,40.06,0,0,1-13.06,6.53c-3.36,1.34-6,2.51-8,3.52s-3,2.84-3,5.52q0,6,10.55,6a139.12,139.12,0,0,0,16.83-.75q5.78-.75,11.06-1.26t14.82-.5q9.54,0,15.07.5T563,354.93a143.43,143.43,0,0,0,16.58.75q10.54,0,10.55-6a5.71,5.71,0,0,0-3-5.27,63.44,63.44,0,0,0-8-3.77,55.57,55.57,0,0,1-13.81-6.78q-6.43-4.28-6.43-14.27v-107q0-31.14-16.83-50.24t-42.46-19.16a83.49,83.49,0,0,0-30.39,5.53,131.06,131.06,0,0,0-25.63,13.06q-11.29,7.53-19.34,13.56a19.54,19.54,0,0,1-2.26-6.28,58.28,58.28,0,0,1-.76-10.8V60.79q0-20.59,1-31.9t2-16.58a46.39,46.39,0,0,0,1-7.79,5.12,5.12,0,0,0-1-3.27,3.68,3.68,0,0,0-3-1.25,16.26,16.26,0,0,0-4.52,1q-8,3.53-19.59,7.79t-23.34,7.8q-11.82,3.53-20.35,6c-2.69,1-4,3.18-4,6.53q0,6.54,4.52,7.54Q367,38.66,371,49a65.4,65.4,0,0,1,4,23.87V320.59q0,10.56-6.53,14.07a88.55,88.55,0,0,1-14.07,6q-11.57,4-11.55,9c0,4,3.34,6,10.05,6a157.59,157.59,0,0,0,16.83-.75m-246.93.5q11-.75,21.6-1.26t22.61-.5q11,0,21.1.5t20.6,1.26q10.54.75,23.11.75a24.85,24.85,0,0,0,9.55-1.5q3.51-1.52,3.51-4.53a6.45,6.45,0,0,0-3.76-6,42.9,42.9,0,0,0-10.81-3.52q-19.09-4-28.89-12.06t-9.79-25.12v-199q0-26.12,1.76-37.93t7.28-15.07q5.52-3.27,15.58-3.27h42.2q23.61,0,33.91,7t13.32,20.09a85,85,0,0,0,5,15.33c1.67,3.51,3.85,5.26,6.53,5.27s4.68-1.84,6-5.53a33.42,33.42,0,0,0,2-11.55v-7A81.72,81.72,0,0,1,326,59.46a70.34,70.34,0,0,1,2.52-10.3q1.75-5.53,3.76-15.08c.33-1.67.67-3.84,1-6.53a54.74,54.74,0,0,0,.5-6,24.9,24.9,0,0,0-1-7.28q-1-3.27-3-3.27a13.85,13.85,0,0,0-10.55,4.27,38.89,38.89,0,0,1-11.05,7.79,74.76,74.76,0,0,1-16.83,5,137.66,137.66,0,0,1-25.88,2l-181.37.51a92.82,92.82,0,0,1-20.6-2.52q-11.05-2.51-15.07-7-2.52-4-6.79-10.3c-2.84-4.18-5.11-6.28-6.78-6.28a10.88,10.88,0,0,0-6,2q-3,2-4,10.05a182.17,182.17,0,0,1-5.52,28.64A172.79,172.79,0,0,1,7.76,73.35a23,23,0,0,0-3,11.06,9.33,9.33,0,0,0,1.25,5,4.15,4.15,0,0,0,3.77,2q4.53,0,9-3.77a47.85,47.85,0,0,0,8.29-9q3.78-5.28,5.78-8.29Q39.38,59.79,52.2,54a62.32,62.32,0,0,1,25.87-5.78H97.66q10,0,17.59.25a65.27,65.27,0,0,1,13.56,1.76c2.34.68,4.19,2.43,5.53,5.28s2.34,8,3,15.57,1,18.68,1,33.41v199q0,17.6-9.55,25.62t-28.63,11.56a40.08,40.08,0,0,0-11.06,3.77c-2.68,1.5-4,3.44-4,5.77s1.34,3.95,4,4.78a32.43,32.43,0,0,0,9.55,1.25q13.06,0,24.12-.75"/></svg>