<svg id="Ebene_2" data-name="Ebene 2" xmlns="http://www.w3.org/2000/svg" viewBox="0 0 2572.53 1143.15"><defs><style>.cls-1{fill:#e4200e;}</style></defs><path class="cls-1" d="M2563.24,1133.6a31.34,31.34,0,0,0,9.3-22.61q0-14.06-9.3-23.36a32.46,32.46,0,0,0-45.47,0q-9.54,9.3-9.54,23.36a32.15,32.15,0,0,0,55,22.61m-211.27.76q11.05-.77,21.36-1.26t22.35-.5q11.05,0,20.85.5t20.35,1.26q10.56.75,23.11.75,6,0,9.3-1.51c2.2-1,3.29-2.51,3.26-4.52a6.52,6.52,0,0,0-3.51-6c-2.35-1.33-6-2.51-11.06-3.51q-18.58-4-28.13-11.56t-9.55-24.12V856.77q0-17.07,7.79-24.12t27.38-11.55a36.33,36.33,0,0,0,10.8-3.77,7,7,0,0,0,3.77-6.28,4.73,4.73,0,0,0-3.52-4.77A29.34,29.34,0,0,0,2457,805q-12.57,0-22.36.5t-19.09.76q-9.3.26-19.85.25-11.05,0-20.6-.5l-19.84-1q-10.3-.49-23.36-.5a23.08,23.08,0,0,0-9,1.51,5.16,5.16,0,0,0-3.51,5q0,7,14.57,10,19.08,4,26.12,11.3t7,24.37v227.15q0,17.09-9.05,24.62t-28.13,11.06q-14.58,3-14.57,9.54c0,2.35,1.25,3.94,3.77,4.77a29.53,29.53,0,0,0,9.29,1.26q12.55,0,23.61-.75m-188.65-11.81q20.85-17.58,20.85-46.72,0-24.61-14.32-39.44T2125.34,1005q-18.09-10-26.38-18.84a28.77,28.77,0,0,1-8.29-20.34q0-13.57,9.55-20.85a34.59,34.59,0,0,1,21.6-7.29q14.07,0,23.87,9T2162,973.29a7.72,7.72,0,0,0,4.27,4,14.88,14.88,0,0,0,6.28,1.51q6.53,0,6.53-4a117.24,117.24,0,0,0-2.76-25.12q-2.68-12.52-6.69-18-5-3.51-16.33-6.78t-27.38-3.27q-22.61,0-38.68,8t-24.87,21.61q-8.8,13.56-8.8,31.15a54.08,54.08,0,0,0,6,25.87,67.13,67.13,0,0,0,17.59,20.6,236.92,236.92,0,0,0,27.63,18.84q19.59,12.06,29.14,21.35a32.14,32.14,0,0,1,.5,45.22q-9,9.3-23.11,9.3-16.08,0-29.64-12.06t-21.1-35.67a5.25,5.25,0,0,0-2.77-3.27,10.74,10.74,0,0,0-5.27-1.26q-7.53,0-7.54,5a243.74,243.74,0,0,0,1.51,25.62q1.52,14.07,5,20.6a74.82,74.82,0,0,0,24.87,13.06,100.38,100.38,0,0,0,30.4,4.52q35.67,0,56.52-17.58M1878.2,1106.9a67.13,67.13,0,0,1-22.36-13.56Q1845,1083.8,1838,1067t-7-42.45q0-30.64,9-48.74t22.1-25.87q13.07-7.78,24.62-7.79a55.84,55.84,0,0,1,48.48,26.38q7.29,11.81,7.29,23.36v98a64.22,64.22,0,0,1-20.85,15.33q-12.32,5.77-23.36,5.77-8.55,0-20.1-4m71.86,35.21a52.75,52.75,0,0,0,5.52-2.51A227.83,227.83,0,0,1,1989,1128.1a265.83,265.83,0,0,1,31.4-6q2.52,0,5-3.27a11,11,0,0,0,2.51-6.78q0-5.52-8-5-8.55.51-13.56,1c-3.35.34-5.87.5-7.54.5q-6,0-8.54-7.53t-2.51-24.62l1-236.64q0-17.58,1-29.64t1.5-18.59c.33-4.35.51-7,.51-8,0-2.68-1.35-4-4-4a27.37,27.37,0,0,0-3,.25,16.76,16.76,0,0,0-5.52,2.26q-9,3.53-24.12,9a322.52,322.52,0,0,1-36.17,10.55q-4.53,1.51-4.53,6.54,0,6,5,7,11.55,2,17.58,9.55t6,27.13v66.82q0,10.54-3.51,10.55a43.06,43.06,0,0,1-6.54-1.51,99.6,99.6,0,0,0-15.32-3.77,107.3,107.3,0,0,0-18.84-1.76q-35.17,0-61.3,15.83a108.51,108.51,0,0,0-40.19,42,117.77,117.77,0,0,0-14.07,56.78A110.79,110.79,0,0,0,1795,1087a101.53,101.53,0,0,0,32.91,38.43q21.11,14.82,49.74,14.82,23.61,0,40.44-11.3t25.37-24.37v3a126.74,126.74,0,0,1-1,14.57q-1,8.55-1.51,14.57c0,.67.84,1.83,2.51,3.51s2.85,2.52,3.52,2.52a9.59,9.59,0,0,0,3-.51m-415.5-8.29q7-.75,13.57-1.25t15.07-.5q9,0,14.82.5t12.56,1.25a155,155,0,0,0,16.83.76,13.61,13.61,0,0,0,7-1.51,4.94,4.94,0,0,0,2.51-4.52q0-5.52-11-9a77.68,77.68,0,0,1-13.57-5.28q-6.54-3.26-6.53-13.31V980.37a17.37,17.37,0,0,1,1-5.53,12.73,12.73,0,0,1,3-5A87.35,87.35,0,0,1,1611.62,957q11.81-4.77,27.39-4.77,18.08.51,29.39,12.06T1679.7,997v104q0,10.05-6.53,13.06a136.85,136.85,0,0,1-14.07,5.53,52,52,0,0,0-7.53,3.51,6.52,6.52,0,0,0-3.52,6,4.32,4.32,0,0,0,3.52,4.52,22.56,22.56,0,0,0,6,1,155,155,0,0,0,16.83-.76q6.78-.75,13.31-1.25t15.07-.5q9,0,15.33.5t13.06,1.25a155,155,0,0,0,16.83.76,21.25,21.25,0,0,0,6.28-1,4.27,4.27,0,0,0,3.27-4.52,6.53,6.53,0,0,0-3.52-6,52.65,52.65,0,0,0-7.54-3.51q-7.53-2.52-14.32-5.53t-6.78-13.06V992.42q0-31.14-16.58-50.74t-41.7-19.6q-23.62,0-42.45,8.55t-36.43,25.12a4.79,4.79,0,0,1-.75-2.52,31.47,31.47,0,0,1-.25-4,141.61,141.61,0,0,1,1.25-17.09,134,134,0,0,0,1.26-13.56,6.3,6.3,0,0,0-.75-3.27,3,3,0,0,0-2.77-1.25,6.6,6.6,0,0,0-3.26,1c-1.18.68-2.26,1.34-3.27,2a187.16,187.16,0,0,1-26.38,14.57,191.17,191.17,0,0,1-31.9,11q-4.52.51-4.52,7a7,7,0,0,0,1.51,4.77,6.69,6.69,0,0,0,3.51,2.26q12.06,3,14.82,11.81a72,72,0,0,1,2.77,21.35v110.53q0,10.07-6.53,13.57a64.72,64.72,0,0,1-14.07,5.53,44.76,44.76,0,0,0-8.29,3.26,6.09,6.09,0,0,0-3.27,5.78,4.83,4.83,0,0,0,3,4.52,15.52,15.52,0,0,0,7,1.51,162.42,162.42,0,0,0,17.08-.76m-174.59-27.13q-7.29-6.27-7.28-19.84,0-11.05,9-20.35t31.65-17.84a40.09,40.09,0,0,1,5.53-2,14.47,14.47,0,0,1,3-.5c2,0,3.35.76,4,2.26s.84,3.94.51,7.29l-1,28.64a51.51,51.51,0,0,1-1.76,11.8,15.83,15.83,0,0,1-3.76,6.28,33,33,0,0,1-10.3,7.79c-3.86,1.85-8.63,2.76-14.32,2.76q-8,0-15.33-6.28m19.35,26.88q14.57-6.52,31.15-20.6h1.5q15.07,27.13,40.2,27.13a42.93,42.93,0,0,0,18.84-4.77,68.17,68.17,0,0,0,18.34-13.31q7-6.53,7-12.56a5,5,0,0,0-1.76-4,6.35,6.35,0,0,0-4.27-1.51c-1,0-2.18.67-3.52,2q-6.52,6-18.08,6-7.55,0-12.56-7t-4.53-18.09L1454,973.26q1-22.6-12.31-36.93T1407.22,922q-10.54,0-24.37,4.53a148.06,148.06,0,0,0-28.13,12.81,167.15,167.15,0,0,0-26.38,18.84q-10.54,9-15.82,17.84t-5.28,16.83a6.06,6.06,0,0,0,5.57,6.53,5.13,5.13,0,0,0,1,0q6,0,14.82-3.52a96.43,96.43,0,0,0,15.58-7.79q6.78-4.26,6.78-7.28c0-1.34-.09-3.1-.25-5.28s-.25-4.1-.25-5.78a36.64,36.64,0,0,1,.75-7.53,9.34,9.34,0,0,1,3.27-5.53,45.83,45.83,0,0,1,11.8-6.28,40.32,40.32,0,0,1,14.32-2.76q13.58,0,20.6,9t6.53,22.61l-1,30.65q-.51,10.05-2.51,13.31t-12.06,7.29l-48.74,20.6q-19.59,8-28.88,18.08t-9.3,26.63q0,10.07,6.53,20.35a57.33,57.33,0,0,0,16.58,17.08q10,6.78,20.6,6.78a73.09,73.09,0,0,0,30.15-6.53m-324.06.25q7-.75,13.57-1.25t15.07-.5q9,0,14.82.5t12.56,1.25a155,155,0,0,0,16.83.76,13.61,13.61,0,0,0,7-1.51,4.94,4.94,0,0,0,2.51-4.52q0-5.52-11-9a77.68,77.68,0,0,1-13.57-5.28q-6.54-3.26-6.53-13.31V980.37a17.37,17.37,0,0,1,1-5.53,12.5,12.5,0,0,1,3-5A87.35,87.35,0,0,1,1132.14,957q11.8-4.77,27.39-4.77,18.08.51,29.39,12.06t11.3,32.66v104q0,10.05-6.53,13.06a136.85,136.85,0,0,1-14.07,5.53,52,52,0,0,0-7.53,3.51,6.52,6.52,0,0,0-3.52,6,4.32,4.32,0,0,0,3.52,4.52,22.56,22.56,0,0,0,6,1,155,155,0,0,0,16.83-.76q6.78-.75,13.31-1.25t15.07-.5q9,0,15.33.5t13.06,1.25a155,155,0,0,0,16.83.76,21.25,21.25,0,0,0,6.28-1,4.27,4.27,0,0,0,3.27-4.52,6.53,6.53,0,0,0-3.52-6,52.65,52.65,0,0,0-7.54-3.51q-7.53-2.52-14.31-5.53t-6.79-13.06V992.42q0-31.14-16.58-50.74t-41.7-19.6q-23.62,0-42.45,8.55t-36.43,25.12a4.79,4.79,0,0,1-.75-2.52,31.47,31.47,0,0,1-.25-4,141.61,141.61,0,0,1,1.25-17.09,134,134,0,0,0,1.26-13.56,6.3,6.3,0,0,0-.75-3.27,3,3,0,0,0-2.77-1.25,6.6,6.6,0,0,0-3.26,1c-1.18.68-2.26,1.34-3.27,2a187.16,187.16,0,0,1-26.38,14.57,191.17,191.17,0,0,1-31.9,11c-3,.34-4.51,2.67-4.52,7a7,7,0,0,0,1.51,4.77,6.69,6.69,0,0,0,3.51,2.26q12.06,3,14.82,11.81a72,72,0,0,1,2.77,21.35v110.53q0,10.07-6.53,13.57a64.72,64.72,0,0,1-14.07,5.53,44.76,44.76,0,0,0-8.29,3.26,6.07,6.07,0,0,0-3.27,5.78,4.83,4.83,0,0,0,3,4.52,15.52,15.52,0,0,0,7,1.51,162.42,162.42,0,0,0,17.08-.76M972.56,869a28.65,28.65,0,0,0,9-21.35,29.26,29.26,0,0,0-9-21.86A30.62,30.62,0,0,0,950.45,817a29.11,29.11,0,0,0-21.36,8.79,29.67,29.67,0,0,0-8.78,21.86,30,30,0,0,0,29.86,30.14h.28A30.54,30.54,0,0,0,972.56,869m-50.49,264.77c4.52-.5,9.11-.91,13.81-1.25s9.87-.5,15.58-.5q9,0,15.82.5t14.32,1.25a171,171,0,0,0,17.08.76q9.06,0,9.05-6a6.09,6.09,0,0,0-3.27-5.78,31.74,31.74,0,0,0-7.28-2.76q-11.58-3-17.09-7c-3.69-2.67-5.52-6.69-5.52-12V986.39q0-12,1.25-26.12t2.83-26.11c.82-8,1.26-13.89,1.26-17.58,0-2.68-1.35-4-4-4-1.69,0-4.37,1.18-8,3.52q-8,5-23.86,13.31t-37.93,13.31c-3,.34-4.52,2.52-4.52,6.54a9,9,0,0,0,1.25,5.27,5.72,5.72,0,0,0,3.76,2.26q12.55,2,17.59,11.31t5,24.36V1101c0,6-1.85,10.22-5.53,12.56s-9.38,4.52-17.09,6.53a31,31,0,0,0-7.27,2.76,6.05,6.05,0,0,0-3.27,5.78,4.83,4.83,0,0,0,2.76,4.52,13.93,13.93,0,0,0,6.79,1.51,155,155,0,0,0,16.83-.76M732.25,1107a66.93,66.93,0,0,1-22.35-13.56q-10.81-9.54-17.84-26.38t-7-42.45q0-30.64,9-48.74T716.17,950q13.05-7.78,24.61-7.79a55.89,55.89,0,0,1,48.49,26.38q7.28,11.8,7.28,23.36v98a64.18,64.18,0,0,1-20.9,15.26q-12.31,5.77-23.36,5.77-8.55,0-20.1-4m71.87,35.17a52.91,52.91,0,0,0,5.53-2.51A227.83,227.83,0,0,1,843,1128.1a265.83,265.83,0,0,1,31.4-6q2.51,0,5-3.27a11,11,0,0,0,2.51-6.78q0-5.52-8-5c-5.69.34-10.22.68-13.56,1s-5.86.5-7.54.5q-6,0-8.54-7.53t-2.51-24.62l1-236.64q0-17.58,1-29.64t1.51-18.59c.33-4.35.5-7,.5-8q0-4-4-4a25.11,25.11,0,0,0-3,.25,16.6,16.6,0,0,0-5.53,2.26q-9,3.53-24.12,9A322.52,322.52,0,0,1,773,801.59c-3,1-4.52,3.19-4.52,6.54q0,6,5,7,11.55,2,17.59,9.55t6,27.13v66.82q0,10.54-3.51,10.55a42.94,42.94,0,0,1-6.53-1.51,99.73,99.73,0,0,0-15.33-3.77,107.3,107.3,0,0,0-18.84-1.76q-35.17,0-61.29,15.83a108.6,108.6,0,0,0-40.2,42,117.87,117.87,0,0,0-14.06,56.78,110.94,110.94,0,0,0,11.8,50.24A101.53,101.53,0,0,0,682,1125.42q21.1,14.82,49.74,14.82,23.61,0,40.45-11.3t25.37-24.37v3a129,129,0,0,1-1,14.57q-1,8.55-1.5,14.57c0,.67.83,1.83,2.51,3.51s2.84,2.52,3.51,2.52a9.59,9.59,0,0,0,3-.51m-322-8.29q7-.75,13.56-1.25t15.08-.5a209,209,0,0,1,23.86,1.25,228.36,228.36,0,0,0,25.88,1.26c6.35,0,9.54-2,9.54-6a5.72,5.72,0,0,0-3-5.28,36.37,36.37,0,0,0-8.54-3.26q-13.08-4-19.6-8.54a14.43,14.43,0,0,1-6.53-12.56V1004.6q0-26.11,10.55-35.17t23.11-9a21.89,21.89,0,0,1,8.29,1.76q4.26,1.75,8.29,3.77l8.54,3.76a18.88,18.88,0,0,0,7.54,1.76q6,0,11.3-5.27a41.94,41.94,0,0,0,8.55-12.56q3.18-7.49,3.18-13a16.49,16.49,0,0,0-7-13.81q-7-5.28-20.1-5.28-10,0-21.1,5.28a91.9,91.9,0,0,0-20.8,13.81,145.12,145.12,0,0,0-17.84,18.59c-.67,0-1-.66-1-2q0-7.53.5-15.57t.75-14.57q.26-6.52.25-8.54,0-4-3.51-4a11.64,11.64,0,0,0-3.52,1,31.45,31.45,0,0,0-5.53,3q-10,5.53-26.12,12.81a219.17,219.17,0,0,1-30.15,11.3q-5,1.51-5,7A7.76,7.76,0,0,0,467,957.2q11.55,2.52,15.07,11.31t3.52,21.35v110.53q0,7.54-4.28,12.06t-14.82,7a45,45,0,0,0-8.29,3.26,6.06,6.06,0,0,0-3.26,5.78,4.85,4.85,0,0,0,2.76,4.52,15.18,15.18,0,0,0,7.29,1.51,162.42,162.42,0,0,0,17.08-.76M302.65,980.87q-.51-10.05,6.53-19.85A59.7,59.7,0,0,1,327,944.69a42,42,0,0,1,21.86-6.53q16.06,0,27.63,9.8t11.56,23.86a28.63,28.63,0,0,1-1,8.29,6.18,6.18,0,0,1-3.52,4.28,89,89,0,0,1-14.06,2q-7.55.51-20.6.51H308.65q-6,0-6-6m76.11,154.49a86.91,86.91,0,0,0,25.12-14.07A87.92,87.92,0,0,0,421.72,1102q7-11,7-19.09c0-3.68-1.51-5.53-4.52-5.53a4.28,4.28,0,0,0-2.76,1,17.13,17.13,0,0,0-2.77,3,80.75,80.75,0,0,1-22.86,16.33,63.71,63.71,0,0,1-27.38,5.78,64.54,64.54,0,0,1-36.67-11.06,83.4,83.4,0,0,1-36.68-69.83q0-10.56,3-14.57t10-4h104q15.57,0,15.58-16.58,0-19.09-9.3-33.91a63.47,63.47,0,0,0-25.62-23.11q-16.33-8.29-36.93-8.3a92.15,92.15,0,0,0-50.74,14.83,110,110,0,0,0-36.93,39.44q-13.83,24.61-13.82,54.26,0,32.65,12.06,57.52t32.91,38.69q20.83,13.82,48,13.82a90,90,0,0,0,31.4-5.28m-336.61-1,21.35-1.51c7-.5,14.23-.75,21.61-.75q10,0,18.58.75t18.34,1.51q9.8.75,22.86.75a23.11,23.11,0,0,0,9.05-1.51q3.51-1.5,3.51-4.52a6.52,6.52,0,0,0-3.51-6c-2.35-1.33-6-2.51-11.06-3.51q-19.59-3.51-26.88-12.06t-7.78-24.62q-1-24.62-1.26-48.74t-.25-46.72q0-6.53,3.26-9.3a14.92,14.92,0,0,1,8.29-3.26q8-.49,15.83-.5h15.83q6,0,12.31.25c4.2.17,8.29.25,12.31.25a24.71,24.71,0,0,1,13.81,4.52q6.78,4.53,10.3,17.08a26.4,26.4,0,0,0,4,7.79c2,2.85,4.51,4.28,7.54,4.27a3.91,3.91,0,0,0,4-2.76,23.88,23.88,0,0,0,1-7.79q-1-11-1.51-18.34t-.5-15.82a132.87,132.87,0,0,1,.76-13.82q.75-7.28,1.25-16.83a7.86,7.86,0,0,0-1.76-6.53,6.44,6.44,0,0,0-4.77-2.52q-2,0-5,3a29.67,29.67,0,0,0-4.53,5.53,39.58,39.58,0,0,1-10.8,16.07q-7.29,6.54-19.34,6.53-9.55,0-24.87.51t-29.89.5a6,6,0,0,1-5.78-3.27,16,16,0,0,1-1.76-7.78V849.78c.33-7,1.84-12.89,4.52-17.59s8-7,16.08-7H182A62,62,0,0,1,201.07,828a37,37,0,0,1,15.58,10.3,46.34,46.34,0,0,1,7.79,12.56,122.08,122.08,0,0,1,5.77,17.08,10.57,10.57,0,0,0,3.52,5,8,8,0,0,0,5,2q5,0,5-10.55,0-5-.25-15.58t-.76-22.1q-.5-11.56-1.5-19.1a5.65,5.65,0,0,0-4-4.77,19.72,19.72,0,0,0-6.53-1.26,133.89,133.89,0,0,0-23.37,2.52,176.66,176.66,0,0,1-31.4,2.51H103.65q-15.06,0-27.63-.5l-25.37-1q-12.81-.49-29.39-.5a22.16,22.16,0,0,0-9.3,1.76q-3.77,1.75-3.76,4.77,0,3.52,3.51,6c2.34,1.68,6.2,3,11.56,4q18.58,3.52,24.37,14.07t5.77,31.65v216.55q0,17.6-7,25.12t-26.13,11.06q-14.57,3-14.57,9.54a4.71,4.71,0,0,0,3.52,4.77,27.19,27.19,0,0,0,9,1.26q13.07,0,23.87-.75"/><path class="cls-1" d="M2466.57,655.74a104.26,104.26,0,0,1,10.89-.59q20.13,0,33.16.59t18.48.59c2.21,0,3.55-1.18,4-3.55a52.7,52.7,0,0,0,2-6.63c.71-2.84,1.49-5.84,2.37-9s1.57-6,2.13-8.41a30.23,30.23,0,0,0,.83-4.62c0-1.42-.83-2.4-2.49-3a2.76,2.76,0,0,0-3.67,1.3q-4,6.17-7,10.54a50.66,50.66,0,0,1-6,7.46,17,17,0,0,1-5.45,4.15,13.45,13.45,0,0,1-5.68,1.3h-23.21c-1.42,0-2.37-.31-2.84-1s-.4-1.5.23-2.6l43.82-67.5a51,51,0,0,1,4.62-6.4q2.25-2.61,4.62-5.92a1.8,1.8,0,0,0,.36-1.9,6.77,6.77,0,0,0-1.07-2.13,2.26,2.26,0,0,0-1.9-.94l-22.61.47q-11.51.24-23.34.24c-1.1,0-2.48,0-4.14.11s-3.36.12-5.1.12q-3.32,0-6.39-.23a8.11,8.11,0,0,1-4.26-1.19q-2.61-2.13-4-2.13a4.41,4.41,0,0,0-2.48,1.3,4.25,4.25,0,0,0-1.55,3.44,50.59,50.59,0,0,1-.94,8.76q-1,5.21-2.14,10c-.79,3.16-1.42,5.52-1.89,7.1-.47,1.27.16,2.21,1.89,2.85s3.08.47,4-.48q.94-1.41,2.49-3.67c1-1.49,2.13-3,3.32-4.62s2.28-3.08,3.31-4.5a29,29,0,0,1,3-3.55,17.91,17.91,0,0,1,4.39-3.08,12.63,12.63,0,0,1,6-1.42l19.66.71c1.9,0,2.84.28,2.84.83a2.64,2.64,0,0,1-.47,1.54q-6.63,10.65-12.08,19.3t-10.42,16.1q-5,7.47-10.06,15t-11,16.34q-1.66,2.13-3.79,5.33c-1.42,2.13-2.65,4-3.67,5.68a8.57,8.57,0,0,0-1.54,3.44,5.13,5.13,0,0,0,1.54,3.19c1,1.19,1.85,1.78,2.48,1.78q3.09,0,8.77-.59m-128.37-.24c2.2-.24,4.34-.43,6.39-.59s4.42-.23,7.11-.23,5.17.07,7,.23,3.79.35,5.93.59a75,75,0,0,0,7.93.36,6.47,6.47,0,0,0,3.32-.71,2.33,2.33,0,0,0,1.18-2.13q0-2.61-5.21-4.27a35.41,35.41,0,0,1-6.39-2.49c-2.06-1-3.08-3.11-3.08-6.27V583.16a8,8,0,0,1,.47-2.61,6,6,0,0,1,1.42-2.37,41.68,41.68,0,0,1,10.3-6,34.53,34.53,0,0,1,12.92-2.25,19.33,19.33,0,0,1,13.85,5.69q5.32,5.45,5.29,15.34v49q0,4.74-3.08,6.16a62.84,62.84,0,0,1-6.63,2.6,24.39,24.39,0,0,0-3.55,1.66,3,3,0,0,0-1.66,2.84,2,2,0,0,0,1.66,2.14,11,11,0,0,0,2.84.47,74.9,74.9,0,0,0,7.93-.36c2.13-.24,4.22-.43,6.28-.59s4.41-.23,7.11-.23,5.24.07,7.22.23,4,.35,6.15.59a75.21,75.21,0,0,0,7.94.36,10.5,10.5,0,0,0,3-.47,2,2,0,0,0,1.54-2.14,3.09,3.09,0,0,0-1.65-2.84,25.6,25.6,0,0,0-3.56-1.66c-2.37-.79-4.62-1.65-6.75-2.6s-3.2-3-3.2-6.16V588.83q0-14.69-7.81-23.92a24.7,24.7,0,0,0-19.66-9.24,47.91,47.91,0,0,0-20,4,63.26,63.26,0,0,0-17.17,11.84,2.24,2.24,0,0,1-.36-1.18,17.29,17.29,0,0,1-.11-1.9,64.8,64.8,0,0,1,.59-8q.59-4.74.59-6.4a3,3,0,0,0-.35-1.54,1.41,1.41,0,0,0-1.3-.59,3.16,3.16,0,0,0-1.55.47c-.55.32-1.06.64-1.53,1a88.65,88.65,0,0,1-12.44,6.87,91.5,91.5,0,0,1-15,5.21c-1.42.16-2.13,1.26-2.13,3.32a3.36,3.36,0,0,0,.71,2.24,3,3,0,0,0,1.66,1.07q5.68,1.43,7,5.57a34,34,0,0,1,1.31,10.07v52.1q0,4.74-3.08,6.4a31,31,0,0,1-6.63,2.6,21.18,21.18,0,0,0-3.91,1.54,2.85,2.85,0,0,0-1.54,2.73,2.26,2.26,0,0,0,1.42,2.13,7.46,7.46,0,0,0,3.32.71,77.18,77.18,0,0,0,8.05-.36m-83.85-72.12a14.6,14.6,0,0,1,3.08-9.36,28.09,28.09,0,0,1,8.41-7.69,19.7,19.7,0,0,1,10.3-3.08,19.48,19.48,0,0,1,13,4.62,14.22,14.22,0,0,1,5.39,11.27,13.85,13.85,0,0,1-.47,3.9,2.93,2.93,0,0,1-1.66,2,42.45,42.45,0,0,1-6.63,1c-2.37.16-5.61.23-9.72.23h-18.94a2.52,2.52,0,0,1-2.85-2.12,2.89,2.89,0,0,1,0-.72m35.88,72.83a41.13,41.13,0,0,0,11.85-6.63,41.66,41.66,0,0,0,8.41-9.12q3.32-5.21,3.31-9c0-1.73-.71-2.6-2.13-2.6a2.07,2.07,0,0,0-1.3.47,7.62,7.62,0,0,0-1.3,1.42,37.93,37.93,0,0,1-10.78,7.7,30,30,0,0,1-12.91,2.73,30.42,30.42,0,0,1-17.29-5.22,39.36,39.36,0,0,1-17.29-32.92q0-5,1.42-6.87c.95-1.26,2.52-1.89,4.74-1.89h49q7.34,0,7.34-7.82a29.43,29.43,0,0,0-4.39-16,29.91,29.91,0,0,0-12.07-10.89,37.92,37.92,0,0,0-17.41-3.91,43.46,43.46,0,0,0-23.92,7,51.93,51.93,0,0,0-17.41,18.6,51.31,51.31,0,0,0-6.51,25.58q0,15.39,5.68,27.12a44.6,44.6,0,0,0,15.51,18.13,40.08,40.08,0,0,0,22.62,6.52,42.43,42.43,0,0,0,14.8-2.49m-135.36-13.38a31.65,31.65,0,0,1-10.54-6.39,33.41,33.41,0,0,1-8.4-12.44q-3.32-7.92-3.32-20,0-14.44,4.26-23t10.43-12.2a23,23,0,0,1,11.6-3.67,26.33,26.33,0,0,1,22.85,12.44,20.81,20.81,0,0,1,3.44,11v46.19a30.18,30.18,0,0,1-9.83,7.22,26,26,0,0,1-11,2.73,29.57,29.57,0,0,1-9.48-1.9m33.87,16.58a25.44,25.44,0,0,0,2.61-1.18,105.87,105.87,0,0,1,15.75-5.45,125.85,125.85,0,0,1,14.8-2.84,3.16,3.16,0,0,0,2.37-1.54,5.14,5.14,0,0,0,1.19-3.2c0-1.74-1.27-2.52-3.79-2.37s-4.8.32-6.4.48-2.76.23-3.55.23q-2.85,0-4-3.55t-1.18-11.61l.47-111.55c0-5.53.15-10.19.48-14s.55-6.71.71-8.76.23-3.32.23-3.79a1.68,1.68,0,0,0-1.43-1.9,1.77,1.77,0,0,0-.46,0,7,7,0,0,0-1.42.12,8,8,0,0,0-2.61,1.07q-4.26,1.65-11.37,4.26a150.64,150.64,0,0,1-17.05,5,2.94,2.94,0,0,0-2.13,3.07c0,1.9.79,3,2.37,3.32a13,13,0,0,1,8.29,4.5q2.84,3.55,2.84,12.79V554q0,5-1.66,5a21.81,21.81,0,0,1-3.08-.71,46.25,46.25,0,0,0-7.23-1.78,49.79,49.79,0,0,0-8.87-.83q-16.59,0-28.9,7.46a51.16,51.16,0,0,0-18.95,19.78,55.62,55.62,0,0,0-6.63,26.76,52.28,52.28,0,0,0,5.5,23.71,47.82,47.82,0,0,0,15.52,18.11q9.95,7,23.45,7,11.13,0,19.06-5.34a42.07,42.07,0,0,0,12-11.48v1.42a60.68,60.68,0,0,1-.48,6.87c-.31,2.68-.56,5-.71,6.87,0,.31.4.87,1.19,1.66s1.34,1.18,1.65,1.18a4.32,4.32,0,0,0,1.42-.24m-195.87-3.91c2.21-.24,4.34-.43,6.39-.59s4.42-.23,7.11-.23,5.17.07,7,.23,3.79.35,5.92.59a74.9,74.9,0,0,0,7.93.36,6.47,6.47,0,0,0,3.32-.71,2.31,2.31,0,0,0,1.18-2.13q0-2.61-5.21-4.27a35.8,35.8,0,0,1-6.4-2.49q-3.07-1.53-3.07-6.27V583.16a8,8,0,0,1,.47-2.61,6,6,0,0,1,1.42-2.37,41.55,41.55,0,0,1,10.31-6,34.47,34.47,0,0,1,12.9-2.25q8.53.24,13.86,5.69t5.33,15.39v49q0,4.74-3.08,6.16a62.84,62.84,0,0,1-6.63,2.6,25.6,25.6,0,0,0-3.56,1.66,3.06,3.06,0,0,0-1.65,2.84,2.05,2.05,0,0,0,1.65,2.14,11,11,0,0,0,2.85.47,74.9,74.9,0,0,0,7.93-.36c2.14-.24,4.22-.43,6.28-.59s4.42-.23,7.1-.23c2.85,0,5.25.07,7.23.23s4,.35,6.16.59a74.9,74.9,0,0,0,7.93.36,10.5,10.5,0,0,0,3-.47,2,2,0,0,0,1.54-2.14,3.07,3.07,0,0,0-1.66-2.84,26,26,0,0,0-3.55-1.66c-2.37-.79-4.62-1.65-6.75-2.6s-3.2-3-3.2-6.16V588.83q0-14.69-7.81-23.92a24.7,24.7,0,0,0-19.66-9.24,47.75,47.75,0,0,0-20,4,63.31,63.31,0,0,0-17.18,11.84,2.32,2.32,0,0,1-.35-1.18,15,15,0,0,1-.12-1.9,66.81,66.81,0,0,1,.59-8,62.37,62.37,0,0,0,.59-6.4,3,3,0,0,0-.35-1.54,1.41,1.41,0,0,0-1.31-.59,3.09,3.09,0,0,0-1.53.47c-.56.32-1.07.64-1.55,1a89.13,89.13,0,0,1-12.5,6.84,91.5,91.5,0,0,1-15,5.21c-1.42.16-2.13,1.26-2.13,3.32a3.24,3.24,0,0,0,.71,2.24A3,3,0,0,0,1987,572q5.67,1.43,7,5.57a34.27,34.27,0,0,1,1.3,10.07v52.1q0,4.74-3.08,6.4a31,31,0,0,1-6.64,2.6,21.82,21.82,0,0,0-3.9,1.54,2.85,2.85,0,0,0-1.54,2.73,2.26,2.26,0,0,0,1.42,2.13,7.42,7.42,0,0,0,3.31.71,77.5,77.5,0,0,0,8.06-.36m-90.6-12a46.55,46.55,0,0,1-10.3-17,63.5,63.5,0,0,1-3.79-21.79,115.26,115.26,0,0,1,1.43-18.83,29,29,0,0,1,5.92-14.09,20.29,20.29,0,0,1,7.93-6,26,26,0,0,1,9.83-1.77,21.76,21.76,0,0,1,15.63,6.4,43.57,43.57,0,0,1,10.37,16.75,64.72,64.72,0,0,1,3.79,22.27,120.62,120.62,0,0,1-1.07,16.22,40.66,40.66,0,0,1-3.9,13.38,19.42,19.42,0,0,1-8.53,8.41,27.17,27.17,0,0,1-12.31,2.73,20.48,20.48,0,0,1-15-6.64m40.51,7.22a49.33,49.33,0,0,0,18.36-20.24,60,60,0,0,0,6.15-26.77,45.14,45.14,0,0,0-6.63-23.92,51.36,51.36,0,0,0-18-17.66,48.75,48.75,0,0,0-25.34-6.75,47.86,47.86,0,0,0-20.85,4.62,56.44,56.44,0,0,0-17,12.44A58,58,0,0,0,1868,590a52,52,0,0,0-4,20.14,48.27,48.27,0,0,0,6.4,24.87,46.35,46.35,0,0,0,17.39,17.16,48.48,48.48,0,0,0,24.51,6.29q18.24,0,30.44-7.71m-157.28-5.32a37.48,37.48,0,0,1-13.14-27.95v-6.4c0-3,0-6.35.12-10.07s.16-7.34.23-10.89.13-6.75.13-9.59q0-1.66,3.66-4.5a39.5,39.5,0,0,1,9.24-5.1,29,29,0,0,1,10.78-2.24,30,30,0,0,1,8.13,1.48,26,26,0,0,1,9.6,5.56q4.73,4.15,7.93,12.2t3.2,21.56q0,11.6-3.08,19.42a37.3,37.3,0,0,1-7.7,12.55,30.44,30.44,0,0,1-9.12,6.75,19.67,19.67,0,0,1-7.81,2,19,19,0,0,1-12.21-4.74m-37.18,75c2.13-.24,4.23-.43,6.28-.59s4.42-.24,7.1-.24a114.39,114.39,0,0,1,11.85.59,119.55,119.55,0,0,0,12.55.6,9.65,9.65,0,0,0,3.32-.6,2.08,2.08,0,0,0,1.65-2,2.82,2.82,0,0,0-1.65-2.72,27.1,27.1,0,0,0-3.79-1.54c-2.06-.63-4.07-1.31-6-2a15.6,15.6,0,0,1-5.09-3,6.38,6.38,0,0,1-2.13-5v-42.4c0-.63,0-1.7.12-3.2s.2-2.92.36-4.26.31-2,.47-2a23.6,23.6,0,0,0,6.51,3.43,53.33,53.33,0,0,0,8.41,2.37,39.4,39.4,0,0,0,7.34.83,46.44,46.44,0,0,0,21.08-4.86,58.4,58.4,0,0,0,17.17-13,61.45,61.45,0,0,0,11.61-18.36,55.62,55.62,0,0,0,4.15-21.08,51.42,51.42,0,0,0-4.74-21.55,43.71,43.71,0,0,0-13.5-17q-8.76-6.64-21.08-6.64a43.22,43.22,0,0,0-15.4,3.08,93.31,93.31,0,0,0-14.21,6.75,47.25,47.25,0,0,0-8.52,6,4.67,4.67,0,0,1-.24-2.13,58.22,58.22,0,0,1,.59-7.58,58.93,58.93,0,0,0,.59-6.63,3.22,3.22,0,0,0-.43-1.57,1.39,1.39,0,0,0-1.19-.83,1.18,1.18,0,0,0-.83.35,1.42,1.42,0,0,1-1.06.36,124,124,0,0,1-13.5,5.45q-7.58,2.61-16.11,4.74a2.62,2.62,0,0,0-1.54,1.06,3.88,3.88,0,0,0-.59,2.25,3.4,3.4,0,0,0,2.37,3.56,8.71,8.71,0,0,1,5.92,3.55,20.53,20.53,0,0,1,3.43,6.63,20.82,20.82,0,0,1,1.07,5.69V704.68q0,4.5-2.84,6.16a31,31,0,0,1-6.87,2.84,22,22,0,0,0-3.79,1.66,3.09,3.09,0,0,0-1.66,2.84c0,1,.59,1.62,1.78,2a10.3,10.3,0,0,0,3.2.6,74.9,74.9,0,0,0,7.93-.36m-34.16-70.26q9.82-8.29,9.83-22,0-11.61-6.75-18.6t-21-14.8q-8.52-4.74-12.44-8.88a13.55,13.55,0,0,1-3.9-9.59c0-4.27,1.5-7.54,4.5-9.84a16.44,16.44,0,0,1,10.18-3.43,16,16,0,0,1,11.25,4.27q4.62,4.26,7.7,12.55a3.67,3.67,0,0,0,2,1.89,6.93,6.93,0,0,0,3,.71c2,0,3.08-.63,3.08-1.89a54.87,54.87,0,0,0-1.31-11.84c-.87-4-1.94-6.79-3.19-8.53a27.59,27.59,0,0,0-7.71-3.2,47.18,47.18,0,0,0-12.9-1.54q-10.66,0-18.24,3.79a29.19,29.19,0,0,0-11.66,10.18,26.48,26.48,0,0,0-4.14,14.68,25.61,25.61,0,0,0,2.84,12.2,31.85,31.85,0,0,0,8.29,9.71,111.69,111.69,0,0,0,13,8.88A81.64,81.64,0,0,1,1700.38,625a14.93,14.93,0,0,1-10.66,25.7,20.64,20.64,0,0,1-14-5.69q-6.4-5.67-10-16.81a2.53,2.53,0,0,0-1.31-1.55A5.12,5.12,0,0,0,1662,626c-2.37,0-3.55.79-3.55,2.36a113.32,113.32,0,0,0,.71,12.08c.47,4.43,1.26,7.66,2.36,9.72a35.36,35.36,0,0,0,11.73,6.15,47.36,47.36,0,0,0,14.33,2.14q16.82,0,26.64-8.29M1586,583.38A14.6,14.6,0,0,1,1589,574a28.09,28.09,0,0,1,8.41-7.69,19.76,19.76,0,0,1,23.3,1.54,14.22,14.22,0,0,1,5.44,11.25,13.16,13.16,0,0,1-.47,3.9,2.91,2.91,0,0,1-1.66,2,42.45,42.45,0,0,1-6.63,1c-2.37.16-5.61.23-9.71.23h-19a2.51,2.51,0,0,1-2.84-2.13,2.81,2.81,0,0,1,0-.71m35.88,72.83a41.21,41.21,0,0,0,20.25-15.75q3.32-5.21,3.32-9c0-1.73-.71-2.6-2.13-2.6a2,2,0,0,0-1.3.47,8,8,0,0,0-1.31,1.42,38,38,0,0,1-10.77,7.7,30,30,0,0,1-12.91,2.73,30.42,30.42,0,0,1-17.29-5.22,39.29,39.29,0,0,1-17.29-32.92q0-5,1.42-6.87c1-1.25,2.52-1.88,4.73-1.89h49q7.35,0,7.34-7.82a29.6,29.6,0,0,0-4.37-16,30.07,30.07,0,0,0-12.08-10.89,38,38,0,0,0-17.42-3.91,43.46,43.46,0,0,0-23.92,7,52.15,52.15,0,0,0-23.92,44.18q0,15.39,5.68,27.12a44.49,44.49,0,0,0,15.59,18.17,39.9,39.9,0,0,0,22.62,6.52,42.43,42.43,0,0,0,14.8-2.49M1491,655.48c2.21-.24,4.34-.43,6.39-.59s4.43-.23,7.11-.23a100.68,100.68,0,0,1,11.25.58,108.1,108.1,0,0,0,12.2.6q4.5,0,4.5-2.84a2.71,2.71,0,0,0-1.42-2.49,16.89,16.89,0,0,0-4-1.54,34.32,34.32,0,0,1-9.24-4,6.8,6.8,0,0,1-3.08-5.92V594.51q0-12.32,5-16.58a16.38,16.38,0,0,1,10.89-4.26,10.36,10.36,0,0,1,3.92.83c1.33.56,2.64,1.15,3.9,1.78l4,1.77a8.71,8.71,0,0,0,3.55.83,7.5,7.5,0,0,0,5.33-2.49,19.52,19.52,0,0,0,4-5.92,15.09,15.09,0,0,0,1.53-6,7.75,7.75,0,0,0-3.31-6.51q-3.32-2.49-9.48-2.49a23.05,23.05,0,0,0-9.94,2.49,43.26,43.26,0,0,0-9.83,6.51,68.36,68.36,0,0,0-8.41,8.77c-.32,0-.47-.32-.47-1,0-2.37.07-4.82.23-7.34s.27-4.82.36-6.87.12-3.4.12-4c0-1.26-.56-1.89-1.66-1.89a5.72,5.72,0,0,0-1.66.47,15.34,15.34,0,0,0-2.61,1.42q-4.73,2.61-12.31,6a101.69,101.69,0,0,1-14.21,5.33,3.13,3.13,0,0,0-2.37,3.32,3.66,3.66,0,0,0,2.6,3.55c3.64.79,6,2.57,7.11,5.33a27.21,27.21,0,0,1,1.66,10.07v52.1a8,8,0,0,1-2,5.69c-1.33,1.42-3.67,2.52-7,3.31a21.91,21.91,0,0,0-3.91,1.54,2.85,2.85,0,0,0-1.54,2.73,2.27,2.27,0,0,0,1.31,2.13,7.15,7.15,0,0,0,3.43.71,76.35,76.35,0,0,0,8-.36m-85.74,0c2.21-.24,4.34-.43,6.39-.59s4.42-.23,7.11-.23a103.12,103.12,0,0,1,11.25.58,108.1,108.1,0,0,0,12.2.6q4.5,0,4.5-2.84a2.71,2.71,0,0,0-1.42-2.49,16.89,16.89,0,0,0-4-1.54,34.32,34.32,0,0,1-9.24-4,6.8,6.8,0,0,1-3.08-5.92V594.51q0-12.32,5-16.58a16.38,16.38,0,0,1,10.89-4.26,10.31,10.31,0,0,1,3.91.83c1.34.56,2.65,1.15,3.91,1.78l4,1.77a8.71,8.71,0,0,0,3.55.83,7.5,7.5,0,0,0,5.33-2.49,19.7,19.7,0,0,0,4-5.92,15.09,15.09,0,0,0,1.53-6,7.75,7.75,0,0,0-3.31-6.51q-3.32-2.49-9.48-2.49a23.05,23.05,0,0,0-9.94,2.49,43.26,43.26,0,0,0-9.83,6.51,67.68,67.68,0,0,0-8.41,8.77c-.32,0-.48-.32-.48-1,0-2.37.08-4.81.24-7.34s.27-4.82.36-6.87.11-3.4.11-4q0-1.89-1.65-1.89a5.72,5.72,0,0,0-1.66.47,15.34,15.34,0,0,0-2.61,1.42q-4.72,2.61-12.31,6a101.69,101.69,0,0,1-14.21,5.33,3.13,3.13,0,0,0-2.37,3.32,3.66,3.66,0,0,0,2.6,3.55q5.45,1.19,7.11,5.33a27.21,27.21,0,0,1,1.66,10.07v52.1a8,8,0,0,1-2,5.69c-1.33,1.42-3.67,2.52-7,3.31a21.91,21.91,0,0,0-3.91,1.54,2.85,2.85,0,0,0-1.54,2.73,2.27,2.27,0,0,0,1.3,2.13,7.17,7.17,0,0,0,3.44.71,76.35,76.35,0,0,0,8-.36m-91.31-12a46.55,46.55,0,0,1-10.3-17,63.22,63.22,0,0,1-3.79-21.79,115.26,115.26,0,0,1,1.43-18.83,28.9,28.9,0,0,1,5.92-14.09,20.29,20.29,0,0,1,7.93-6,26,26,0,0,1,9.83-1.77,21.76,21.76,0,0,1,15.63,6.4A43.73,43.73,0,0,1,1351,587.16a65.24,65.24,0,0,1,3.79,22.27,122.28,122.28,0,0,1-1.07,16.22,40.43,40.43,0,0,1-3.91,13.38,19.47,19.47,0,0,1-8.53,8.41,27.17,27.17,0,0,1-12.31,2.73,20.31,20.31,0,0,1-15-6.64m40.51,7.22a49.33,49.33,0,0,0,18.36-20.24,60.14,60.14,0,0,0,6.15-26.77,45.14,45.14,0,0,0-6.63-23.92,51.56,51.56,0,0,0-18-17.65,48.75,48.75,0,0,0-25.34-6.75,47.86,47.86,0,0,0-20.85,4.62,56.23,56.23,0,0,0-17,12.44A57.58,57.58,0,0,0,1279.81,590a52,52,0,0,0-4,20.14A48.29,48.29,0,0,0,1282.2,635a46.42,46.42,0,0,0,17.29,17.15,48.48,48.48,0,0,0,24.51,6.29q18.24,0,30.44-7.71m-184.63,4.74c2-.24,4-.43,5.92-.59s4.18-.23,6.87-.23,5,.07,6.63.23,3.32.35,5.21.59a60.1,60.1,0,0,0,7.35.36,10.79,10.79,0,0,0,3.08-.6,2.27,2.27,0,0,0,1.89-2.24,2.85,2.85,0,0,0-1.66-2.73c-1.11-.55-2.29-1.06-3.55-1.54a16.09,16.09,0,0,1-5.68-3.07c-1.43-1.27-2.15-3.32-2.14-6.16-.16-2.69-.23-5.49-.23-8.42V615.16c0-2.53.07-5,.23-7.34a1.47,1.47,0,0,1,1.19-1.66c.62,0,1.25.47,1.89,1.42l26.77,32.21a13.24,13.24,0,0,1,1.42,2.14,3.83,3.83,0,0,1,.47,1.65,3.39,3.39,0,0,1-1.54,3,19.67,19.67,0,0,1-3.9,2,7.89,7.89,0,0,0-3.21,1.53,3.15,3.15,0,0,0-1.3,2.49q0,2.61,4.51,2.61,12.08,0,24.27.35t23.33.36c3.15,0,4.74-1,4.74-2.84,0-1.27-.75-2.17-2.25-2.73s-3-1.06-4.62-1.54a70.44,70.44,0,0,1-8.88-4.5,44.35,44.35,0,0,1-9.36-7.1q-3.55-3.8-9.23-10T1226,613.46q-6.4-7.58-12.56-15.16a7.05,7.05,0,0,0-.59-.94,1.58,1.58,0,0,1-.35-1,3.24,3.24,0,0,1,1.42-2.37q5-4.5,10.66-9.24t10.65-8.52a87.89,87.89,0,0,1,7.35-5.21c2.67-1.58,5.52-3.12,8.52-4.63a38.07,38.07,0,0,1,8.77-3.19,11.91,11.91,0,0,0,4.14-1.9,3.31,3.31,0,0,0,1.54-2.6c0-1.74-1-2.61-3.08-2.61a52.87,52.87,0,0,0-7.1.71c-3.17.48-6.44.92-9.84,1.3a73,73,0,0,1-8.87.6H1225a7.7,7.7,0,0,0-3.68.83,2.49,2.49,0,0,0-1.53,2.25c0,1.26,1,2.05,2.84,2.37a16,16,0,0,1,4.62,1.53c1.34.71,2,1.47,2,2.26a2.69,2.69,0,0,1-.59,1.53c-.4.56-.91,1.31-1.54,2.26q-2.38,3.07-9,10.18a196.6,196.6,0,0,1-16.1,15.25,18.64,18.64,0,0,1-3.79,2.61,7.38,7.38,0,0,1-3.07.94c-1,0-1.43-.79-1.43-2.37V516.83a146.28,146.28,0,0,1,.83-18,79.42,79.42,0,0,0,.83-8.29,3.54,3.54,0,0,0-.36-1.78,1.39,1.39,0,0,0-1.3-.59,7.14,7.14,0,0,0-2.6.71q-3.56,1.42-8.18,3.19t-9.94,3.68a80.14,80.14,0,0,1-11.49,3.08c-1.27.31-1.89,1.34-1.89,3.07,0,1.9.71,3,2.13,3.32q5.91,1.42,8,5.45t2.13,11.84V639.28q0,5-3.08,6.63a40.84,40.84,0,0,1-6.63,2.84c-1.42.64-2.69,1.19-3.79,1.66a2.58,2.58,0,0,0-1.65,2.61c0,1.89,1.72,2.84,5.21,2.84a67.84,67.84,0,0,0,7.81-.36m-127.19,0c2.21-.24,4.34-.43,6.4-.59s4.42-.23,7.1-.23c2.84,0,5.17.07,7,.23s3.79.35,5.92.59a75.21,75.21,0,0,0,7.94.36,6.44,6.44,0,0,0,3.31-.71,2.32,2.32,0,0,0,1.19-2.13q0-2.61-5.22-4.27a36,36,0,0,1-6.39-2.49c-2-1-3.07-3.11-3.08-6.27V583.16a8.59,8.59,0,0,1,.47-2.61,5.89,5.89,0,0,1,1.39-2.39,41,41,0,0,1,10.3-6,34.48,34.48,0,0,1,12.91-2.25,19.37,19.37,0,0,1,13.86,5.69Q1111.06,581,1111,591v49c0,3.16-1,5.21-3.08,6.16a62.84,62.84,0,0,1-6.63,2.6,26,26,0,0,0-3.55,1.66,3.07,3.07,0,0,0-1.66,2.84,2.05,2.05,0,0,0,1.66,2.14,11,11,0,0,0,2.84.47,75.21,75.21,0,0,0,7.94-.36c2.13-.24,4.22-.43,6.27-.59s4.42-.23,7.11-.23,5.24.07,7.22.23,4,.35,6.16.59a74.9,74.9,0,0,0,7.93.36,10.5,10.5,0,0,0,3-.47,2,2,0,0,0,1.53-2.14,3.06,3.06,0,0,0-1.65-2.84,25.6,25.6,0,0,0-3.56-1.66c-2.36-.79-4.61-1.65-6.74-2.6s-3.2-3-3.2-6.16V588.83q0-14.69-7.82-23.92a24.67,24.67,0,0,0-19.66-9.24,47.75,47.75,0,0,0-20,4A63.31,63.31,0,0,0,1068,571.51a2.32,2.32,0,0,1-.35-1.18,15,15,0,0,1-.12-1.9,62.92,62.92,0,0,1,.6-8c.38-3.16.59-5.29.59-6.4a2.94,2.94,0,0,0-.36-1.54,1.39,1.39,0,0,0-1.3-.59,3.09,3.09,0,0,0-1.54.47c-.56.32-1.07.64-1.54,1a88,88,0,0,1-12.43,6.87,91.5,91.5,0,0,1-15,5.21c-1.42.16-2.13,1.26-2.13,3.32a3.36,3.36,0,0,0,.71,2.24,3.12,3.12,0,0,0,1.66,1.07q5.68,1.43,7,5.57a34.27,34.27,0,0,1,1.3,10.07v52.1q0,4.74-3.08,6.4a31,31,0,0,1-6.63,2.6,21.91,21.91,0,0,0-3.91,1.54,2.85,2.85,0,0,0-1.54,2.73,2.26,2.26,0,0,0,1.42,2.13,7.46,7.46,0,0,0,3.32.71,76.35,76.35,0,0,0,8-.36M958.79,583.4a14.66,14.66,0,0,1,3.08-9.36,27.88,27.88,0,0,1,8.42-7.69,19.7,19.7,0,0,1,10.3-3.08,19.43,19.43,0,0,1,13,4.62A14.23,14.23,0,0,1,999,579.14a13.85,13.85,0,0,1-.47,3.9,2.91,2.91,0,0,1-1.66,2,42.45,42.45,0,0,1-6.63,1c-2.37.16-5.61.23-9.71.23h-19a2.52,2.52,0,0,1-2.85-2.12,2.89,2.89,0,0,1,0-.72m35.93,72.78a41.37,41.37,0,0,0,20.25-15.75q3.32-5.21,3.32-9c0-1.73-.72-2.6-2.14-2.6a2.07,2.07,0,0,0-1.3.47,8.34,8.34,0,0,0-1.3,1.42,37.93,37.93,0,0,1-10.78,7.7,30,30,0,0,1-12.91,2.73A30.42,30.42,0,0,1,972.5,636,38.5,38.5,0,0,1,960,622.1,38.91,38.91,0,0,1,955.21,603c0-3.31.48-5.6,1.42-6.87s2.53-1.89,4.74-1.89h49q7.33,0,7.34-7.82a29.5,29.5,0,0,0-4.38-16,30.07,30.07,0,0,0-12.08-10.89,37.92,37.92,0,0,0-17.41-3.91,43.46,43.46,0,0,0-23.92,7,51.93,51.93,0,0,0-17.41,18.6A51.31,51.31,0,0,0,936,606.84q0,15.39,5.68,27.12a44.56,44.56,0,0,0,15.56,18.2,39.87,39.87,0,0,0,22.61,6.52,42.44,42.44,0,0,0,14.81-2.49M909,530.66a13.49,13.49,0,0,0,4.27-10.06A13.81,13.81,0,0,0,909,510.29a14.38,14.38,0,0,0-10.39-4.13,13.71,13.71,0,0,0-10.07,4.14,14.42,14.42,0,0,0,9.94,24.53h.13a14.35,14.35,0,0,0,10.42-4.15M885.27,655.5c2.13-.24,4.29-.43,6.51-.59s4.65-.23,7.34-.23c2.85,0,5.33.07,7.46.23s4.39.35,6.76.59q4,.38,8,.36,4.26,0,4.26-2.84a2.85,2.85,0,0,0-1.54-2.73,15.14,15.14,0,0,0-3.43-1.3,24.52,24.52,0,0,1-8-3.31A6.54,6.54,0,0,1,910,640V586q0-5.68.59-12.32t1.18-12.32c.4-3.78.6-6.55.6-8.28a1.68,1.68,0,0,0-1.43-1.9,1.85,1.85,0,0,0-.47,0,8.68,8.68,0,0,0-3.79,1.66c-2.52,1.58-6.28,3.67-11.25,6.27a73.1,73.1,0,0,1-17.88,6.28c-1.42.16-2.13,1.19-2.13,3.08a4.16,4.16,0,0,0,.59,2.48,2.67,2.67,0,0,0,1.78,1.07q5.91.94,8.29,5.33c1.57,2.93,2.37,6.75,2.37,11.49V640c0,2.84-.87,4.82-2.61,5.92a29.47,29.47,0,0,1-8,3.08,15,15,0,0,0-3.44,1.3,2.85,2.85,0,0,0-1.54,2.73,2.27,2.27,0,0,0,1.3,2.13,6.69,6.69,0,0,0,3.2.71,75.21,75.21,0,0,0,7.94-.36m-61.7,0c2-.24,4.1-.43,6.16-.59s4.42-.23,7.1-.23c2.84,0,5.29.07,7.34.23l6.4.48c2.21.15,4.82.22,7.82.23a10.45,10.45,0,0,0,3.19-.47,1.89,1.89,0,0,0,1.54-1.9,3.07,3.07,0,0,0-1.66-2.84,21.57,21.57,0,0,0-3.78-1.66,51.12,51.12,0,0,1-6.64-2.72c-2.05-1-3.08-3.12-3.08-6.28V516.83a175.33,175.33,0,0,1,.71-18.48c.48-4.1.72-6.79.72-8.05a3.21,3.21,0,0,0-.36-1.42,1.12,1.12,0,0,0-1.07-.71,7.73,7.73,0,0,0-2.13.47c-2.52.95-5.37,2-8.52,3.32s-6.56,2.52-10.19,3.79a84.33,84.33,0,0,1-11.6,3.08c-1.11.31-1.66,1.34-1.66,3.07,0,1.9.63,3,1.89,3.32q5.93,1.18,8.17,5.8a26.11,26.11,0,0,1,2.25,11.49V639.75c0,3.32-1,5.45-3.08,6.4a62.84,62.84,0,0,1-6.63,2.6c-1.42.64-2.68,1.23-3.79,1.78a2.83,2.83,0,0,0-1.66,2.72,2,2,0,0,0,1.54,2.14,11.22,11.22,0,0,0,3.2.47,68.12,68.12,0,0,0,7.82-.36m-37.5-124.82a13.52,13.52,0,0,0,4.26-10.06,13.81,13.81,0,0,0-4.26-10.31,14.41,14.41,0,0,0-10.47-4.15,13.68,13.68,0,0,0-10,4.15,14,14,0,0,0-4.15,10.31,14.16,14.16,0,0,0,14.13,14.21h0a14.36,14.36,0,0,0,10.43-4.15M762.31,655.5c2.14-.24,4.3-.43,6.51-.59s4.66-.23,7.35-.23c2.84,0,5.33.07,7.46.23s4.38.35,6.75.59q4,.38,8,.36,4.26,0,4.26-2.84a2.85,2.85,0,0,0-1.53-2.73,15.22,15.22,0,0,0-3.44-1.3,24.78,24.78,0,0,1-8-3.31A6.57,6.57,0,0,1,787,640V586q0-5.68.6-12.32t1.18-12.32c.4-3.78.59-6.55.59-8.28a1.67,1.67,0,0,0-1.4-1.9,2,2,0,0,0-.49,0,8.68,8.68,0,0,0-3.79,1.66q-3.8,2.37-11.25,6.27a73.5,73.5,0,0,1-17.8,6.28c-1.42.16-2.13,1.19-2.13,3.08a4.22,4.22,0,0,0,.6,2.48,2.65,2.65,0,0,0,1.77,1.07q5.93.94,8.29,5.33c1.58,2.93,2.37,6.75,2.37,11.49V640c0,2.84-.87,4.82-2.61,5.92a29.47,29.47,0,0,1-8,3.08,15.14,15.14,0,0,0-3.43,1.3A2.85,2.85,0,0,0,750,653a2.27,2.27,0,0,0,1.3,2.13,6.69,6.69,0,0,0,3.2.71,74.9,74.9,0,0,0,7.93-.36m-186.4,0c2.13-.24,4.22-.43,6.28-.59s4.41-.23,7.11-.23,5.12.07,6.87.23,3.62.35,5.68.59a68.12,68.12,0,0,0,7.82.36,6.65,6.65,0,0,0,3.19-.71,2.3,2.3,0,0,0,1.31-2.13,2.85,2.85,0,0,0-1.66-2.73c-1.11-.55-2.3-1.06-3.55-1.54a31.63,31.63,0,0,1-6.16-2.72c-1.75-1-2.61-3-2.61-6V590q0-10.41,5.21-14.21a27.46,27.46,0,0,1,8.88-4.73,31.62,31.62,0,0,1,9.36-1.43,13.22,13.22,0,0,1,8.53,3.08,22.31,22.31,0,0,1,6,7.82A23.89,23.89,0,0,1,640.52,591v49.5c0,2.85-.91,4.79-2.73,5.8a26.13,26.13,0,0,1-6.27,2.49,38.61,38.61,0,0,0-3.56,1.54,2.82,2.82,0,0,0-1.65,2.73,2.27,2.27,0,0,0,1.34,2.12,6.73,6.73,0,0,0,3.08.71,67.84,67.84,0,0,0,7.81-.36c2.05-.24,4.06-.43,6-.59s4.3-.23,7-.23,5.21.07,7.1.23,3.87.35,5.93.59a67.84,67.84,0,0,0,7.81.36,6.6,6.6,0,0,0,3.32-.71,2.33,2.33,0,0,0,1.18-2.13,2.92,2.92,0,0,0-1.54-2.61,18.36,18.36,0,0,0-3.67-1.66,31,31,0,0,1-6.52-2.49q-3-1.53-2.95-6.27V590.25q0-10.18,5.45-14.45a27.88,27.88,0,0,1,8.76-4.73,31.33,31.33,0,0,1,9.47-1.43,13.64,13.64,0,0,1,8.53,3,20.94,20.94,0,0,1,6,7.82A24.88,24.88,0,0,1,702.66,591v49.5c0,2.85-.88,4.78-2.61,5.8a23.84,23.84,0,0,1-6.15,2.49,17.83,17.83,0,0,0-3.79,1.54,2.89,2.89,0,0,0-1.42,2.73,2.29,2.29,0,0,0,1.29,2.13,6.73,6.73,0,0,0,3.21.71,67.84,67.84,0,0,0,7.81-.36c2-.24,4.06-.43,6-.59s4.3-.23,7-.23,5.21.07,7.1.23,3.87.35,5.93.59a67.84,67.84,0,0,0,7.81.36,6.38,6.38,0,0,0,3.43-.71,2.39,2.39,0,0,0,1.07-2.13,3,3,0,0,0-1.42-2.61,14.56,14.56,0,0,0-3.79-1.66,62.75,62.75,0,0,1-6.48-2.63c-2.06-1-3.08-3-3.08-6.16V588.83a45.15,45.15,0,0,0-3-16.58,29,29,0,0,0-8.4-12.09,20.14,20.14,0,0,0-13.26-4.5,45.92,45.92,0,0,0-20.85,4.74,61.55,61.55,0,0,0-16.81,12.31h-.71Q658,564,652.06,559.8a23.84,23.84,0,0,0-14-4.14q-12.57,0-21.44,5a67.35,67.35,0,0,0-14.8,10.9h-.47c-.33-.32-.48-1.26-.48-2.84a72.07,72.07,0,0,1,.59-8.18,63.19,63.19,0,0,0,.6-6.74c0-1.27-.56-1.9-1.66-1.9a2.62,2.62,0,0,0-1.31.35c-.39.24-.75.44-1.06.6q-4.51,2.61-8.53,4.85a74.57,74.57,0,0,1-8.76,4.15,99,99,0,0,1-10.9,3.55c-1.42.32-2.13,1.42-2.13,3.32a3.33,3.33,0,0,0,.71,2.37,3.45,3.45,0,0,0,1.66.94q5.45.94,6.87,5.33a33.32,33.32,0,0,1,1.42,10.31v52.1c0,3.16-1.07,5.26-3.2,6.28a66.21,66.21,0,0,1-6.51,2.72,16.43,16.43,0,0,0-3.91,1.66,2.92,2.92,0,0,0-1.54,2.61,2.2,2.2,0,0,0,1.44,2.22,8.57,8.57,0,0,0,3.32.6,74.9,74.9,0,0,0,7.93-.36m-82.19-12.79q-3.43-3-3.43-9.35a13.56,13.56,0,0,1,4.26-9.6q4.27-4.37,14.93-8.4a17.43,17.43,0,0,1,2.6-1,6.8,6.8,0,0,1,1.42-.24,1.88,1.88,0,0,1,1.9,1.07,7.25,7.25,0,0,1,.23,3.43l-.47,13.5a24.43,24.43,0,0,1-.83,5.57,7.38,7.38,0,0,1-1.77,3,14.37,14.37,0,0,1-11.61,5,10.91,10.91,0,0,1-7.23-3m9.12,12.68a63.68,63.68,0,0,0,14.69-9.71h.71q7.11,12.78,18.95,12.79a20.36,20.36,0,0,0,8.88-2.26,32,32,0,0,0,8.65-6.27c2.21-2,3.31-4,3.31-5.92a2.37,2.37,0,0,0-.83-1.9,3,3,0,0,0-2-.71,2.65,2.65,0,0,0-1.66,1q-3.07,2.83-8.53,2.84a7.06,7.06,0,0,1-5.92-3.31,13.27,13.27,0,0,1-2.13-8.53l1.19-53.53q.47-10.67-5.81-17.41t-16.22-6.75a37.62,37.62,0,0,0-11.46,2.1,69.47,69.47,0,0,0-13.27,6A78.72,78.72,0,0,0,479,572.68a35.67,35.67,0,0,0-7.46,8.42A15.45,15.45,0,0,0,469,589a2.88,2.88,0,0,0,2.61,3.12,2.16,2.16,0,0,0,.44,0,19.65,19.65,0,0,0,7-1.66,45,45,0,0,0,7.34-3.68c2.13-1.33,3.2-2.48,3.2-3.43a20.39,20.39,0,0,0-.12-2.49,22.61,22.61,0,0,1-.12-2.72,16.33,16.33,0,0,1,.36-3.55,4.3,4.3,0,0,1,1.54-2.61,22.14,22.14,0,0,1,5.56-3,19,19,0,0,1,6.75-1.3c4.27,0,7.5,1.42,9.72,4.26a15.9,15.9,0,0,1,3.08,10.66l-.49,14.52c-.16,3.16-.56,5.25-1.18,6.27s-2.53,2.18-5.69,3.44l-23,9.71q-9.24,3.79-13.62,8.53c-2.93,3.16-4.38,7.34-4.38,12.55a17.75,17.75,0,0,0,3.08,9.59,26.89,26.89,0,0,0,7.81,8,17.17,17.17,0,0,0,9.71,3.21,34.32,34.32,0,0,0,14.21-3.08m-137.26.35,10.07-.71c3.32-.24,6.71-.35,10.19-.35,3.16,0,6.08.11,8.76.35s5.56.47,8.64.71,6.68.36,10.78.36a10.9,10.9,0,0,0,4.27-.71,2.31,2.31,0,0,0,1.66-2.14,3.09,3.09,0,0,0-1.66-2.84,18.42,18.42,0,0,0-5.21-1.66q-9.24-1.65-12.68-5.68T396.7,631.5q-.46-11.6-.59-23t-.12-22c0-2,.51-3.51,1.54-4.38a7,7,0,0,1,3.91-1.54c2.53-.16,5-.24,7.46-.24h7.46c1.9,0,3.83,0,5.8.12s3.91.12,5.81.12a11.63,11.63,0,0,1,6.51,2.13q3.19,2.13,4.86,8a12.19,12.19,0,0,0,1.89,3.67,4.23,4.23,0,0,0,3.56,2,1.84,1.84,0,0,0,1.89-1.31,11,11,0,0,0,.47-3.66c-.31-3.48-.54-6.36-.71-8.65s-.24-4.77-.23-7.46a61.77,61.77,0,0,1,.35-6.52c.23-2.28.44-4.93.59-7.93a3.7,3.7,0,0,0-.83-3.08,3,3,0,0,0-2.25-1.18,3.79,3.79,0,0,0-2.36,1.42,14.45,14.45,0,0,0-2.14,2.6,18.57,18.57,0,0,1-5.09,7.58,13.08,13.08,0,0,1-9.12,3.08q-4.5,0-11.72.24t-14.09.24a2.84,2.84,0,0,1-2.73-1.55,7.62,7.62,0,0,1-.83-3.66v-45a18.46,18.46,0,0,1,2.13-8.29c1.27-2.21,3.79-3.31,7.58-3.31h25.85a29.18,29.18,0,0,1,9,1.3,17.31,17.31,0,0,1,7.34,4.86,21.33,21.33,0,0,1,3.67,5.92,56.28,56.28,0,0,1,2.73,8,5,5,0,0,0,1.66,2.37,3.81,3.81,0,0,0,2.37,1q2.35,0,2.36-5c0-1.58,0-4-.12-7.34s-.19-6.79-.35-10.42-.39-6.63-.71-9a2.69,2.69,0,0,0-1.89-2.26,9.55,9.55,0,0,0-3.08-.58,63.59,63.59,0,0,0-11,1.18,83.4,83.4,0,0,1-14.8,1.18H394.65q-7.11,0-13-.23l-12-.48q-6-.22-13.85-.23a10.65,10.65,0,0,0-4.39.82,2.55,2.55,0,0,0-1.77,2.26,3.42,3.42,0,0,0,1.66,2.84,14.12,14.12,0,0,0,5.45,1.89q8.76,1.67,11.48,6.63T371,529.58V631.7q0,8.29-3.32,11.84t-12.32,5.21q-6.85,1.43-6.86,4.5a2.22,2.22,0,0,0,1.65,2.25,12.87,12.87,0,0,0,4.27.6q6.15,0,11.24-.36m-136.78-.24c2.21-.24,4.35-.43,6.4-.59s4.41-.23,7.1-.23a100.68,100.68,0,0,1,11.25.58,108.1,108.1,0,0,0,12.2.6q4.5,0,4.5-2.84a2.71,2.71,0,0,0-1.42-2.49,17.33,17.33,0,0,0-4-1.54,33.87,33.87,0,0,1-9.24-4,6.8,6.8,0,0,1-3.08-5.92V594.51q0-12.32,5-16.58a16.42,16.42,0,0,1,10.9-4.26,10.26,10.26,0,0,1,3.9.83c1.35.56,2.64,1.15,3.91,1.78l4,1.77a8.71,8.71,0,0,0,3.55.83,7.43,7.43,0,0,0,5.33-2.49,19.52,19.52,0,0,0,4-5.92,15.27,15.27,0,0,0,1.54-6,7.76,7.76,0,0,0-3.32-6.51c-2.21-1.66-5.36-2.49-9.47-2.49a23,23,0,0,0-9.95,2.49,43.93,43.93,0,0,0-9.83,6.51,68.1,68.1,0,0,0-8.46,8.69c-.32,0-.47-.32-.47-.95,0-2.37.08-4.81.24-7.34s.28-4.82.35-6.87.12-3.4.12-4c0-1.26-.56-1.89-1.66-1.89a5.72,5.72,0,0,0-1.66.47A15.25,15.25,0,0,0,248,554c-3.17,1.74-7.26,3.76-12.32,6a101.69,101.69,0,0,1-14.21,5.33,3.13,3.13,0,0,0-2.37,3.32,3.47,3.47,0,0,0,.83,2.37,3.53,3.53,0,0,0,1.78,1.18q5.44,1.18,7.1,5.33a27.21,27.21,0,0,1,1.66,10.07v52.1a8,8,0,0,1-2,5.69c-1.35,1.42-3.67,2.52-7,3.31a21.91,21.91,0,0,0-3.91,1.54A2.85,2.85,0,0,0,216,653a2.27,2.27,0,0,0,1.3,2.13,7.17,7.17,0,0,0,3.44.71,76.35,76.35,0,0,0,8-.36m-84.48-72.07a14.6,14.6,0,0,1,3.08-9.36,27.94,27.94,0,0,1,8.4-7.69A19.74,19.74,0,0,1,166,563.25a19.43,19.43,0,0,1,13,4.62,14.18,14.18,0,0,1,5.47,11.29,13.85,13.85,0,0,1-.47,3.9,2.91,2.91,0,0,1-1.66,2,42.45,42.45,0,0,1-6.63,1c-2.37.16-5.61.23-9.71.23H147.09a2.5,2.5,0,0,1-2.84-2.11,2.24,2.24,0,0,1,0-.73m35.88,72.83a41.37,41.37,0,0,0,20.25-15.75q3.31-5.21,3.32-9c0-1.73-.71-2.6-2.13-2.6a2.08,2.08,0,0,0-1.31.47,7.62,7.62,0,0,0-1.3,1.42,37.93,37.93,0,0,1-10.78,7.7,29.88,29.88,0,0,1-12.91,2.64A30.42,30.42,0,0,1,158,635.94a38.5,38.5,0,0,1-12.55-13.86,39,39,0,0,1-4.78-19q0-5,1.43-6.87t4.73-1.89h49q7.35,0,7.34-7.82a29.5,29.5,0,0,0-4.38-16,29.93,29.93,0,0,0-12.08-10.89,37.92,37.92,0,0,0-17.41-3.91,43.46,43.46,0,0,0-23.92,7,52.09,52.09,0,0,0-23.92,44.18q0,15.39,5.68,27.12a44.47,44.47,0,0,0,15.58,18.2,39.93,39.93,0,0,0,22.63,6.52,42.43,42.43,0,0,0,14.8-2.49M44.77,642.83a31.65,31.65,0,0,1-10.54-6.39A33.35,33.35,0,0,1,25.82,624q-3.32-7.92-3.32-20,0-14.44,4.27-23t10.42-12.2a23,23,0,0,1,11.6-3.67,26.33,26.33,0,0,1,22.86,12.45,20.81,20.81,0,0,1,3.44,11v46.19A30.22,30.22,0,0,1,65.25,642a26,26,0,0,1-11,2.73,29.51,29.51,0,0,1-9.47-1.9m33.87,16.59a24.34,24.34,0,0,0,2.6-1.18A107,107,0,0,1,97,652.78a126.41,126.41,0,0,1,14.81-2.84,3.16,3.16,0,0,0,2.37-1.54,5.19,5.19,0,0,0,1.18-3.2c0-1.74-1.26-2.52-3.79-2.37s-4.8.32-6.39.48-2.77.23-3.56.23c-1.89,0-3.23-1.18-4-3.55s-1.17-6.24-1.19-11.61l.48-111.55q0-8.3.47-14c.32-3.79.55-6.71.71-8.76s.24-3.32.24-3.79a1.68,1.68,0,0,0-1.43-1.9,1.85,1.85,0,0,0-.47,0,7.11,7.11,0,0,0-1.42.12,7.9,7.9,0,0,0-2.6,1.07q-4.27,1.65-11.37,4.26a150.8,150.8,0,0,1-17.06,5,2.93,2.93,0,0,0-2.13,3.07c0,1.9.79,3,2.37,3.32a13,13,0,0,1,8.29,4.5q2.83,3.56,2.84,12.79V554q0,5-1.66,5a21.36,21.36,0,0,1-3.07-.71,46.25,46.25,0,0,0-7.23-1.78,49.91,49.91,0,0,0-8.88-.83q-16.57,0-28.9,7.46a51.23,51.23,0,0,0-19,19.78A55.62,55.62,0,0,0,0,609.69a52.1,52.1,0,0,0,5.57,23.69,47.89,47.89,0,0,0,15.51,18.11q9.95,7,23.45,7,11.13,0,19.06-5.34a42.07,42.07,0,0,0,12-11.48v1.42A63.07,63.07,0,0,1,75.1,650q-.48,4-.72,6.87c0,.31.4.87,1.19,1.66s1.34,1.18,1.66,1.18a4.32,4.32,0,0,0,1.42-.24"/><path class="cls-1" d="M1253.2,354.45q7-.75,13.56-1.25c4.35-.33,9.38-.51,15.08-.51,6,0,11,.18,14.82.51s8,.75,12.56,1.25a157.6,157.6,0,0,0,16.83.76,13.81,13.81,0,0,0,7-1.51,4.94,4.94,0,0,0,2.6-4.54q0-5.54-11.06-9a77.24,77.24,0,0,1-13.56-5.27q-6.54-3.27-6.53-13.32V201a17.59,17.59,0,0,1,1-5.52,12.5,12.5,0,0,1,3-5,87.35,87.35,0,0,1,21.85-12.81q11.81-4.77,27.38-4.77,18.09.49,29.39,12.06t11.31,32.65v104q0,10.06-6.53,13.07a135.89,135.89,0,0,1-14.07,5.52,52.2,52.2,0,0,0-7.54,3.52,6.52,6.52,0,0,0-3.51,6,4.33,4.33,0,0,0,3.51,4.52,22.63,22.63,0,0,0,6,1,157.6,157.6,0,0,0,16.83-.76q6.78-.75,13.32-1.25c4.35-.33,9.37-.51,15.07-.51,6,0,11.13.18,15.32.51s8.54.75,13.07,1.25a157.6,157.6,0,0,0,16.83.76,21.25,21.25,0,0,0,6.28-1,4.3,4.3,0,0,0,3.26-4.52,6.52,6.52,0,0,0-3.51-6,52.71,52.71,0,0,0-7.54-3.52q-7.53-2.51-14.32-5.52t-6.78-13.07V213q0-31.14-16.58-50.74t-41.7-19.6q-23.62,0-42.46,8.54T1307,176.34a4.77,4.77,0,0,1-.76-2.51,31.47,31.47,0,0,1-.25-4,139.45,139.45,0,0,1,1.26-17.08c.83-6.7,1.26-11.22,1.26-13.56a6.31,6.31,0,0,0-.76-3.27,3,3,0,0,0-2.76-1.26,6.63,6.63,0,0,0-3.27,1c-1.17.67-2.26,1.34-3.26,2A187.16,187.16,0,0,1,1272,152.23a191.36,191.36,0,0,1-31.9,11.05q-4.53.51-4.53,7a7.08,7.08,0,0,0,1.51,4.77,6.68,6.68,0,0,0,3.52,2.26q12.06,3,14.82,11.81t2.76,21.35V321q0,10.05-6.53,13.57a64,64,0,0,1-14,5.55,45.8,45.8,0,0,0-8.29,3.27,6.06,6.06,0,0,0-3.26,5.78,4.83,4.83,0,0,0,3,4.52,15.52,15.52,0,0,0,7,1.51,165.17,165.17,0,0,0,17.08-.76M1061,329.11q-13.82-14.06-21.85-36.17a134.18,134.18,0,0,1-8-46.23,247.29,247.29,0,0,1,3-39.94q3-18.33,12.56-29.89a43,43,0,0,1,16.83-12.81,54.85,54.85,0,0,1,20.85-3.77,46.19,46.19,0,0,1,33.16,13.56q14.06,13.56,22.09,35.64a137.41,137.41,0,0,1,8,47.23,259,259,0,0,1-2.26,34.42q-2.27,16.83-8.29,28.38A41.36,41.36,0,0,1,1119,337.37a57.66,57.66,0,0,1-26.13,5.78q-18.08,0-31.9-14.07m85.91,15.32a104.48,104.48,0,0,0,38.94-43,127.29,127.29,0,0,0,13.07-56.78,95.87,95.87,0,0,0-14.07-50.74,109.07,109.07,0,0,0-38.18-37.38q-24.06-14.34-53.72-14.34a101.61,101.61,0,0,0-44.21,9.8,119.63,119.63,0,0,0-36.17,26.37,122.25,122.25,0,0,0-24.12,37.18,110.46,110.46,0,0,0-8.54,42.71q0,29.65,13.57,52.75a98.76,98.76,0,0,0,36.92,36.43q23.37,13.31,52,13.31,38.68,0,64.56-16.33M920.65,89.68a28.65,28.65,0,0,0,9-21.35,29.26,29.26,0,0,0-9-21.86,30.52,30.52,0,0,0-22.1-8.79,29.11,29.11,0,0,0-21.36,8.79,29.68,29.68,0,0,0-8.79,21.86,30,30,0,0,0,29.86,30.14h.29a30.52,30.52,0,0,0,22.1-8.79M870.16,354.45q6.78-.75,13.82-1.25c4.68-.33,9.87-.51,15.57-.51,6,0,11.31.18,15.83.51s9.29.75,14.32,1.25,10.71.76,17.08.76q9,0,9-6a6.09,6.09,0,0,0-3.26-5.78,31.81,31.81,0,0,0-7.29-2.76q-11.57-3-17.08-7c-3.69-2.68-5.53-6.69-5.53-12.06V207q0-12.06,1.26-26.12t2.51-26.13q1.26-12.06,1.26-17.58c0-2.68-1.35-4-4-4q-2.52,0-8,3.51-8,5-23.87,13.32T853.85,163.3c-3,.34-4.52,2.51-4.52,6.53a9.05,9.05,0,0,0,1.26,5.28,5.72,5.72,0,0,0,3.76,2.26q12.55,2,17.59,11.3t5,24.37v108.5q0,9-5.52,12.56t-17.09,6.54a31.12,31.12,0,0,0-7.28,2.76,6.09,6.09,0,0,0-3.27,5.78,4.85,4.85,0,0,0,2.77,4.52,14.11,14.11,0,0,0,6.78,1.51,157.6,157.6,0,0,0,16.83-.76m-74.6-.5q14.57-6.78,23.61-14.32t9-10.55a19.17,19.17,0,0,0-.75-5.53,3.14,3.14,0,0,0-3.26-2.51,4.93,4.93,0,0,0-2.52,1,72.3,72.3,0,0,1-13.56,6q-7.55,2.52-22.11,2.52-15.57,0-24.11-11.31t-8.55-32.4V189.41q0-9,3.77-11.56t16.33-2.51h48.74c1.33,0,2.51-1.67,3.51-5a36.23,36.23,0,0,0,1.51-10.55,17.62,17.62,0,0,0-1.51-7c-1-2.34-2-3.52-3-3.52H764.37c-4,0-7.12-.66-9.3-2s-3.1-4-2.76-8l3-24.62q.5-4.53-1.75-6a9.25,9.25,0,0,0-5.28-1.51,6.82,6.82,0,0,0-5,2c-1.35,1.34-3,2.85-5,4.52q-6,6-14.82,14.07t-19.09,15.83q-10.3,7.78-20.85,14.32a7,7,0,0,0-2.26,2.26A5.47,5.47,0,0,0,680,162.9a19.38,19.38,0,0,0,2,8.29q2,4.27,5,4.27h4q9.54,0,12.82,1.76a6.09,6.09,0,0,1,3.26,5.78V299.44q0,30.13,14.82,45.72t42.46,15.57A73,73,0,0,0,795.51,354M620.18,89.68a28.65,28.65,0,0,0,9-21.35,29.26,29.26,0,0,0-9-21.86,30.53,30.53,0,0,0-22.11-8.79,29.1,29.1,0,0,0-21.35,8.79,29.68,29.68,0,0,0-8.79,21.86,30,30,0,0,0,29.86,30.14h.28a30.53,30.53,0,0,0,22.11-8.79M569.65,354.45q6.78-.75,13.81-1.25c4.69-.33,9.88-.51,15.58-.51,6,0,11.3.18,15.83.51s9.29.75,14.31,1.25,10.72.76,17.09.76q9,0,9-6a6.09,6.09,0,0,0-3.27-5.78,31.12,31.12,0,0,0-7.28-2.76q-11.57-3-17.08-7c-3.69-2.68-5.53-6.69-5.53-12.06V207q0-12.06,1.26-26.12t2.51-26.13q1.25-12.06,1.25-17.58,0-4-4-4-2.52,0-8,3.51-8.05,5-23.87,13.32T553.33,163.3c-3,.34-4.52,2.51-4.52,6.53a9,9,0,0,0,1.25,5.28,5.74,5.74,0,0,0,3.77,2.26q12.55,2,17.59,11.3t5,24.37v108.5q0,9-5.53,12.56t-17.08,6.54a31.12,31.12,0,0,0-7.28,2.76,6.05,6.05,0,0,0-3.27,5.78A4.87,4.87,0,0,0,546,353.7a14.15,14.15,0,0,0,6.79,1.51,157.6,157.6,0,0,0,16.83-.76M379.52,327.57A67.13,67.13,0,0,1,357.16,314q-10.8-9.54-17.83-26.38t-7-42.45q0-30.65,9-48.74t22.1-25.87q13.06-7.78,24.62-7.79a55.81,55.81,0,0,1,48.5,26.38q7.27,11.81,7.28,23.36v98A63.94,63.94,0,0,1,423,325.84q-12.33,5.76-23.33,5.75-8.55,0-20.1-4m71.85,35.17a55.93,55.93,0,0,0,5.52-2.51,229.58,229.58,0,0,1,33.42-11.56,267.87,267.87,0,0,1,31.4-6q2.5,0,5-3.27a11,11,0,0,0,2.51-6.78q0-5.53-8-5c-5.69.34-10.22.68-13.56,1s-5.86.5-7.54.5q-6,0-8.54-7.54T489.1,297l1-236.64q0-17.58,1-29.65t1.51-18.59c.33-4.35.5-7,.5-8q0-4-4-4a25.11,25.11,0,0,0-3,.25,16.52,16.52,0,0,0-5.53,2.26q-9,3.52-24.12,9a322.52,322.52,0,0,1-36.17,10.55c-3,1-4.52,3.19-4.52,6.53q0,6,5,7,11.55,2,17.59,9.54t6,27.13v66.79q0,10.54-3.51,10.55a44.46,44.46,0,0,1-6.53-1.51A97.47,97.47,0,0,0,419,144.43a107.3,107.3,0,0,0-18.84-1.76q-35.17,0-61.29,15.83a108.53,108.53,0,0,0-40.21,42,117.86,117.86,0,0,0-14.06,56.77,110.82,110.82,0,0,0,11.8,50.25,101.7,101.7,0,0,0,32.91,38.43q21.1,14.82,49.74,14.82,23.61,0,40.44-11.3t25.38-24.37v3a129.2,129.2,0,0,1-1,14.58q-1,8.53-1.51,14.57,0,1,2.52,3.51t3.51,2.51a9.88,9.88,0,0,0,3-.5M43.65,355.46,63,354q9.54-.75,20.1-.75,20.09,0,40.69.5l41.2,1q20.6.49,40.19,1t37.68.5a6.45,6.45,0,0,0,5-2.26,21.53,21.53,0,0,0,3.52-5.78q3-8.54,6.78-20.6t6.28-23.11q2.51-11,2.51-16.58a11.83,11.83,0,0,0-1.26-5.78,4.49,4.49,0,0,0-4.27-2.26,5,5,0,0,0-4.52,1.26,24.06,24.06,0,0,0-4,4.77,203.85,203.85,0,0,1-13.56,23.62,61,61,0,0,1-15.07,15.57,44,44,0,0,1-18.09,7.54,132.81,132.81,0,0,1-24.62,2H141.88q-15.58,0-23.11-6.79t-7.54-24.36v-96q0-8,3.77-10.55t11.81-2.51h46.72q10,0,15.32,6.53t8.29,19.6q4,14.58,12.06,14.57,2.51,0,3.77-2.77a14,14,0,0,0,.75-7.28c0-2.34-.17-6-.5-11s-.59-10.13-.75-15.33-.25-9.62-.25-13.31q0-4.53.5-12.06t1-14.57c.33-4.69.51-8,.51-10,0-3-.68-5.27-2-6.78a6,6,0,0,0-4.52-2.26q-6,0-9.55,10.05-3.53,13.56-9,20.09t-20.1,6.53H121.28a9.64,9.64,0,0,1-7-3,10.9,10.9,0,0,1-3-8V62.8a15.09,15.09,0,0,1,7.29-13.32q7.28-4.77,13.81-4.77h56.27a49.9,49.9,0,0,1,19.1,3.52,42.64,42.64,0,0,1,15.07,10.55q4,4,7,12.31t6.53,18.34a17.53,17.53,0,0,0,3,4.52,5.45,5.45,0,0,0,4,1.51,7.7,7.7,0,0,0,4.77-1.76c1.51-1.17,2.26-3.44,2.26-6.79A144,144,0,0,0,247.65,61q-2.78-14.82-5.28-30.4a5.64,5.64,0,0,0-3.77-4.77,17.58,17.58,0,0,0-6.28-1.26q-2,0-13.31.76t-28.36.79q-18.08.51-40.44.76t-42.46.25q-15.06,0-27.88-.51l-26.13-1q-13.31-.5-29.89-.5c-4,0-7.21.58-9.55,1.76s-3.51,2.76-3.51,4.77q0,3.52,3.51,6c2.34,1.65,6,3,11.06,4Q43.95,45.2,51,52.69t7,24.62V304.46q0,17.6-8.29,24.87T22.82,340.64q-14.58,3-14.57,9.54,0,3,3.51,4.52a24.66,24.66,0,0,0,9.55,1.51q12.56,0,22.36-.75"/></svg>