<?xml version="1.0" encoding="utf-8"?>
<svg version="1.1" xmlns:xlink="http://www.w3.org/1999/xlink" width="180px" height="53px" xmlns="http://www.w3.org/2000/svg">
  <g transform="matrix(1 0 0 1 -1488 -1724 )">
    <path d="M 1488 1724  L 1668 1724  L 1668 1777  L 1488 1777  L 1488 1724  " fill-rule="nonzero" fill="#cccccc" stroke="none" />
    <path d="M 1492 1728  L 1664 1728  L 1664 1773  L 1492 1773  L 1492 1728  " fill-rule="nonzero" fill="#ffffff" stroke="none" />
    <path d="M 1585.575 1739.9  C 1583.349 1739.9  1581.6 1738.151  1581.6 1735.925  C 1581.6 1733.699  1583.349 1731.95  1585.575 1731.95  C 1587.801 1731.95  1589.55 1733.699  1589.55 1735.925  C 1589.55 1738.151  1587.801 1739.9  1585.575 1739.9  " fill-rule="nonzero" fill="#cccccc" stroke="none" />
    <path d="M 1494 1772  L 1494 1748.9  L 1536.25 1738.4  L 1595.4 1764.58  L 1629.2 1744.7  L 1663 1764.58  L 1663 1772  L 1494 1772  " fill-rule="nonzero" fill="#169bd5" stroke="none" />
  </g>
</svg>