<svg id="Ebene_1" data-name="Ebene 1" xmlns="http://www.w3.org/2000/svg" viewBox="0 0 375 648"><defs><style>.cls-1{fill:#5b727c;}</style></defs><path class="cls-1" d="M200.47,532.7h7.9v-39h-7.9Zm108.35-39c-1,0-1.87-.12-2.73-.12H287.9c-6,0-6,0-5.45,6.08,0,.13.15.26.4.67H288c3.14,0,3.14,0,3.14,3.24v8.49c0,6.14,0,12.28.05,18.43,0,.77.66,2.17,1.1,2.2,2.6.21,5.24.11,7.87.11.06-1,.12-1.55.12-2.1,0-9.3.06-18.59,0-27.89,0-1.9.55-2.64,2.49-2.51s4,0,6.13,0ZM70.75,513.16v16.47c0,3.21,0,3.22,3.1,3.22H89.61c3.4,0,3.4,0,3.39-3.48a7.83,7.83,0,0,1,0-1c.19-1.83-.66-2.39-2.41-2.32-3,.1-6-.05-9,0-1.73.06-2.29-.62-2.21-2.28.1-2.1.11-4.21,0-6.3-.09-1.76.68-2.25,2.3-2.19,2.59.09,5.17.1,7.75,0,.69,0,1.79-.61,2-1.15,1.19-4.1.06-5.54-4.13-5.54H85.35c-6.06,0-6,0-5.95-6.06,0-1.87.72-2.38,2.45-2.29,2.17.11,4.36,0,6.54,0,4.25,0,4.25,0,4.13-4.31a1,1,0,0,1,0-.24c.17-1.72-.66-2.22-2.3-2.19-5.73.07-11.47.09-17.2,0-1.87,0-2.32.65-2.3,2.39.09,5.74,0,11.48,0,17.22M242.28,506c.67-3.85,0-7.25-2.7-9.94s-6.39-3.07-10.12-3c-6.49.13-10.9,3.49-11.57,10a154.26,154.26,0,0,0-.47,17.87,16.28,16.28,0,0,0,1.47,6c2.33,5.44,7,6.53,12.37,6.42,6.77-.13,10.92-3.7,11.69-10.36.44-3.83.15-4.15-3.7-4.16-1.13,0-2.27,0-3.39,0-1.45,0-2.07.62-2,2a6.24,6.24,0,0,1-.15,2.64c-.51,1.09-1.24,2.48-2.21,2.84a4.47,4.47,0,0,1-3.55-.66,4.24,4.24,0,0,1-1.39-3c-.27-5.71-.41-11.42-.46-17.14a12.57,12.57,0,0,1,.83-3.49c.54-1.78,2-2.92,3.61-2.52,1.2.31,2.29,1.78,3,3,.51.87.32,2.16.46,3.4Zm72.57,7.14v16.24c0,3.46,0,3.46,3.33,3.46,4.77,0,9.54.06,14.31,0,5.19-.08,4.55,1.13,4.65-4.82,0-1.5-.55-2-2-1.94-3,.07-6,0-9,0-1.49,0-2.27-.36-2.21-2,.1-2.26.08-4.52,0-6.79-.05-1.51.63-2,2-1.93,2.1.06,4.21,0,6.31,0,3.33,0,3.33,0,3.34-3.22,0-3.52,0-3.52-3.57-3.52h-2.18c-6.4,0-6.36,0-5.95-6.51.08-1.37.6-1.86,1.91-1.83,2.1.06,4.21,0,6.31,0,4.62,0,4.55,0,4.47-4.66,0-1.56-.52-2.11-2.1-2.08-5.81.06-11.63.09-17.45,0-1.86,0-2.33.64-2.3,2.39.09,5.74,0,11.47,0,17.21M157.44,506c.4-3.64-.11-6.93-2.65-9.52-4.38-4.45-9.76-4.09-15.1-2.47s-6.93,6.09-7.23,11a112.64,112.64,0,0,0,0,16.12c.6,7.5,3.34,10.77,9.14,12a23.31,23.31,0,0,0,7,.21,10.38,10.38,0,0,0,9-8.6c.9-5.82.9-5.83-5-5.8-3,0-3.83-.6-3.73,3.48.07,3-1.47,4.41-4,4.28a3.14,3.14,0,0,1-3.15-3.11c-.26-6.5-.28-13-.31-19.53a3.68,3.68,0,0,1,.82-2.46c.93-.85,2.26-1.9,3.32-1.79s2.2,1.39,2.81,2.45.57,2.46.84,3.83Zm-49.67,14.3c-2.38,0-4.78,0-7.18,0a1.59,1.59,0,0,0-1.13.92c-1.34,4.39,1.69,10.38,6.19,11.41a35.58,35.58,0,0,0,9.35.59,9.5,9.5,0,0,0,9.2-7.27c1.21-5.29.78-9.13-3.36-12.18-2.53-1.87-5.35-3.34-7.83-5.24a16.6,16.6,0,0,1-4.19-4.46c-1-1.64.28-3.63,2.23-4.38a3.3,3.3,0,0,1,4.28,2,33.36,33.36,0,0,1,.82,3.24h8.14c.93-5.88-2.15-10.66-7.64-11.72a31.44,31.44,0,0,0-5.75-.17,10.8,10.8,0,0,0-10.62,7.54c-1.3,4.94.12,9.13,4.68,12.42,2.35,1.7,4.86,3.18,7.2,4.9,1.22.88,2.65,1.89,3.18,3.17a5.37,5.37,0,0,1-.3,4.23c-.52.86-2.28,1.27-3.51,1.33a2.9,2.9,0,0,1-3.07-2.8c-.17-1.1-.42-2.19-.69-3.58M54.08,506.15c2.37,0,4.63.1,6.86-.08a2.2,2.2,0,0,0,1.43-1.61c-.23-4.82-2.19-9.37-7.92-10.8a26.91,26.91,0,0,0-6.48-.53c-6.42,0-11.17,3.95-11.57,10.32a155.2,155.2,0,0,0,0,19.53c.36,5.89,4.54,10,10.06,10.26,4.33.18,8.68-.33,13-.51,2.48-.1,3.11-1.38,3-3.74-.18-4.69,0-9.37-.06-14.06,0-.87-.07-1.74-.12-2.74H49.89a36.2,36.2,0,0,0,.08,4.92c.08.6,1,1.58,1.52,1.54,2.6-.24,3,1.13,2.78,3.23-.1,1.12.11,2.28-.08,3.39a2.4,2.4,0,0,1-1.11,1.61,5.65,5.65,0,0,1-8-4.73c-.36-4.9-.48-9.83-.48-14.74a19.11,19.11,0,0,1,1-5.42c.57-1.92,2-2.77,4.07-2.67a3.57,3.57,0,0,1,3.61,2.95c.33,1.14.5,2.35.81,3.88M190.9,532.7V493.76h-8.17c-.14.29-.27.43-.27.57,0,3.07-.06,6.14-.1,9.21-.08,5.92.84,5-5.16,5.08-3.13,0-3.13,0-3.13-3.25V493.59c-2.44,0-4.53.07-6.61,0-1.57-.08-2.13.49-2.1,2.08.07,4.85,0,9.7,0,14.55,0,6.79,0,13.58.06,20.37,0,.76.64,2.11,1.08,2.15,2.44.21,4.93.1,7.55.1v-11c0-6.07,0-6,6.05-5.95,1.65,0,2.31.51,2.27,2.23-.09,4,0,8.09,0,12.13,0,.84.1,1.69.14,2.51Zm85-39.11c-2.47,0-4.65.06-6.82,0-1.44-.05-1.78.66-1.75,1.92.05,2.51.05,5,0,7.52-.13,6.55,1.28,5.5-5.84,5.64-1.46,0-2.05-.51-2-2,.07-2.27,0-4.53,0-6.79,0-6.36,0-6.27-6.42-6.34-2.16,0-2.76.68-2.74,2.77.09,9.94,0,19.89,0,29.83,0,7,0,6.92,7,6.75,1.78,0,2.21-.77,2.17-2.34-.06-3.07,0-6.14,0-9.21.1-6.38-1.08-5.32,5.5-5.51,1.83-.05,2.4.6,2.36,2.39-.1,4.2-.08,8.4,0,12.61,0,.67.67,1.87,1.09,1.9,2.46.18,4.93.09,7.42.09ZM187.18,555.7H4.26c-3.43,0-3.43,0-3.43-3.43V476.82c0-3.17,0-3.17,3.2-3.17H370.85c3.19,0,3.2,0,3.2,3.19v75.69c0,3.17,0,3.17-3.22,3.17Z"/><path class="cls-1" d="M76.88,399.39c.06-1.15.13-2,.13-2.88,0-4.47-.73-5.13-5.17-4.23a2.22,2.22,0,0,0-1.44,1.48,16,16,0,0,0,0,4.32,1.92,1.92,0,0,0,1.34,1.25c1.64.16,3.32.06,5.14.06m9.36-.17c0-1.05,0-1.85,0-2.64,0-4.68-.22-4.95-4.87-4.29a2.71,2.71,0,0,0-1.77,1.88c-.13,6.3-.59,5.11,4.9,5.22.47,0,.93-.09,1.74-.17M45,442.72c0-5,.07-9.87,0-14.79,0-1.82.6-2.46,2.39-2.35,2,.12,4,0,6.06,0,3.19,0,3.19,0,3.2-3.25,0-3.49,0-3.49-3.43-3.5H51c-6.22,0-6.16,0-6-6.19,0-1.77.74-2.2,2.34-2.15,2.58.08,5.17,0,7.76,0,1.42,0,2.1-.6,2-2a12.56,12.56,0,0,1,0-1.94c.25-2.06-.49-2.87-2.69-2.8-5.09.15-10.18.14-15.27,0-2.16-.06-2.93.49-2.9,2.8.13,9.77.06,19.55.06,29.34,0,7.76,0,7.76,7.86,7.1a4.74,4.74,0,0,0,.83-.29m164.84-6.39c-3.71,0-7.24-.05-10.77,0-1.49,0-2.27-.37-2.2-2,.09-2.27.07-4.53,0-6.79-.05-1.51.63-2,2-1.94,2.1.07,4.21,0,6.3,0,3.33,0,3.33,0,3.33-3.24,0-3.51,0-3.51-3.53-3.51h-2.19c-7-.18-5.77,1.37-5.95-6.26,0-1.6.59-2.13,2.14-2.08,2.83.07,5.66.11,8.48,0,.69-.05,1.82-.84,1.91-1.42a31.44,31.44,0,0,0,.09-5.06H188.34v38.92h21.49Zm65.51,0c-3.68,0-7.21-.07-10.74,0-1.7,0-2.32-.57-2.24-2.26.11-2.17.09-4.36,0-6.55-.05-1.48.57-2,2-2,2.26.07,4.54-.14,6.78.06,2.4.21,3-.73,2.92-3-.21-4.2.38-3.74-3.8-3.78h-1.93c-7.08-.18-5.81,1.36-6-6.23,0-1.57.53-2.16,2.11-2.11,2.82.07,5.66.11,8.48,0,.7-.05,1.84-.82,1.94-1.39A31.85,31.85,0,0,0,275,404H253.85v38.86h21.49Zm40.48-13.13c0,5.89.05,11.79,0,17.69,0,1.68.51,2.25,2.21,2.22,5.17-.09,10.34,0,15.51-.05s4.47,1,4.61-4.62c0-1.79-.69-2.19-2.3-2.14-3,.09-6,0-9,0-1.31,0-1.94-.44-1.9-1.83,0-2.34.06-4.68,0-7-.05-1.54.7-1.94,2.08-1.89,2,.06,4,0,6.06,0,3.55,0,3.55,0,3.55-3.55,0-3.19,0-3.19-3.17-3.2-.81,0-1.61,0-2.42,0-7.22-.2-5.95,1.47-6.08-6.35,0-.07,0-.19,0-.23.56-.59,1.09-1.6,1.72-1.66,2.24-.2,4.51-.08,6.77-.08,4.19,0,4.19,0,4.14-4.26a.59.59,0,0,1,0-.23c.2-1.64-.4-2.3-2.15-2.27q-8.73.14-17.45,0c-1.67,0-2.25.52-2.22,2.21.08,5.74,0,11.47,0,17.21M65,403.83c0,9.88-.19,19.34.07,28.79.15,5.55,3.35,9.29,8.38,10.48a29,29,0,0,0,6.47.45c6.5,0,10.12-2.84,11.52-9.1a14.64,14.64,0,0,0,.21-2.89c.15-8.71.3-17.43.35-26.15a2.08,2.08,0,0,0-1.33-1.51c-2.31-.16-4.64-.07-7.13-.07,0,1.15-.12,2-.12,2.88,0,7.36,0,14.72-.05,22.08a24,24,0,0,1-.86,5.7c-.55,2.08-2.19,2.91-4.27,2.79s-3.63-.91-4-3.11a22.31,22.31,0,0,1-.5-4.05c0-8,0-16,0-24,0-1,.35-2.27-1.35-2.27H65m179.49,0c-2.2,0-4,.15-5.72,0-2.4-.24-3.27.72-3,3a17.6,17.6,0,0,1,0,2.18c0,7.51,0,15,0,22.55,0,3.83-1.68,5.77-4.71,5.77-2.82,0-4.52-1.84-4.54-5.13-.05-7.35,0-14.71,0-22.06,0-6.36,0-6.27-6.42-6.35-2.17,0-2.8.68-2.74,2.78.23,8.79.29,17.59.51,26.38.13,5,3,9,7.87,10.06a27.14,27.14,0,0,0,10.28.18c5.49-1,8.41-5.44,8.46-11.64.06-5.74,0-11.48,0-17.22V403.81m-118.9,39.26c0-4,0-7.61,0-11.21s-.68-6.86-4.26-8.09c1.06-1.37,2.72-2.58,2.94-4a42.65,42.65,0,0,0,.33-10.22,5.67,5.67,0,0,0-5.38-5.14c-6-.52-12-.57-18.11-.82v39.34h8.33c0-1,.12-1.87.13-2.74,0-3.64.06-7.27,0-10.91,0-1.68.54-2.27,2.24-2.25,3.5,0,5,1.4,5.09,5.26.09,2.66,0,5.33.07,8,0,1.2-.07,2.77,1.87,2.78,2.4,0,4.82,0,6.77,0m177.59-19.44c4.55-3.1,4.74-7.52,4.18-12-.66-5.2-2.56-7.29-9.26-7.74-4.11-.28-8.25.07-12.37-.11-2.27-.09-2.9.7-2.88,2.89.09,10,0,19.89,0,29.83,0,6.71,0,6.62,6.6,6.65,2.13,0,2.6-.83,2.56-2.72-.1-3.8-.1-7.6,0-11.4a2.47,2.47,0,0,1,1.23-1.86c3.34-.83,5.47,1,5.59,4.43.11,3.21.26,6.43.52,9.65.06.62.69,1.7,1.11,1.73,2.61.16,5.24.08,7.72.08-.24-4.4-.6-8.4-.62-12.41,0-3.24-1-5.67-4.44-7M171.31,431.5c-2.84-7.73-6.08-16.65-9.38-25.55-.28-.75-.89-2-1.4-2-3.5-.17-7-.09-10.47-.09v39h7.27V413.54c-.09-.16,0,0,.12.24,3.24,9.1,6.45,18.22,9.73,27.31.27.73,1,1.84,1.53,1.87,3.34.17,6.7.08,10,.08V404.11h-7.41Zm16.12-47.62H370.61c3.44,0,3.44,0,3.44,3.43,0,25.07,0,50.14.05,75.21,0,2.34-.66,3-3,3q-183.66-.09-367.32,0c-2.34,0-3-.65-3-3,.08-25.15,0-50.3,0-75.45,0-3.19,0-3.19,3.18-3.19Z"/><path class="cls-1" d="M47.9,578.93V576.1c0-4.51-.69-5.13-5.14-4.27a2.24,2.24,0,0,0-1.48,1.44,16.1,16.1,0,0,0,0,4.33,1.91,1.91,0,0,0,1.31,1.28c1.65.16,3.32,0,5.31,0m9.22-3.56c0-3.62,0-3.62-3.29-3.63-3.46,0-3.46,0-3.46,3.71,0,3.5,0,3.5,3.29,3.5,3.46,0,3.46,0,3.46-3.58m190.6,8c-2.2,0-4.12.1-6,0s-2.59.54-2.56,2.47c.1,5.08,0,10.17,0,15.26,0,6.38,0,12.76.06,19.14,0,.81.74,2.24,1.25,2.29a69.53,69.53,0,0,0,7.24.11ZM112.93,622.51v-3.15c0-9,0-17.92,0-26.88,0-1.77.52-2.52,2.35-2.39a24.53,24.53,0,0,0,5.07-.06,2.85,2.85,0,0,0,1.72-1.61c.3-.68,0-1.59.09-2.4.28-2.17-.7-2.73-2.78-2.7-6.94.11-13.89,0-20.83,0-3.48,0-3.48,0-3.48,3.4s0,3.34,3.26,3.35a29.49,29.49,0,0,0,3.39,0c2.06-.23,2.6.67,2.58,2.64-.09,9,0,17.93,0,26.89v2.89Zm119.74-24.1c-3.36,0-6.42.07-9.47-.06-.69,0-1.91-.7-1.93-1.12-.11-2.23-.35-4.65.43-6.62.28-.71,3.24-.39,5-.52.48,0,1,0,1.45,0,6.06,0,6.06,0,5.52-6.07,0-.14-.15-.27-.28-.48H212.63v38.91h21.44v-6.57c-3.72,0-7.25,0-10.79,0-1.54,0-2.23-.47-2.16-2.09a49,49,0,0,0,0-6.06c-.15-2,.58-2.73,2.61-2.63,2.95.15,5.91,0,8.95,0Zm-107.33-15v39.26h18.15c3.91,0,3.91,0,3.86-4a3.84,3.84,0,0,1,0-.48c.22-1.84-.68-2.37-2.41-2.31-2.91.1-5.82-.08-8.73.06-2,.09-2.56-.67-2.44-2.54a41.73,41.73,0,0,0,0-5.81c-.15-2,.72-2.5,2.56-2.43,3,.11,5.91,0,8.93,0v-6.75c-3.31,0-6.44-.06-9.57,0-2.26.06-2.16-1.56-1.81-2.79.51-1.86-1.87-4.86,1.75-5.48a41.27,41.27,0,0,1,6.77-.07c4.72,0,4.89-.19,4.47-4.92,0-.09,0-.2,0-.24-.55-.53-1.1-1.48-1.66-1.49-6.53-.11-13.07-.07-19.84-.07m128.07,18.35c.31,4.39.43,7.77.82,11.13.62,5.42,3.78,8.94,9,10a23.41,23.41,0,0,0,4.82.2c6.89,0,11.21-4.43,11.39-11.36.06-2.43-.6-3.45-3.1-3.14-1.74.23-3.8-.26-5.15.54-.87.5-.66,2.77-1,4.24s-.95,2.89-2.91,3a3.39,3.39,0,0,1-3.89-2.5,6.89,6.89,0,0,1-.48-1.86c-.2-5.08-.42-10.14-.45-15.22a20.54,20.54,0,0,1,.88-4.72,3.37,3.37,0,0,1,3.76-2.74,3.16,3.16,0,0,1,3,3.48c-.23,3,1.24,3.42,3.61,3.11a11.84,11.84,0,0,1,1.46,0c4.07,0,4.07,0,3.69-4.07a9.46,9.46,0,0,0-7-8.38,29.36,29.36,0,0,0-6.7-.57c-5.2.05-9.28,3-10.44,8.07a93.34,93.34,0,0,0-1.36,10.73m78.7-6.76c2.29,0,4.48.13,6.63-.08.62,0,1.68-1.1,1.65-1.64-.23-4.38-1.44-8.28-6.66-9.78a24.69,24.69,0,0,0-6.45-.56c-5.44-.07-9.51,2.62-10.95,7.07-1.63,5-.19,9.37,4.37,12.73,2.47,1.81,5.1,3.4,7.58,5.2,1.09.79,2.43,1.69,2.87,2.83A5.69,5.69,0,0,1,331,615c-.49.91-2.22,1.5-3.43,1.57a3,3,0,0,1-3.22-2.68c-.18-1.17-.41-2.34-.63-3.63h-8.1c-1.26,6.83,1.46,11.66,7.3,12.7a38.06,38.06,0,0,0,7,.17c4.61,0,8.82-2.67,10-6.67,1.41-4.88,1.1-9.76-3.06-12.73-3.08-2.2-6.37-4.11-9.44-6.33a8.6,8.6,0,0,1-2.67-3.28c-.92-2,.28-4,2.48-4.68,1.7-.55,3.39.44,4.06,2.43.31.91.49,1.87.81,3.12m-239.79-.13c.67-6.12-2.21-10.65-7.59-11.72a24.06,24.06,0,0,0-7.24-.16c-4.23.43-7.53,2.56-9,6.69s-1.23,8.1,2.17,11.17c2.5,2.25,5.41,4,8.11,6.06,1.41,1.06,3.13,2,4,3.39a5.53,5.53,0,0,1,.42,4.39c-.41,1-2.2,1.82-3.44,1.92a3.13,3.13,0,0,1-3.41-2.79c-.2-1.16-.41-2.32-.63-3.52H67.61c-1,7.07,1.63,11.7,7.43,12.7a38.17,38.17,0,0,0,6.77.14c4.76,0,9-2.62,10.16-6.72,1.41-5,1.06-9.72-3.1-12.71-3.08-2.2-6.37-4.11-9.45-6.31a8.34,8.34,0,0,1-2.56-3.09c-1-2.06,0-4,2.21-4.78,1.85-.67,3.55.26,4.26,2.38.33,1,.54,2,.8,3ZM62.88,603c-.48-4.07-.65-8.2-1.5-12.17a9.32,9.32,0,0,0-7.75-7.41,29.74,29.74,0,0,0-5.74-.5c-6.29,0-11.07,3.88-11.48,10.09a160.35,160.35,0,0,0,0,19.73c.34,5.58,3.8,9.13,9.07,10.2a25.06,25.06,0,0,0,5.06.18c5.44,0,9.6-2.84,10.85-8.13.91-3.87,1-7.94,1.49-12m246.91,19.49V583.53h-8.16a2.17,2.17,0,0,0-.28.58c0,3.06-.06,6.13-.1,9.2-.08,5.92.84,5-5.16,5.09-3.12,0-3.13,0-3.13-3.24V583.37c-2.44,0-4.54.07-6.61,0-1.58-.08-2.12.51-2.1,2.09.07,4.69,0,9.37,0,14.06,0,7,0,13.91.05,20.86,0,.75.65,2.11,1.09,2.14,2.44.21,4.92.11,7.31.11a9.4,9.4,0,0,0,.21-1.11q0-5.22,0-10.43c0-5.43,0-5.33,5.32-5.47,2.32-.06,3.12.6,3,3-.18,4.57-.05,9.16-.05,13.9ZM182.6,583.8v38.83c2.24,0,4.27-.09,6.28,0,1.7.11,2.25-.54,2.2-2.22-.1-3.87-.08-7.75,0-11.63,0-.72.47-1.87,1-2.07,2.95-1.08,5.67,1,5.8,4.14s.23,6.43.53,9.64c.07.73.86,2,1.4,2,2.46.22,5,.09,7.59.09,0-.81,0-1.35,0-1.89-.13-2.7-.19-5.4-.43-8.09-.33-3.72.05-7.83-4.35-9.25,1-1.41,2.65-2.66,3-4.19a30.79,30.79,0,0,0,.6-8.78c-.29-3.82-2.65-6.36-6.54-6.54-5.62-.26-11.25-.06-17.1-.06m-22.11,38.82V610c0-3.38.92-4.08,4.21-3.24,2.37.61,3.05,2.32,3.12,4.55.1,3.3.26,6.59.52,9.88,0,.51.74,1.36,1.17,1.38,2.56.13,5.12.06,7.9.06-.34-2.27-.74-4.23-.88-6.2s-.05-4.21,0-6.31c0-3.3-1.17-5.8-4.55-6.87,3.3-2.38,4.1-3.17,4.36-8.57.28-5.72-.54-10.2-7.61-11-5.19-.58-10.48-.24-15.72-.17-.4,0-1.13,1.06-1.13,1.63q-.1,17.94,0,35.87a2.16,2.16,0,0,0,1.44,1.57c2.24.18,4.5.08,7.18.08m27-59.19H370.62c3.42,0,3.42,0,3.42,3.44v75.45c0,3.16,0,3.16-3.22,3.16H4c-3.17,0-3.17,0-3.17-3.2v-75.7c0-3.15,0-3.15,3.22-3.15H187.46"/><path class="cls-1" d="M195.91,333.65V319.84c0-5.85,0-5.74-5.83-5.85-2.26-.05-2.9.68-2.88,2.88.1,10,0,20,0,30,0,6.61,0,6.54,6.52,6.45,1.73,0,2.19-.63,2.17-2.26-.07-5.81,0-11.63,0-17.43m74.24.13v-14c0-5.73,0-5.63-5.69-5.75-2.32-.06-3,.64-3,3,.11,10,.05,20,.05,30,0,6.44,0,6.37,6.38,6.34,1.83,0,2.34-.6,2.32-2.37-.1-5.72,0-11.46,0-17.19m-52.06-8.15c2.34,0,4.51-.05,6.68,0,1.48,0,1.81-.71,1.7-2-.45-5.14-2.16-8.62-7.82-9.94a22.14,22.14,0,0,0-6.41-.19c-5.22.35-8.69,3-10,7.34-1.46,4.87,0,9.18,4.26,12.34,2.46,1.82,5.11,3.38,7.6,5.17,1.15.84,2.53,1.78,3,3a5.28,5.28,0,0,1-.12,4.22c-.56.92-2.37,1.33-3.67,1.43-1.77.14-2.63-1.11-3-2.83-.87-3.54-.94-3.52-4.76-3.52a16.47,16.47,0,0,0-2.9.07c-.49.08-1.24.6-1.28,1-.56,4.78.76,10.21,6.72,11.46a34.6,34.6,0,0,0,8.87.46c4.47-.25,8.4-3.21,9.15-7.37,1-5.65.93-8.87-3.49-12.16-2.65-2-5.58-3.56-8.25-5.5a13,13,0,0,1-3.46-3.58c-1.18-1.92-.17-4,1.94-4.88,2-.79,3.74.14,4.45,2.34.3.91.48,1.86.78,3.07m37.69,0c.94-6-2-10.72-7.38-11.86a26.06,26.06,0,0,0-6.67-.2c-4.68.25-8.62,3.15-9.78,7-1.52,5-.19,9.35,4,12.44,2.53,1.87,5.23,3.51,7.77,5.37,1.15.83,2.54,1.76,3.06,3a5.36,5.36,0,0,1,0,4.27c-.54.92-2.37,1.35-3.68,1.46-1.77.14-2.75-1.08-3-2.83-.19-1.09-.45-2.17-.73-3.52-2.39,0-4.79,0-7.2,0a1.62,1.62,0,0,0-1.11.95c-1.3,4.44,1.74,10.28,6.27,11.42a34,34,0,0,0,7.9.59c5.19.06,9.09-2.58,10.52-6.91,1.79-5.41.59-9.82-3.82-13.07-2.46-1.81-5.25-3.18-7.69-5a13.84,13.84,0,0,1-3.75-4.21c-.95-1.74.23-3.62,2.21-4.37a3.23,3.23,0,0,1,4.26,2,33.68,33.68,0,0,1,.87,3.44h8.05ZM63.6,353.29c-.61-1.32-.93-2.13-1.34-2.9-2.78-5.19-5.5-10.41-8.39-15.53-1.08-1.91-1.18-3.38.11-5.27,2.82-4.13,5.39-8.43,8-12.67.48-.78.88-1.63,1.55-2.88-2.58,0-4.67.1-6.74,0a3.31,3.31,0,0,0-3.48,1.92c-2.59,4.52-5.32,9-8,13.43l-.5-.11V314c-2.5,0-4.67,0-6.84,0-1.25,0-1.72.46-1.72,1.71,0,11.95,0,23.92.07,35.87,0,.56.73,1.56,1.18,1.59,2.38.16,4.78.08,7.44.08v-17c2.85,5.11,5.32,10.26,7.89,15.37.34.68,1.15,1.53,1.79,1.58,2.8.17,5.62.07,8.94.07m212-20,.47.05c0,2.74-.11,5.49,0,8.23a17.86,17.86,0,0,0,.91,4.23c1.21,4,3.65,6.81,7.9,7.59a31.7,31.7,0,0,0,5.5.42c5.84,0,10.27-2.9,11.12-8.64a103.71,103.71,0,0,0,.81-19,17.48,17.48,0,0,0-3.06-8.65c-2.74-4-7.36-4.08-11.81-4-5.25.16-9.25,2.91-10.45,8-.89,3.8-1,7.78-1.43,11.68m-210.93-.8c.3,4,.43,7.14.77,10.26.68,6.11,3.79,9.75,9.33,10.88a22.52,22.52,0,0,0,4.58.19c6.44,0,10.45-3.25,11.71-9.6a58.51,58.51,0,0,0,.35-19.71c-.9-6.44-3.78-9.55-9.48-10.7a24,24,0,0,0-5.3-.2c-5.52.11-9.6,3.3-10.69,8.73-.71,3.59-.93,7.31-1.27,10.15M316,324.55c3,8.18,6.31,17.34,9.72,26.47.32.85,1.15,2.11,1.81,2.16,3.27.23,6.56.1,9.88.1V314c-2.19,0-4.2,0-6.2,0-1.65-.06-1.78.88-1.74,2.18.27,8.93.49,17.85.71,26.1-3.05-8.33-6.3-17.27-9.61-26.17-.3-.78-1.06-1.95-1.65-2-3.36-.2-6.74-.1-10.24-.1v39.09H316Zm-154.22,17c-2-8.51-4-17.19-6-25.89a1.82,1.82,0,0,0-2.16-1.65c-3.07.07-6.15.11-9.22,0-1.84-.08-2.38.67-2.35,2.4.07,4.45,0,8.9,0,13.35,0,7-.05,14.07,0,21.1,0,.81.74,2.25,1.25,2.31a70.52,70.52,0,0,0,7.12.1V322.53a5.21,5.21,0,0,1,.26.78c1.92,8.14,3.82,16.29,5.76,24.42,1.34,5.64,1.37,5.55,7.23,5.62,1.81,0,2.62-.58,2.93-2.28.45-2.46,1-4.89,1.54-7.32,1.59-7.12,3.19-14.24,4.89-21.81,0,2.07,0,3.67,0,5.26-.12,8.16-.28,16.31-.35,24.46,0,.53.63,1.51,1,1.53,2.3.15,4.61.08,6.84.08V314.05c-4.09,0-8-.07-11.84.07a2.37,2.37,0,0,0-1.58,1.56c-1.89,8.7-3.68,17.43-5.43,25.88m-45,.77a3.61,3.61,0,0,0,0-.8c-2-8.71-3.87-17.42-5.94-26.1-.14-.59-1.36-1.29-2.12-1.32-2.9-.17-5.82,0-8.73-.11-2-.1-2.62.56-2.6,2.58.09,10.11,0,20.22,0,30.33,0,6.69,0,6.65,6.72,6.42,1.43,0,2.07-.45,2-2-.21-2.88-.43-5.78-.46-8.68-.06-6.6,0-13.2,0-20.37,2,8.66,4,16.78,5.86,24.91,1.47,6.35,1.45,6.32,7.89,6.1,1.35-.05,2-.47,2.3-1.86.71-3.55,1.58-7.06,2.36-10.6,1.44-6.43,2.86-12.87,4.2-18.92v31.18H136V314.05c-4.19,0-8.21-.06-12.24.08-.54,0-1.39,1-1.53,1.71-1.9,8.88-3.7,17.78-5.47,26.49m70.41,33.37H4.27c-3.44,0-3.45,0-3.45-3.42,0-25.07,0-50.15,0-75.21,0-2.32.61-3,3-3q183.68.09,367.33,0c2.33,0,3,.63,3,3-.09,25.15-.05,50.3-.05,75.45,0,3.2,0,3.21-3.18,3.21H187.21"/><path class="cls-1" d="M170.7,144.15H296.88c-2.72,1.79-4.82,3.24-7,4.6-27.67,17.35-57.66,29.16-89.36,36.6-11.16,2.61-22.56,4.33-33.93,5.84a156.38,156.38,0,0,1-24.08,1.4c-12.64-.29-25.25-1.52-37-7.06-6.69-3.17-12.32-7.47-14.88-14.78-2.18-6.22-1.1-12.28,1.46-18.11,4.37-9.9,11.49-17.74,19.52-24.74C135,107.52,162.44,94.37,191.35,84a288.79,288.79,0,0,1,51.8-13.45c7.76-1.25,15.63-1.93,23.47-2.56a134.67,134.67,0,0,1,16.68-.43c6.09.26,12.16,1.15,18.22,1.89a3.05,3.05,0,0,1,2,1.39,130.13,130.13,0,0,1,15,43.66c.07.44-.66,1.21-1.18,1.47a4.69,4.69,0,0,1-1.92.07c-21.34,0-42.7,0-64,0a19.43,19.43,0,0,0-6.13,1.08Q209,129.68,172.82,142.33c-.79.28-1.52.69-2.28,1,.05.26.11.52.16.78"/><path class="cls-1" d="M76.85,208.74c12.11,5.77,24.5,8.65,37.3,10.21a195.72,195.72,0,0,0,32.36,1.29A306.34,306.34,0,0,0,204.45,212a352.55,352.55,0,0,0,86.17-32.46c8.22-4.45,16.09-9.55,24.12-14.37.61-.36,1.18-.78,1.91-1.28C309,203.76,276,249,221.23,263.47A132.54,132.54,0,0,1,76.85,208.74"/><path class="cls-1" d="M55.32,151C47,74.79,99.32,24,142.6,10.13v8.46c0,3,0,6,0,9,0,1.16.16,2.06,1.68,2.06,10.1,0,20.2,0,30.63,0,.05-1.08.13-2,.13-2.93,0-7.2.06-14.4,0-21.6,0-2,.55-2.7,2.61-2.69,3.38,0,6.76-.4,10.14-.4,3.53,0,7.08.29,10.62.47,1.76.08,2.49.9,2.46,2.77-.09,7,0,14.07,0,21.11v3.11c1,.06,1.75.16,2.53.16,9.06,0,18.12-.05,27.17.05,2.12,0,2.85-.59,2.79-2.74-.14-4.6,0-9.22,0-13.83V10.34a132.81,132.81,0,0,1,46.43,29.27c-3.3.26-6.24.4-9.17.75-11.48,1.37-23,2.44-34.42,4.3-20.88,3.42-41.11,9.41-60.9,16.84-29,10.86-56.27,24.81-80.69,44C81,116.1,68.71,128,59.74,142.93c-1.53,2.55-2.86,5.22-4.42,8.08"/><path class="cls-1" d="M292,415.32a11.53,11.53,0,0,1,0-1.44c.19-1.39-.83-3.41,2-3.36,3.24,0,4.7,1,4.85,3.65.25,4.58-.95,6.1-4.59,6.19-1.61,0-2.45-.39-2.29-2.15.09-.95,0-1.92,0-2.89"/><path class="cls-1" d="M109.53,415.39a4.81,4.81,0,0,1,0-1.2c.38-1.25-1.07-3.28,1.47-3.64,3.26-.45,5.14.4,5.45,3.1a8,8,0,0,1-1.18,5.47c-.83,1-3.18,1-4.86,1-.27,0-.64-2-.87-3.05a7.84,7.84,0,0,1,0-1.68"/><path class="cls-1" d="M160.49,595c0-.4,0-.8,0-1.2.12-1.67-.81-3.86,2.44-3.69,3.46.18,4.79,1.11,4.87,4.16.13,4.31-1.37,5.83-5.44,5.68-1.29,0-2-.44-1.88-1.82.05-1,0-2.09,0-3.13"/><path class="cls-1" d="M191.05,594.81c0-.48,0-1,0-1.44.11-1.46-.68-3.36,2.1-3.3,3.18.08,4.59.95,4.73,3.47a21.3,21.3,0,0,1,0,2.65,4.34,4.34,0,0,1-6,3.55,2.15,2.15,0,0,1-.77-1.55c-.11-1.12,0-2.25,0-3.38"/><path class="cls-1" d="M54,603c-.24,3.1-.36,6.24-.76,9.35s-1.67,4.09-4.14,4.06c-2.27,0-3.88-1.25-4-4-.23-6.25-.22-12.53,0-18.79a3.91,3.91,0,0,1,4-4c2.36,0,3.74,1.23,4.11,4.14s.51,6.1.75,9.2"/><path class="cls-1" d="M83.15,333.58c-.26,3.45-.38,6.67-.8,9.86-.26,2-1.26,3.59-3.76,3.65a3.53,3.53,0,0,1-4-3.57c-.36-5-.51-10.08-.6-15.13a21.78,21.78,0,0,1,.66-5,3.63,3.63,0,0,1,4-3.12,3.44,3.44,0,0,1,3.65,3.19c.49,3.42.62,6.88.89,10.12"/><path class="cls-1" d="M284.49,333.75c.24-3.17.36-6.31.75-9.42.35-2.77,1.73-4,4-4a3.69,3.69,0,0,1,4.08,3.87q.42,9.49,0,19c-.12,2.78-1.76,3.89-4,3.88s-3.58-1-4-3.95c-.41-3.1-.52-6.24-.76-9.36"/></svg>