<svg id="Ebene_1" data-name="Ebene 1" xmlns="http://www.w3.org/2000/svg" viewBox="0 0 710 709"><defs><style>.cls-1{fill:#373728;}</style></defs><path class="cls-1" d="M519.28,456.68c38.27,38,76.23,75.65,114.16,113.34,19.75,19.63,39.65,39.12,59.09,59.07,15.73,16.13,18,37.32,6.7,55.39-10.5,16.83-30.68,25-49.63,18-8.55-3.14-16.64-9.28-23.21-15.8C570.72,631.48,515.45,575.84,460,520.35a16,16,0,0,0-2.6-1.78c-143.73,99.81-313.2,51.77-396.88-59C-24.15,347.36-17.67,183.41,94.35,78c98.4-92.56,255.51-105.46,371.77-14.56C573.92,147.76,617.24,317.49,519.28,456.68ZM289.07,45.13C152.58,45.3,49.78,154.57,46.49,278.56,42.73,420.45,155,529.39,288.4,529.34c132.37-.05,242.18-108.41,242.4-239.52C531,154.29,423.43,45.37,289.07,45.13Z"/></svg>